<svg width="24" height="24" viewBox="0 0 24 24" fill="none" xmlns="http://www.w3.org/2000/svg">
<g clip-path="url(#clip0_1472_17977)">
<path d="M8.55665 15.9177L4.8286 12.1897C4.62771 11.9888 4.35526 11.876 4.07117 11.876C3.78708 11.876 3.51462 11.9888 3.31374 12.1897C3.11285 12.3906 3 12.663 3 12.9471C3 13.0878 3.02771 13.2271 3.08154 13.357C3.13537 13.487 3.21427 13.6051 3.31374 13.7045L7.8046 18.1954C8.2236 18.6144 8.90045 18.6144 9.31945 18.1954L20.6863 6.8286C20.8871 6.62771 21 6.35526 21 6.07117C21 5.78708 20.8871 5.51462 20.6863 5.31374C20.4854 5.11285 20.2129 5 19.9288 5C19.6447 5 19.3723 5.11285 19.1714 5.31374L8.55665 15.9177Z" fill="#19AF66"/>
</g>
<defs>
<clipPath id="clip0_1472_17977">
<rect width="24" height="24" rx="3" fill="white"/>
</clipPath>
</defs>
</svg>
