<svg width="32" height="32" viewBox="0 0 32 32" fill="none" xmlns="http://www.w3.org/2000/svg">
<rect x="0.5" y="0.5" width="31" height="31" rx="5.5" fill="#F9F9F9"/>
<rect x="0.5" y="0.5" width="31" height="31" rx="5.5" stroke="#E6E6E6"/>
<path d="M13 20.1701L9.53002 16.7001C9.34305 16.5131 9.08945 16.4081 8.82502 16.4081C8.5606 16.4081 8.307 16.5131 8.12002 16.7001C7.93305 16.8871 7.828 17.1407 7.828 17.4051C7.828 17.536 7.85379 17.6657 7.9039 17.7866C7.954 17.9076 8.02744 18.0175 8.12002 18.1101L12.3 22.2901C12.69 22.6801 13.32 22.6801 13.71 22.2901L24.29 11.7101C24.477 11.5231 24.582 11.2695 24.582 11.0051C24.582 10.7407 24.477 10.4871 24.29 10.3001C24.103 10.1131 23.8494 10.0081 23.585 10.0081C23.3206 10.0081 23.067 10.1131 22.88 10.3001L13 20.1701Z" fill="#19AF66"/>
</svg>
