<svg width="24" height="24" viewBox="0 0 24 24" fill="none" xmlns="http://www.w3.org/2000/svg">
<g clip-path="url(#clip0_1477_18007)">
<path d="M20.1196 1.925H7.94565C7.82139 1.925 7.7046 1.9815 7.6202 2.07796C7.53608 2.17409 7.49022 2.30257 7.49022 2.43478V7.14239H3.38043C3.25617 7.14239 3.13938 7.19889 3.05498 7.29535C2.97086 7.39148 2.925 7.51997 2.925 7.65217V21.5652C2.925 21.6974 2.97086 21.8259 3.05498 21.922C3.13938 22.0185 3.25617 22.075 3.38043 22.075H15.5543C15.6786 22.075 15.7954 22.0185 15.8798 21.922C15.9639 21.8259 16.0098 21.6974 16.0098 21.5652V16.8576H20.1196C20.2438 16.8576 20.3606 16.8011 20.445 16.7047C20.5291 16.6085 20.575 16.48 20.575 16.3478V2.43478C20.575 2.30257 20.5291 2.17409 20.445 2.07796C20.3606 1.9815 20.2438 1.925 20.1196 1.925ZM15.0989 21.0554H3.83587V8.16196H15.0989V21.0554ZM19.6641 15.838H16.0098V7.65217C16.0098 7.51997 15.9639 7.39148 15.8798 7.29535C15.7954 7.19889 15.6786 7.14239 15.5543 7.14239H8.40109V2.94457H19.6641V15.838Z" fill="#E6E6E6" stroke="#E6E6E6" stroke-width="0.15"/>
</g>
<defs>
<clipPath id="clip0_1477_18007">
<rect width="20" height="20" fill="white" transform="translate(2 2)"/>
</clipPath>
</defs>
</svg>
