<svg xmlns="http://www.w3.org/2000/svg" width="16" height="17" viewBox="0 0 16 17" fill="none">
   <style>
        path {
            fill: black;
        }
        @media (prefers-color-scheme: dark) {
            path { fill: #E6E6E6; }
        }
    </style>
        <path d="M12.0002 14.3333H4.0002C3.51397 14.3333 3.04766 14.1401 2.70384 13.7963C2.36002 13.4525 2.16687 12.9862 2.16687 12.5V4.49996C2.16687 4.01373 2.36002 3.54741 2.70384 3.2036C3.04766 2.85978 3.51397 2.66663 4.0002 2.66663H8.0002C8.13281 2.66663 8.25999 2.7193 8.35376 2.81307C8.44753 2.90684 8.5002 3.03402 8.5002 3.16663C8.5002 3.29923 8.44753 3.42641 8.35376 3.52018C8.25999 3.61395 8.13281 3.66663 8.0002 3.66663H4.0002C3.77919 3.66663 3.56723 3.75442 3.41095 3.9107C3.25467 4.06698 3.16687 4.27895 3.16687 4.49996V12.5C3.16687 12.721 3.25467 12.9329 3.41095 13.0892C3.56723 13.2455 3.77919 13.3333 4.0002 13.3333H12.0002C12.2212 13.3333 12.4332 13.2455 12.5895 13.0892C12.7457 12.9329 12.8335 12.721 12.8335 12.5V8.49996C12.8335 8.36735 12.8862 8.24017 12.98 8.14641C13.0738 8.05264 13.2009 7.99996 13.3335 7.99996C13.4661 7.99996 13.5933 8.05264 13.6871 8.14641C13.7809 8.24017 13.8335 8.36735 13.8335 8.49996V12.5C13.8335 12.9862 13.6404 13.4525 13.2966 13.7963C12.9527 14.1401 12.4864 14.3333 12.0002 14.3333ZM13.3335 6.33329C13.2015 6.33157 13.0753 6.27833 12.9819 6.18494C12.8885 6.09154 12.8353 5.96536 12.8335 5.83329V3.66663H10.6669C10.5343 3.66663 10.4071 3.61395 10.3133 3.52018C10.2195 3.42641 10.1669 3.29923 10.1669 3.16663C10.1669 3.03402 10.2195 2.90684 10.3133 2.81307C10.4071 2.7193 10.5343 2.66663 10.6669 2.66663H13.3335C13.4656 2.66835 13.5918 2.72159 13.6852 2.81498C13.7786 2.90838 13.8318 3.03455 13.8335 3.16663V5.83329C13.8318 5.96536 13.7786 6.09154 13.6852 6.18494C13.5918 6.27833 13.4656 6.33157 13.3335 6.33329Z" fill="#231F20"/>
        <path d="M9.00021 8C8.87158 7.99016 8.75192 7.93033 8.66687 7.83333C8.58488 7.74166 8.53955 7.62299 8.53955 7.5C8.53955 7.37701 8.58488 7.25834 8.66687 7.16667L13.0002 2.83333C13.046 2.78421 13.1012 2.74481 13.1625 2.71748C13.2238 2.69015 13.2901 2.67546 13.3572 2.67427C13.4243 2.67309 13.491 2.68544 13.5533 2.71058C13.6155 2.73573 13.6721 2.77316 13.7196 2.82064C13.767 2.86812 13.8045 2.92468 13.8296 2.98693C13.8548 3.04919 13.8671 3.11588 13.8659 3.18301C13.8647 3.25015 13.8501 3.31636 13.8227 3.37769C13.7954 3.43903 13.756 3.49423 13.7069 3.54L9.33354 7.83333C9.24849 7.93033 9.12883 7.99016 9.00021 8Z" fill="#231F20"/>
</svg>