<svg xmlns="http://www.w3.org/2000/svg" width="162" height="56" viewBox="0 0 162 56" fill="none">
  <path d="M83.7949 35.4959L87.8338 11.7031H93.9266L98.7559 24.4222L103.87 11.7031H110.025L113.623 35.4959H107.437L105.701 21.8018H105.639L99.9257 35.4959H97.4624L92.0032 21.8018H91.938L89.9493 35.4959H83.7949Z" fill="white"/>
  <path d="M129.825 16.9413H122.473V20.9182H129.445V26.1554H122.473V30.2582H129.825V35.4959H116.286V11.7031H129.825V16.9413Z" fill="white"/>
  <path d="M152.157 11.7031L147.044 24.4204L142.215 11.7031H136.12L132.084 35.4959H138.239L140.228 21.8018H140.289L145.753 35.4959H148.213L153.924 21.8018H153.989L155.727 35.4959H161.911L158.314 11.7031H152.157Z" fill="white"/>
  <path d="M92.2414 46.3594H99.2376C99.2675 47.6363 99.1636 48.734 98.9228 49.6548C98.688 50.5766 98.2125 51.4533 97.5007 52.2836C96.7426 53.1764 95.8089 53.8674 94.7024 54.3563C93.596 54.8452 92.4555 55.0887 91.2825 55.0887C88.9207 55.0887 86.8897 54.2447 85.1887 52.5427C83.4877 50.8426 82.6367 48.8089 82.6367 46.4494C82.6367 44.0449 83.4923 41.9869 85.202 40.2776C86.909 38.572 88.9726 37.7178 91.3946 37.7178C94.2769 37.7178 96.6452 38.9271 98.5033 41.3487L97.1428 42.6168C95.6407 40.5105 93.7177 39.4533 91.3725 39.4533C89.4702 39.4533 87.8528 40.1453 86.5157 41.5246C85.1782 42.9059 84.5114 44.5568 84.5114 46.4697C84.5114 48.2984 85.1639 49.8777 86.4716 51.2157C87.1089 51.8539 87.8533 52.3709 88.6965 52.7628C89.5461 53.1575 90.3943 53.3546 91.2393 53.3546C92.7671 53.3546 94.1506 52.8543 95.3825 51.8512C96.6185 50.8513 97.2328 49.5969 97.2328 48.0995H92.2419V46.3594H92.2414Z" fill="white"/>
  <path d="M105.922 47.4272V54.8024H104.052V38.0049H106.48C107.341 38.0049 108.113 38.0692 108.795 38.2034C109.48 38.338 110.126 38.5701 110.736 38.8967C111.341 39.223 111.811 39.7041 112.139 40.3327C112.465 40.9635 112.629 41.7318 112.629 42.6397C112.629 43.93 112.249 45.0011 111.491 45.8465C110.735 46.6906 109.711 47.1675 108.418 47.2719L113.766 54.8029H111.472L106.388 47.4276H105.922V47.4272ZM105.922 39.744V45.7813H106.503C107.096 45.7813 107.62 45.7454 108.073 45.6696C108.525 45.5947 108.973 45.4569 109.409 45.2561C109.85 45.0594 110.182 44.7483 110.413 44.3334C110.644 43.9176 110.757 43.397 110.757 42.773C110.757 42.2386 110.675 41.7828 110.512 41.4065C110.349 41.0274 110.148 40.7297 109.912 40.5146C109.675 40.2991 109.353 40.1328 108.955 40.0124C108.552 39.8948 108.168 39.8217 107.806 39.7891C107.441 39.762 106.998 39.7445 106.481 39.7445H105.922V39.744Z" fill="white"/>
  <path d="M128.483 50.0353H121.307L119.283 54.8029H117.23L124.985 37.2031L132.539 54.8029H130.466L128.483 50.0353ZM127.75 48.2984L124.941 41.5706L122.064 48.2984H127.75Z" fill="white"/>
  <path d="M138.388 47.4506V54.8033H136.519V38.0049H139.28C140.202 38.0049 140.987 38.0545 141.641 38.162C142.296 38.2631 142.897 38.5094 143.446 38.8972C144.056 39.3273 144.526 39.8796 144.852 40.5569C145.182 41.2314 145.343 41.9565 145.343 42.7293C145.343 44.2429 144.808 45.4463 143.742 46.3359C142.831 47.0802 141.5 47.4511 139.75 47.4511H138.388V47.4506ZM138.388 39.7436V45.7119H139.636C142.191 45.7119 143.469 44.7029 143.469 42.6848C143.469 42.1481 143.385 41.696 143.211 41.3247C143.044 40.952 142.826 40.6681 142.566 40.4664C142.309 40.2669 141.969 40.1116 141.554 39.9972C141.136 39.8883 140.75 39.8199 140.395 39.7872C140.039 39.7601 139.601 39.7436 139.078 39.7436H138.388Z" fill="white"/>
  <path d="M151.526 44.8238H160.127V38.0059H162V54.802H160.127V46.5602H151.526V54.802H149.654V38.0059H151.526V44.8238Z" fill="white"/>
  <path d="M19.1786 19.8242C19.2411 19.7231 19.3045 19.6229 19.3578 19.5173C19.3904 19.4607 19.4267 19.4065 19.4557 19.3472C19.4892 19.2894 19.5246 19.2347 19.5558 19.1768C19.5885 19.1212 19.6248 19.0642 19.6537 19.0086C19.6873 18.9525 19.7236 18.896 19.7539 18.84C19.7874 18.7816 19.8219 18.7265 19.8527 18.6681C19.8871 18.6139 19.9207 18.5574 19.9519 18.4995C19.9864 18.4439 20.0199 18.3883 20.0521 18.3313C20.0861 18.2766 20.1192 18.2187 20.1518 18.1631C20.1853 18.1075 20.2189 18.0506 20.2501 17.995C20.2846 17.9389 20.3177 17.8842 20.3489 17.8254C20.3843 17.7707 20.4169 17.7142 20.4491 17.6582C20.4845 17.6035 20.5153 17.547 20.5479 17.4909C20.5842 17.4353 20.6145 17.3802 20.648 17.3246C20.6843 17.2681 20.7142 17.2134 20.7468 17.1573C20.7822 17.1026 20.8135 17.0448 20.847 16.9882C20.8824 16.9336 20.9127 16.8752 20.9458 16.8219C20.9821 16.7672 21.0115 16.7089 21.045 16.6546C21.0804 16.6018 21.1108 16.5444 21.1438 16.4888C21.1815 16.4341 21.2109 16.3753 21.2458 16.3188C21.3157 16.2135 21.375 16.106 21.4379 15.9985C21.5059 15.8882 21.5753 15.7807 21.635 15.67C21.6713 15.6093 21.7118 15.5482 21.7453 15.4866C21.7789 15.431 21.8165 15.374 21.8478 15.3157C21.8813 15.2592 21.9195 15.204 21.9507 15.1466C21.9842 15.0892 22.0215 15.034 22.0541 14.9757C22.0876 14.9201 22.1258 14.8622 22.1566 14.8066C22.191 14.7491 22.2282 14.6935 22.2599 14.6356C22.2944 14.5791 22.3316 14.5235 22.3633 14.4666C22.3978 14.411 22.4332 14.3535 22.4658 14.2984C22.5012 14.2405 22.5365 14.184 22.5692 14.1265C22.6036 14.07 22.639 14.014 22.6726 13.9565C22.707 13.9009 22.7424 13.8449 22.7746 13.7874C22.8099 13.7328 22.8444 13.6758 22.8779 13.6183C22.9133 13.5627 22.9478 13.5071 22.9804 13.4502C23.0158 13.3946 23.0503 13.339 23.0838 13.282C23.1146 13.2342 23.144 13.186 23.1734 13.1363C23.2161 13.0697 23.2566 13.0012 23.2979 12.9337C23.3342 12.8758 23.3696 12.817 23.4041 12.7586C23.4408 12.703 23.4748 12.6442 23.5097 12.5863C23.546 12.5289 23.5805 12.4715 23.6159 12.4131C23.6522 12.3566 23.6862 12.2982 23.7211 12.2399C23.7583 12.1834 23.7928 12.1245 23.8277 12.0689C23.8718 12 23.9113 11.9311 23.9527 11.864C24.011 11.773 24.0671 11.6821 24.1195 11.5906C24.1558 11.5327 24.1925 11.4744 24.227 11.4146C25.9777 8.59429 25.6252 4.84165 23.1688 2.40038C20.3117 -0.440177 15.6911 -0.427311 12.8491 2.42887C11.4587 3.82801 10.7539 5.64759 10.73 7.47452C10.7286 7.50576 10.7295 7.53793 10.7286 7.56825C10.7286 7.5779 10.7277 7.58663 10.7277 7.5949C10.7268 7.62845 10.7268 7.66061 10.7263 7.69599C10.7231 7.76813 10.7222 7.84211 10.7208 7.91609C10.7185 7.99006 10.7176 8.06404 10.7167 8.13618C10.7144 8.21016 10.7134 8.28322 10.7125 8.35719C10.7098 8.42933 10.7093 8.50331 10.7084 8.57729C10.7061 8.64943 10.7038 8.72433 10.7038 8.79601C10.7006 8.86998 10.6997 8.94304 10.6987 9.0161C10.6955 9.08916 10.6937 9.16314 10.6937 9.23574C10.6905 9.32993 10.6886 9.42597 10.6886 9.522C10.685 9.58862 10.6877 9.65479 10.6868 9.72142C10.6813 9.79861 10.6822 9.87535 10.6804 9.95438C10.6762 10.0284 10.6771 10.1074 10.6753 10.1832C10.6712 10.2599 10.6712 10.3371 10.6684 10.4129C10.6638 10.4911 10.6638 10.5664 10.6629 10.6441C10.6588 10.7199 10.6578 10.798 10.6569 10.8738C10.6528 10.951 10.6519 11.0277 10.6509 11.1036C10.6473 11.1808 10.6454 11.2566 10.6445 11.3333C10.6413 11.41 10.6395 11.4863 10.6385 11.563C10.6353 11.6402 10.6335 11.7147 10.6326 11.7919C10.6289 11.8691 10.6261 11.9449 10.6261 12.0207C10.6238 12.0974 10.6202 12.1737 10.6202 12.2495C10.6179 12.3267 10.6133 12.4025 10.6133 12.4783C10.6105 12.5551 10.6068 12.6295 10.6068 12.7063C10.6045 12.7821 10.5999 12.8579 10.5999 12.9342C10.5986 13.01 10.5926 13.0858 10.5935 13.1611C10.5912 13.2383 10.5857 13.3132 10.5866 13.3881C10.5848 13.4387 10.5806 13.4892 10.5806 13.5388C10.5797 13.5531 10.5806 13.5623 10.5797 13.5733C10.5797 13.5853 10.5788 13.5935 10.5788 13.6046C10.5751 13.6574 10.5761 13.7089 10.5742 13.7617C10.5682 13.8375 10.5692 13.9147 10.5664 13.9937C10.5613 14.0696 10.5613 14.1468 10.5586 14.2239C10.5531 14.2998 10.5531 14.377 10.5508 14.4551C10.5457 14.5318 10.5448 14.6072 10.543 14.6853C10.5375 14.762 10.5365 14.8374 10.5333 14.915C10.5292 14.9922 10.5264 15.0689 10.5255 15.1461C10.5209 15.221 10.5182 15.2973 10.5168 15.3759C10.5126 15.4517 10.509 15.5271 10.5071 15.6056C10.5025 15.6814 10.4993 15.7573 10.4984 15.8335C10.4943 15.9084 10.4901 15.9847 10.4901 16.0605C10.4855 16.1377 10.4796 16.2154 10.4796 16.2903C10.4763 16.3652 10.4699 16.4401 10.4699 16.5182C10.4662 16.5922 10.4598 16.6661 10.4598 16.7438C10.4529 16.8178 10.4529 16.895 10.4502 16.9708C10.4433 17.0475 10.4423 17.1252 10.44 17.201C10.4332 17.28 10.4309 17.354 10.4286 17.4335C10.4226 17.5084 10.4198 17.5865 10.4175 17.6623C10.412 17.7372 10.4088 17.8162 10.4065 17.892C10.4005 17.9674 10.3969 18.046 10.395 18.1213C10.389 18.1971 10.3849 18.2734 10.384 18.3492C10.3776 18.4251 10.373 18.5004 10.3711 18.5762C10.3661 18.653 10.3601 18.7283 10.3592 18.8032C10.3541 18.8781 10.3468 18.9535 10.3458 19.0302C10.3449 19.0454 10.344 19.0628 10.3436 19.0821C10.3371 19.1377 10.3362 19.1933 10.3339 19.2466C10.3339 19.2485 10.333 19.2521 10.333 19.2554C10.3321 19.2737 10.3311 19.2926 10.3307 19.3119C10.3224 19.3881 10.321 19.464 10.3169 19.543C10.3091 19.617 10.3063 19.6928 10.3031 19.77C10.2962 19.8449 10.2912 19.9212 10.2884 19.997C10.2815 20.0742 10.2778 20.1481 10.2751 20.224C10.2677 20.3011 10.2613 20.3742 10.2585 20.4519C10.2521 20.5268 10.2457 20.5998 10.2438 20.677C10.2379 20.7501 10.2291 20.8259 10.2273 20.8999C10.2241 20.9316 10.2222 20.9637 10.2204 20.9954C10.2108 21.0703 10.208 21.1471 10.2029 21.2224C10.1938 21.2982 10.1905 21.3754 10.1873 21.4512C10.1777 21.5243 10.1726 21.6006 10.1694 21.6746C10.1611 21.7504 10.1556 21.8253 10.1519 21.9002C10.1423 21.9741 10.1354 22.0495 10.1336 22.1235C10.1258 22.1975 10.1166 22.2696 10.1133 22.3454C10.1088 22.3881 10.1051 22.4295 10.1019 22.4704C10.0918 22.5453 10.0872 22.6206 10.0835 22.6965C10.0743 22.7704 10.0679 22.8444 10.0633 22.9184C10.0536 22.9947 10.0476 23.0677 10.0435 23.1403C10.0339 23.2148 10.026 23.2878 10.0219 23.3618C10.0123 23.4349 10.0035 23.5065 9.99939 23.5801C9.9925 23.6292 9.98699 23.6807 9.98193 23.7303C9.97182 23.8043 9.96585 23.8764 9.95988 23.9504C9.94885 24.0244 9.94242 24.0947 9.93599 24.1691C9.92542 24.2413 9.91761 24.3139 9.91071 24.3878C9.9006 24.4586 9.89095 24.5312 9.88498 24.6033C9.87441 24.6741 9.86384 24.7467 9.85649 24.817C9.84868 24.8726 9.84317 24.9282 9.83811 24.9815C9.8349 24.9994 9.8303 25.0127 9.828 25.032C9.81973 25.0858 9.81698 25.1409 9.81146 25.1965C9.80549 25.231 9.79676 25.2632 9.79171 25.2985C9.78757 25.3353 9.78665 25.3716 9.78298 25.4079C9.77333 25.4607 9.76322 25.5136 9.75632 25.5669C9.75357 25.5853 9.75449 25.6018 9.75311 25.6206C9.74162 25.6776 9.73105 25.7401 9.72508 25.8021C9.7113 25.8702 9.70348 25.9418 9.69567 26.0126C9.68281 26.0806 9.67316 26.1486 9.66489 26.2212C9.6511 26.2869 9.63961 26.3554 9.63134 26.4243C9.61848 26.4932 9.60423 26.5598 9.59596 26.6278C9.58264 26.6926 9.57253 26.7639 9.56472 26.8319C9.55001 26.8966 9.53899 26.9674 9.53026 27.0331C9.51463 27.0997 9.50269 27.1641 9.49304 27.2325C9.4765 27.3028 9.46225 27.375 9.45214 27.448C9.43744 27.5128 9.42733 27.5781 9.41676 27.6456C9.40206 27.7113 9.38919 27.7766 9.37954 27.8427C9.363 27.9048 9.34922 27.9686 9.33865 28.0343C9.31935 28.1097 9.30511 28.1855 9.2927 28.2632C9.27708 28.3234 9.26513 28.3881 9.25318 28.452C9.23664 28.5154 9.2224 28.577 9.20999 28.6404C9.19024 28.7144 9.17231 28.7893 9.15761 28.8665C9.14153 28.9299 9.12774 28.9924 9.1158 29.0581C9.09742 29.1187 9.08271 29.1803 9.07123 29.2423C9.04963 29.3126 9.03033 29.3843 9.01701 29.4592C8.99633 29.524 8.98163 29.5911 8.96692 29.6586C8.949 29.717 8.93246 29.7772 8.9196 29.8388C8.89708 29.9058 8.87732 29.9784 8.86032 30.051C8.83964 30.1167 8.82264 30.1829 8.80702 30.2514C8.78818 30.3084 8.77072 30.369 8.75648 30.4287C8.73304 30.4967 8.71191 30.5684 8.69353 30.6406C8.67101 30.7054 8.65217 30.7711 8.63471 30.8386C8.61495 30.8974 8.59657 30.9562 8.58049 31.0132C8.55476 31.084 8.53179 31.1529 8.51249 31.2255C8.48951 31.2903 8.46884 31.3546 8.44954 31.4231C8.4284 31.481 8.41002 31.5416 8.3921 31.5991C8.36499 31.6675 8.3411 31.7351 8.32042 31.804C8.29515 31.8697 8.27355 31.9368 8.25334 32.0043C8.23036 32.0631 8.20969 32.122 8.19085 32.1817C8.16374 32.2465 8.13984 32.3122 8.11963 32.3779C8.09114 32.4464 8.0677 32.5157 8.04519 32.5847C8.02038 32.6444 7.99786 32.7041 7.9781 32.7657C7.95283 32.8236 7.9271 32.8861 7.90642 32.9458C7.87472 33.0189 7.84853 33.0887 7.82372 33.1636C7.79706 33.2234 7.77363 33.2849 7.75249 33.347C7.72493 33.4058 7.69919 33.4678 7.6776 33.5335C7.64819 33.5955 7.61924 33.6603 7.59489 33.7274C7.56502 33.7908 7.54067 33.8561 7.51678 33.9218C7.48737 33.9833 7.46256 34.0463 7.43958 34.1083C7.41018 34.1727 7.38169 34.2342 7.35733 34.2986C7.32609 34.361 7.29806 34.4245 7.27279 34.4883C7.24292 34.5517 7.21765 34.6161 7.19238 34.6804C7.16113 34.7424 7.13494 34.8063 7.10783 34.872C7.07659 34.9345 7.04672 34.9979 7.02007 35.0618C6.99204 35.1183 6.96401 35.178 6.94012 35.2336C6.94012 35.235 6.94012 35.235 6.93966 35.235C6.9369 35.2419 6.93323 35.2502 6.93047 35.257C6.90244 35.3126 6.87717 35.3696 6.85327 35.4271C6.82065 35.49 6.79262 35.5553 6.76367 35.6214C6.73105 35.6862 6.69981 35.7496 6.6727 35.8153C6.63915 35.8815 6.60607 35.9458 6.57804 36.0124C6.55461 36.0612 6.52979 36.1099 6.50728 36.1604C6.50452 36.1655 6.50177 36.1691 6.49947 36.1746C6.46593 36.2325 6.44111 36.295 6.41308 36.3561C6.40298 36.375 6.39103 36.3943 6.38092 36.4127C6.35749 36.4591 6.33957 36.5069 6.31797 36.5505C6.29959 36.584 6.27937 36.6176 6.26191 36.6516C6.24721 36.6833 6.2348 36.7159 6.22148 36.7467C6.19529 36.7959 6.16818 36.84 6.14382 36.891C6.13601 36.9089 6.1305 36.9273 6.12269 36.9438C6.0896 37.0063 6.0556 37.0661 6.0262 37.129C6.02482 37.1359 6.0239 37.1387 6.02206 37.1446C5.99955 37.1832 5.97887 37.2264 5.95911 37.2687C5.92281 37.3307 5.89202 37.3969 5.86032 37.4653C5.82402 37.5288 5.79048 37.5958 5.75785 37.6625C5.72155 37.7282 5.68709 37.7934 5.65539 37.8619C5.61909 37.9267 5.58371 37.9928 5.55108 38.0622C5.51478 38.127 5.47894 38.1904 5.4454 38.2598C5.42702 38.2933 5.40818 38.3287 5.39118 38.3627C5.35396 38.4257 5.32134 38.4946 5.28734 38.5594C5.25012 38.6251 5.21612 38.6913 5.18211 38.7588C5.1449 38.8241 5.10952 38.8893 5.07643 38.9568C5.03783 39.0226 5.00245 39.0896 4.96891 39.1563C4.93077 39.2229 4.89402 39.2872 4.86047 39.3566C4.82279 39.4232 4.78374 39.4885 4.7502 39.556C4.73641 39.5822 4.72171 39.607 4.70884 39.6318C4.70195 39.6452 4.69643 39.6544 4.68908 39.6668C4.67346 39.6962 4.65462 39.7265 4.63992 39.7587C4.62751 39.7812 4.61511 39.8041 4.60132 39.828C4.56272 39.8928 4.52826 39.9608 4.49288 40.0252C4.45474 40.09 4.41982 40.1589 4.38444 40.2255C4.34584 40.2903 4.30955 40.3546 4.27416 40.424C4.23465 40.4897 4.19835 40.5531 4.16297 40.6225C4.12345 40.6882 4.08623 40.7534 4.05131 40.821C4.01226 40.8872 3.97366 40.9515 3.93828 41.0213C3.90014 41.088 3.86108 41.1527 3.8257 41.2217C3.78711 41.2888 3.74667 41.3531 3.71221 41.4234C3.70578 41.4335 3.69934 41.4454 3.69383 41.4551C3.65294 41.5185 3.61801 41.5865 3.5808 41.6531C3.5422 41.7161 3.50682 41.7832 3.46914 41.8498C3.42871 41.9132 3.39241 41.9794 3.35703 42.0478C3.31567 42.1135 3.28029 42.1769 3.24261 42.2445C3.20264 42.3116 3.16496 42.3773 3.12774 42.4448C3.08914 42.5087 3.05055 42.5744 3.01425 42.6433C2.97473 42.7086 2.93475 42.7747 2.898 42.8427C2.85848 42.9089 2.81896 42.9732 2.78266 43.0408C2.74315 43.1056 2.70363 43.1717 2.66779 43.2411C2.62874 43.3077 2.58738 43.3721 2.55154 43.4415C2.5134 43.5053 2.47435 43.5651 2.43943 43.6299C2.40083 43.6887 2.36821 43.7544 2.33191 43.8178C2.29009 43.8812 2.25517 43.9474 2.21611 44.0131C2.17568 44.0765 2.13892 44.1436 2.10124 44.2106C2.06081 44.2741 2.02405 44.3411 1.98591 44.4068C1.94548 44.4716 1.90734 44.5364 1.86874 44.6044C1.82831 44.6706 1.79155 44.7349 1.75203 44.8025C1.71251 44.8673 1.673 44.9316 1.63532 44.9991C1.5958 45.0644 1.55721 45.1305 1.51815 45.1962C1.47863 45.261 1.4382 45.3263 1.40144 45.3938C1.36101 45.4595 1.32103 45.5243 1.28335 45.5919C1.24384 45.659 1.2034 45.7219 1.16664 45.7904C1.12713 45.8552 1.08531 45.9195 1.04855 45.9889C1.00904 46.0546 0.966764 46.1175 0.930924 46.1864C0.89003 46.2526 0.848676 46.3169 0.810998 46.3863C0.298208 47.2506 0 48.2569 0 49.3358C0 52.543 2.60117 55.1433 5.80794 55.1433C9.01563 55.1433 11.6177 52.5426 11.6177 49.3358C11.6177 49.3243 11.6145 49.3114 11.6145 49.299C11.6173 49.2503 11.6241 49.2007 11.6241 49.1492C11.6241 49.1327 11.6223 49.1194 11.6214 49.1056C11.6232 49.0569 11.6301 49.0105 11.6301 48.9622C11.631 48.9438 11.6283 48.9273 11.6283 48.9085C11.6301 48.863 11.6361 48.8198 11.6361 48.7743C11.637 48.7554 11.6347 48.7343 11.6347 48.7136C11.6361 48.6732 11.6425 48.63 11.6444 48.5877C11.6444 48.5657 11.6411 48.5404 11.6411 48.5197C11.6425 48.4784 11.6494 48.4421 11.6503 48.4026C11.6513 48.3741 11.648 48.3488 11.6485 48.3235C11.6503 48.2868 11.6554 48.2495 11.6568 48.216C11.6577 48.1861 11.6549 48.1581 11.6549 48.1273C11.6568 48.0938 11.6618 48.063 11.6637 48.0281C11.6646 47.9959 11.6614 47.9637 11.6618 47.932C11.6637 47.9026 11.6687 47.8723 11.6696 47.842C11.6715 47.8071 11.6683 47.7717 11.6687 47.7363C11.6706 47.7083 11.6761 47.6835 11.6779 47.6554C11.6793 47.6159 11.6761 47.5773 11.677 47.5396C11.6788 47.5157 11.682 47.4932 11.6839 47.4689C11.6857 47.428 11.683 47.3857 11.6839 47.343C11.6848 47.3237 11.6889 47.3035 11.6899 47.2832C11.6926 47.2378 11.6899 47.1946 11.6908 47.1486C11.6917 47.1302 11.6954 47.1151 11.6963 47.0985C11.7004 47.0484 11.6963 47.0011 11.6981 46.9506C11.699 46.9372 11.7032 46.9235 11.7041 46.9101C11.7073 46.8564 11.7041 46.8058 11.7064 46.7548C11.7073 46.7438 11.7092 46.7346 11.7096 46.7236C11.7142 46.668 11.7119 46.6138 11.7133 46.5591C11.7142 46.5494 11.7156 46.543 11.7156 46.537C11.7206 46.4773 11.7183 46.4212 11.7206 46.361C11.7206 46.3578 11.7216 46.3537 11.722 46.3519C11.7285 46.2811 11.7262 46.2131 11.7294 46.1442C11.7395 46.0206 11.7422 45.8988 11.7436 45.7766C11.75 45.6782 11.7583 45.5772 11.7583 45.4784C11.7606 45.415 11.767 45.3497 11.767 45.2858C11.7703 45.2224 11.7753 45.1581 11.7762 45.0938C11.7785 45.029 11.7845 44.9656 11.7854 44.8999C11.7886 44.8365 11.7937 44.7712 11.7946 44.7069C11.7978 44.6412 11.8024 44.5787 11.8043 44.5134C11.8075 44.4496 11.8121 44.3843 11.8135 44.3195C11.8181 44.2543 11.8217 44.1909 11.8231 44.1233C11.8282 44.0599 11.8309 43.9956 11.8341 43.9317C11.8396 43.8674 11.8424 43.8003 11.8447 43.7346C11.8498 43.6698 11.8521 43.6055 11.8544 43.5412C11.8612 43.4755 11.8626 43.4102 11.8654 43.3445C11.8723 43.2793 11.8732 43.2131 11.8773 43.1474C11.8833 43.0854 11.8851 43.0206 11.8884 42.9549C11.8971 42.8653 11.8994 42.7789 11.904 42.6934C11.9155 42.579 11.9247 42.4664 11.9256 42.3538C11.9306 42.29 11.9375 42.228 11.9384 42.1641C11.944 42.0998 11.9495 42.0363 11.9513 41.9706C11.9564 41.9072 11.9623 41.8429 11.9642 41.7781C11.9701 41.7147 11.9752 41.6495 11.9775 41.586C11.9839 41.5213 11.9894 41.4569 11.9922 41.3935C11.9986 41.3278 12.0028 41.2649 12.006 41.1982C12.0129 41.1353 12.0184 41.071 12.0207 41.0066C12.0285 40.9409 12.0317 40.8775 12.0363 40.8113C12.0441 40.7475 12.0473 40.6841 12.0528 40.6174C12.0616 40.5522 12.0639 40.4869 12.068 40.4231C12.0827 40.322 12.0896 40.2195 12.0951 40.1171C12.1025 40.0394 12.1121 39.9604 12.1153 39.8846C12.1213 39.8207 12.1291 39.7554 12.1328 39.6911C12.1397 39.6272 12.1466 39.5652 12.1503 39.4995C12.1581 39.4347 12.1659 39.3718 12.1691 39.3079C12.1783 39.2436 12.1838 39.1802 12.1884 39.1145C12.1971 39.051 12.2031 38.9867 12.2063 38.9228C12.216 38.8567 12.2229 38.7951 12.2279 38.7285C12.2366 38.6651 12.2426 38.5998 12.2491 38.536C12.2633 38.4459 12.272 38.3558 12.2789 38.2667C12.2899 38.1886 12.2991 38.1109 12.306 38.0337C12.3143 37.9694 12.323 37.906 12.3272 37.8426C12.3364 37.7769 12.3455 37.7144 12.3511 37.6501C12.3607 37.5862 12.3685 37.5232 12.3745 37.4603C12.3846 37.396 12.3924 37.3298 12.3984 37.2659C12.4103 37.2034 12.4181 37.141 12.4241 37.0752C12.437 37.01 12.443 36.9484 12.4521 36.8809C12.4701 36.7867 12.4848 36.6897 12.4926 36.5965C12.5027 36.5326 12.5137 36.4687 12.5201 36.4049C12.5312 36.3424 12.5427 36.2799 12.5491 36.2146C12.561 36.1508 12.5716 36.0887 12.5785 36.0239C12.5923 35.961 12.6015 35.8971 12.6093 35.8332C12.6235 35.7689 12.6332 35.7073 12.6419 35.6412C12.6594 35.5667 12.6713 35.4891 12.6819 35.4128C12.6994 35.337 12.7127 35.2598 12.7223 35.1812C12.7361 35.1183 12.7481 35.0567 12.7568 34.9924C12.7715 34.929 12.7834 34.8665 12.7931 34.8022C12.8078 34.7392 12.8197 34.6753 12.8294 34.6124C12.8441 34.5499 12.8565 34.4874 12.868 34.4222C12.8877 34.345 12.9043 34.2701 12.9162 34.1901C12.9341 34.1198 12.9507 34.0486 12.9617 33.9765C12.9783 33.9135 12.992 33.8506 13.0031 33.7881C13.0205 33.7224 13.0339 33.6622 13.0463 33.5983C13.0628 33.5358 13.078 33.4738 13.0899 33.4108C13.1083 33.3474 13.123 33.2858 13.1368 33.2201C13.1616 33.1393 13.1827 33.0575 13.1979 32.9711C13.2163 32.9104 13.2324 32.8466 13.2457 32.7864C13.2645 32.7248 13.2811 32.66 13.2958 32.5989C13.3141 32.5355 13.3311 32.4735 13.3468 32.4114C13.3665 32.3508 13.3831 32.2869 13.3992 32.2249C13.4258 32.1472 13.4479 32.0664 13.4662 31.9882C13.4878 31.9253 13.5076 31.8596 13.5223 31.7939C13.5444 31.7318 13.5632 31.6694 13.5788 31.6092C13.5995 31.5467 13.6192 31.4846 13.6358 31.4244C13.6583 31.3647 13.6762 31.3013 13.6941 31.2411C13.7171 31.1772 13.7378 31.1129 13.7557 31.0463C13.786 30.9705 13.8122 30.8914 13.8324 30.8124C13.8554 30.7518 13.8761 30.6893 13.8949 30.6291C13.9184 30.5684 13.9391 30.5087 13.9574 30.4471C13.9813 30.3865 14.0029 30.3244 14.0227 30.2633C14.0479 30.2054 14.0677 30.1439 14.0884 30.0841C14.1219 30.0014 14.1532 29.9224 14.1789 29.836C14.2028 29.7781 14.2267 29.7184 14.246 29.655C14.2708 29.598 14.2952 29.5364 14.3158 29.4748C14.3416 29.416 14.3636 29.3563 14.3857 29.2947C14.4123 29.2377 14.4344 29.1771 14.4574 29.1174C14.484 29.0576 14.5079 28.997 14.5295 28.9363C14.5676 28.8554 14.6026 28.7714 14.6324 28.6854C14.6586 28.6285 14.6843 28.5678 14.7055 28.5062C14.7317 28.4483 14.7583 28.3895 14.7808 28.3303C14.8084 28.2724 14.8341 28.2108 14.8567 28.152C14.8851 28.0941 14.91 28.0353 14.9334 27.9755C14.9614 27.9181 14.9867 27.8593 15.0101 27.7986C15.0455 27.7297 15.0767 27.6571 15.1066 27.5831C15.1429 27.511 15.1774 27.437 15.2072 27.3617C15.2357 27.3033 15.2624 27.2445 15.2877 27.1847C15.3161 27.1278 15.3428 27.0703 15.3685 27.0097C15.397 26.9536 15.4237 26.8957 15.4494 26.8365C15.4783 26.7776 15.5064 26.7188 15.5312 26.6618C15.5615 26.6053 15.5877 26.5474 15.6139 26.4891C15.6442 26.433 15.6699 26.3751 15.6966 26.3168C15.7471 26.2272 15.7922 26.1321 15.8326 26.036C15.862 25.9809 15.891 25.9221 15.9181 25.8614C15.9475 25.8058 15.9773 25.747 16.0045 25.6896C16.0343 25.6335 16.0637 25.5752 16.0913 25.5173C16.1212 25.4612 16.1497 25.4019 16.1772 25.344C16.2085 25.288 16.237 25.2296 16.265 25.1717C16.2962 25.118 16.3238 25.0582 16.3518 25.0017C16.3831 24.9466 16.4102 24.8878 16.4387 24.8322C16.475 24.7674 16.5076 24.7026 16.5398 24.635C16.5921 24.5464 16.6418 24.4494 16.6868 24.3529C16.718 24.2955 16.7488 24.2403 16.7764 24.1797C16.8081 24.1241 16.8398 24.0671 16.8669 24.0078C16.8977 23.9527 16.9294 23.8971 16.957 23.8374C16.9891 23.7809 17.0199 23.7266 17.0484 23.6669C17.0801 23.6131 17.1104 23.5557 17.1399 23.4969C17.1716 23.4408 17.2019 23.3843 17.2308 23.3264C17.263 23.2717 17.2915 23.2152 17.3213 23.1573C17.354 23.1036 17.3838 23.0466 17.4137 22.991C17.4463 22.9363 17.4757 22.8784 17.5047 22.8219C17.5437 22.758 17.5773 22.6909 17.6122 22.6243C17.6738 22.5232 17.7321 22.4194 17.7845 22.3114C17.8167 22.2558 17.8511 22.2039 17.8801 22.146C17.8815 22.14 17.8824 22.1363 17.8856 22.1317C17.9132 22.083 17.9426 22.0385 17.9678 21.987C17.972 21.9806 17.9752 21.9686 17.9807 21.9604C18.0046 21.9162 18.034 21.8758 18.0574 21.8317C18.0648 21.8184 18.0689 21.8037 18.0758 21.7913C18.0974 21.7508 18.1241 21.7136 18.1457 21.675C18.1553 21.6576 18.1622 21.6383 18.1719 21.6203C18.1925 21.5854 18.2146 21.5533 18.2348 21.516C18.2468 21.4958 18.255 21.4724 18.2665 21.4503C18.2849 21.42 18.306 21.3915 18.324 21.3603C18.3377 21.3359 18.3469 21.3074 18.3616 21.2822C18.3782 21.256 18.3961 21.2284 18.4117 21.2031C18.4292 21.1733 18.4411 21.1434 18.4572 21.1126C18.471 21.0905 18.4875 21.0694 18.5004 21.0464C18.5202 21.0129 18.5349 20.978 18.5528 20.944C18.5643 20.9256 18.5776 20.9086 18.5891 20.8902C18.6107 20.8525 18.6277 20.8135 18.6484 20.7776C18.658 20.7606 18.669 20.7464 18.6787 20.7321C18.7035 20.6917 18.7214 20.6485 18.7453 20.609C18.7522 20.5957 18.7614 20.5856 18.7683 20.5727C18.7949 20.5281 18.8156 20.4849 18.84 20.4408C18.8459 20.4321 18.8514 20.4243 18.8565 20.4165C18.8854 20.3701 18.9098 20.3214 18.9365 20.274C18.9387 20.2671 18.9429 20.2644 18.9461 20.2589C18.9778 20.2097 19.0031 20.1564 19.0325 20.1054C19.0334 20.1036 19.0343 20.1036 19.0352 20.1017C19.0812 20.0071 19.1285 19.9147 19.1786 19.8242Z" fill="url(#paint0_linear_1489_18013)"/>
  <path d="M40.681 44.1887C40.579 44.0472 40.4724 43.9112 40.358 43.777C40.2555 43.6373 40.1453 43.4995 40.0304 43.3662C39.9288 43.2274 39.8213 43.0914 39.7092 42.9609C39.6104 42.8213 39.5047 42.6894 39.3935 42.5584C39.2952 42.421 39.1923 42.2882 39.0825 42.1596C38.9864 42.0227 38.8853 41.8917 38.7778 41.7649C38.679 41.6211 38.572 41.4814 38.4585 41.3504C38.3532 41.1956 38.2407 41.0504 38.1185 40.9098C38.0169 40.7646 37.9098 40.6231 37.7945 40.4875C37.7026 40.3547 37.6034 40.2251 37.4991 40.1025C37.4104 39.9738 37.3139 39.8447 37.2123 39.7243C37.1135 39.5727 37.0024 39.4298 36.8861 39.2928C36.7859 39.1389 36.6757 38.9928 36.558 38.8531C36.4615 38.7079 36.3591 38.5664 36.246 38.4345C36.1633 38.3086 36.0733 38.1864 35.9782 38.0701C35.8803 37.9148 35.77 37.7706 35.6542 37.6313C35.5582 37.4774 35.453 37.3331 35.3376 37.1934C35.2512 37.0588 35.1603 36.9269 35.0601 36.8065C34.9682 36.6554 34.8648 36.512 34.7555 36.3801C34.664 36.2262 34.5629 36.0819 34.4513 35.9464C34.3663 35.803 34.2748 35.6688 34.1742 35.5434C34.0855 35.3904 33.9853 35.2475 33.8769 35.1115C33.791 34.9603 33.6977 34.817 33.5925 34.6823C33.5093 34.5362 33.4156 34.3951 33.3131 34.2665C33.2943 34.2284 33.2759 34.1898 33.2538 34.1553C33.1891 34.0455 33.1178 33.9435 33.0434 33.8442C32.9974 33.7592 32.9506 33.6751 32.8973 33.592C32.8564 33.5304 32.8118 33.4725 32.7668 33.4128C32.6997 33.2813 32.6266 33.1531 32.5398 33.0328C32.5292 33.0167 32.5173 33.0056 32.5076 32.9923C32.4337 32.8393 32.3436 32.6941 32.2416 32.5549C32.1694 32.4019 32.0831 32.2526 31.9829 32.111C31.9158 31.9667 31.8359 31.8271 31.7426 31.6915C31.6727 31.5298 31.5873 31.3745 31.4844 31.2256C31.4205 31.074 31.3414 30.9278 31.2505 30.7882C31.1889 30.6361 31.1135 30.4909 31.0244 30.3493C30.9642 30.1922 30.8898 30.0424 30.8006 29.8972C30.7423 29.7373 30.6678 29.5815 30.5782 29.4354C30.5249 29.2783 30.4546 29.1285 30.3719 28.9851C30.32 28.8266 30.2548 28.6754 30.1739 28.5312C30.1256 28.3726 30.0622 28.2215 29.9841 28.0753C29.9354 27.9081 29.8715 27.745 29.7925 27.592C29.7466 27.4311 29.6882 27.2758 29.6142 27.1274C29.5729 26.9666 29.5159 26.8113 29.447 26.6633C29.4075 26.5007 29.3532 26.344 29.2852 26.1933C29.2466 26.0191 29.1906 25.8519 29.1194 25.6906C29.0831 25.5289 29.0348 25.3745 28.9728 25.227C28.9383 25.0579 28.8873 24.8929 28.8257 24.7372C28.7922 24.5653 28.7463 24.3999 28.6842 24.2409C28.6525 24.0769 28.6075 23.9165 28.5496 23.763C28.5188 23.5916 28.4765 23.4244 28.4196 23.2636C28.4173 23.247 28.4163 23.2319 28.4127 23.2126C28.3833 23.0628 28.3414 22.9208 28.2937 22.7797C28.2822 22.7117 28.273 22.6433 28.2574 22.5748C28.2348 22.4788 28.2064 22.3873 28.1774 22.2959C28.159 22.1755 28.1342 22.0565 28.1011 21.9375C28.0883 21.8883 28.0703 21.8442 28.0547 21.796C28.0295 21.6315 27.9973 21.4647 27.9454 21.3002C27.9444 21.2951 27.9422 21.2887 27.9399 21.2832C27.916 21.126 27.8797 20.9703 27.8342 20.814C27.8098 20.639 27.7721 20.4657 27.7221 20.2944C27.6991 20.1253 27.6651 19.9553 27.6168 19.7866C27.5952 19.6299 27.5626 19.4737 27.5199 19.3175C27.4983 19.1392 27.4615 18.9628 27.4147 18.7882C27.3908 18.608 27.3595 18.4284 27.3113 18.2478C27.2906 18.1017 27.2626 17.9551 27.2263 17.8081C27.2065 17.6358 27.173 17.4644 27.1312 17.2944C27.11 17.1133 27.0769 16.9337 27.0324 16.7526C27.0108 16.5753 26.9804 16.3979 26.9368 16.2205C26.917 16.0634 26.889 15.9067 26.8527 15.7518C26.8339 15.5906 26.8049 15.4307 26.7705 15.2712C26.7507 15.0962 26.7204 14.9239 26.6818 14.7506C26.662 14.5687 26.6303 14.3858 26.5903 14.2038C26.5692 14.0306 26.5398 13.8569 26.5026 13.6837C26.4819 13.5197 26.4539 13.3547 26.4185 13.1907C26.3996 13.0252 26.3716 12.8575 26.3358 12.6912C26.3174 12.5221 26.2898 12.3526 26.2558 12.1848C26.2365 12.0139 26.2108 11.8434 26.1763 11.6753C26.157 11.502 26.1327 11.3288 26.0982 11.1583C26.0785 10.9833 26.0481 10.8128 26.0146 10.6396C25.9948 10.4696 25.9663 10.3 25.9333 10.1318C25.914 9.95999 25.8855 9.79044 25.8529 9.61951C25.8322 9.44629 25.8051 9.27398 25.7729 9.10259C25.7554 8.95279 25.7348 8.80346 25.7072 8.65367C25.6874 8.46344 25.659 8.27367 25.6236 8.08252C25.6047 7.90838 25.5772 7.73515 25.5464 7.56054C25.5266 7.3864 25.5004 7.21225 25.4683 7.0381C25.448 6.86166 25.4242 6.68568 25.3915 6.51245C25.2091 4.91802 24.5084 3.37598 23.2862 2.1542C20.4143 -0.718066 15.757 -0.718066 12.8847 2.1542C10.142 4.89643 10.0207 9.26111 12.5134 12.1495C12.6196 12.291 12.7308 12.4302 12.847 12.5639C12.9532 12.7059 13.0634 12.8465 13.182 12.9802C13.284 13.1181 13.3901 13.2527 13.5041 13.3836C13.6056 13.5197 13.7132 13.6543 13.8262 13.7839C13.9149 13.9033 14.0118 14.0159 14.1083 14.1312C14.2067 14.2668 14.3151 14.3996 14.4254 14.5301C14.5366 14.6854 14.6588 14.837 14.7851 14.985C14.8927 15.1357 15.0071 15.2841 15.1311 15.4265C15.138 15.4348 15.1477 15.4426 15.1546 15.4509C15.2382 15.5635 15.32 15.6779 15.4119 15.7854C15.4284 15.8074 15.4491 15.8235 15.4652 15.841C15.5392 15.9435 15.6109 16.0459 15.6917 16.1461C15.7193 16.1773 15.7487 16.2058 15.7767 16.238C15.8424 16.3271 15.9022 16.4181 15.9729 16.5059C16.0101 16.5486 16.0506 16.589 16.0883 16.6327C16.1425 16.7085 16.1935 16.7889 16.2537 16.8638C16.3005 16.9217 16.3515 16.9745 16.3998 17.0311C16.4457 17.0949 16.4862 17.1597 16.5335 17.2245C16.5905 17.2966 16.6539 17.3642 16.7127 17.4322C16.7481 17.4814 16.778 17.5337 16.8152 17.5843C16.8818 17.6716 16.9549 17.7529 17.0252 17.8356C17.0491 17.871 17.0697 17.9087 17.0959 17.9413C17.1717 18.047 17.2563 18.1439 17.3385 18.2414C17.3523 18.2607 17.3629 18.2818 17.3767 18.3002C17.4626 18.4233 17.5559 18.5377 17.6505 18.6466C17.6524 18.6544 17.6537 18.6577 17.6565 18.6609C17.7622 18.8148 17.8761 18.9595 17.9951 19.0983C18.0912 19.2389 18.195 19.3717 18.303 19.4976C18.4004 19.6419 18.5029 19.7756 18.6113 19.9047C18.7087 20.0481 18.8117 20.1836 18.9196 20.3137C19.0161 20.4579 19.1177 20.5967 19.227 20.7254C19.3217 20.8715 19.4241 21.0112 19.5335 21.1412C19.6259 21.2846 19.7265 21.421 19.8331 21.5511C19.9264 21.6981 20.0293 21.8336 20.1377 21.9655C20.231 22.1107 20.3339 22.2504 20.4428 22.3814C20.5343 22.5284 20.6349 22.6717 20.7452 22.8036C20.8366 22.9534 20.9349 23.0982 21.0448 23.2309C21.1293 23.3688 21.2212 23.502 21.3205 23.6261C21.4091 23.7754 21.5093 23.9137 21.6159 24.0484C21.7046 24.2028 21.8034 24.3457 21.9118 24.4821C21.9973 24.6315 22.0901 24.7748 22.1962 24.9067C22.2748 25.0496 22.3635 25.1819 22.4609 25.3097C22.5436 25.4668 22.6419 25.6102 22.7476 25.7485C22.8285 25.9033 22.9209 26.0517 23.0256 26.1891C23.1001 26.3334 23.1841 26.4699 23.2797 26.5995C23.3565 26.7561 23.4456 26.9041 23.5476 27.0401C23.6216 27.1968 23.7075 27.3452 23.8063 27.4835C23.8743 27.631 23.9542 27.7702 24.0448 27.9012C24.116 28.0648 24.2033 28.2205 24.3025 28.369C24.3669 28.5178 24.4431 28.6607 24.5327 28.7963C24.5962 28.9543 24.6733 29.1023 24.7634 29.2457C24.8241 29.4056 24.9003 29.5549 24.9899 29.701C25.0451 29.8531 25.1158 29.9978 25.1985 30.1398C25.2537 30.3029 25.3286 30.4619 25.4163 30.614C25.4673 30.7689 25.5308 30.915 25.6102 31.0583C25.6608 31.2256 25.7279 31.3887 25.8115 31.5426C25.857 31.6975 25.9167 31.8487 25.9907 31.992C26.0353 32.1547 26.0959 32.3164 26.1708 32.4694C26.2136 32.6312 26.2696 32.7888 26.3422 32.9409C26.3808 33.1003 26.4341 33.2547 26.5026 33.4054C26.5407 33.5759 26.5954 33.744 26.6671 33.9076C26.7024 34.062 26.7498 34.215 26.8113 34.3657C26.8458 34.533 26.8959 34.697 26.9607 34.8574C26.9933 35.0237 27.0388 35.1905 27.1017 35.3518C27.1316 35.5099 27.1734 35.6638 27.229 35.8154C27.258 35.9868 27.3048 36.1559 27.3641 36.3209C27.3935 36.4913 27.433 36.6623 27.4914 36.83C27.5185 36.9867 27.5562 37.1415 27.6063 37.2964C27.632 37.4627 27.6743 37.6295 27.7271 37.794C27.7528 37.9654 27.7914 38.1354 27.8438 38.3049C27.8677 38.4749 27.9022 38.6445 27.9541 38.8136C27.9762 38.9707 28.0111 39.1256 28.0543 39.2836C28.0772 39.4514 28.1168 39.6232 28.1645 39.7918C28.1875 39.9628 28.2229 40.1323 28.2702 40.3014C28.2914 40.4687 28.3244 40.6382 28.369 40.8069C28.3915 40.975 28.4209 41.1432 28.4646 41.3118C28.4843 41.4662 28.511 41.6192 28.5482 41.7741C28.5528 41.7892 28.5583 41.8026 28.562 41.8163C28.5795 41.9464 28.5992 42.0801 28.6277 42.2097C28.6369 42.2501 28.6488 42.2855 28.659 42.3241C28.6737 42.4316 28.6851 42.5391 28.7072 42.6453C28.7191 42.7091 28.7389 42.7702 28.7541 42.8332C28.7633 42.915 28.7715 42.9982 28.7858 43.0822C28.8009 43.1695 28.8244 43.2523 28.8441 43.3373C28.8515 43.397 28.8542 43.4586 28.8639 43.5192C28.8818 43.6281 28.9075 43.7329 28.9328 43.8395C28.9369 43.8781 28.9379 43.9158 28.9429 43.9543C28.9618 44.0848 28.9898 44.2121 29.0183 44.3389C29.0201 44.3555 29.0192 44.3739 29.0215 44.3918C29.0431 44.5623 29.0743 44.7323 29.112 44.8991C29.1327 45.0686 29.1621 45.2386 29.1989 45.4036C29.2204 45.575 29.2485 45.745 29.2848 45.9099C29.3055 46.0799 29.333 46.2495 29.3693 46.4131C29.3886 46.5812 29.4162 46.749 29.4516 46.9158C29.4713 47.0848 29.498 47.2512 29.5315 47.4157C29.5504 47.5834 29.5775 47.7502 29.611 47.9133C29.628 48.0723 29.6528 48.229 29.6832 48.3824C29.702 48.5731 29.7305 48.7578 29.7654 48.9416C30.1105 52.0855 32.7921 54.5175 36.0218 54.4843C39.4629 54.4505 42.2249 51.6324 42.1904 48.1927C42.1748 46.6594 41.6073 45.2634 40.681 44.1887Z" fill="url(#paint1_linear_1489_18013)"/>
  <path d="M56.7536 26.5244C56.8148 26.4752 56.875 26.4261 56.9347 26.3769C56.9958 26.3273 57.0574 26.2781 57.1166 26.228C57.1778 26.1775 57.2389 26.1288 57.2995 26.0792C57.3597 26.0314 57.4213 25.9817 57.4815 25.9303C57.544 25.8834 57.6055 25.8338 57.6648 25.7828C57.7268 25.7322 57.7893 25.684 57.85 25.633C57.9102 25.5829 57.9731 25.5356 58.0329 25.4837C58.0958 25.435 58.1583 25.3858 58.2185 25.3348C58.23 25.3251 58.2415 25.3173 58.2516 25.3077C58.2902 25.2783 58.3269 25.2461 58.3646 25.2162C58.3779 25.2061 58.3913 25.196 58.4051 25.185C58.4147 25.1758 58.4239 25.1694 58.4331 25.1597C58.4956 25.1133 58.5567 25.0646 58.6169 25.0145C58.6784 24.9667 58.7396 24.9153 58.7997 24.8657C58.8618 24.8179 58.9234 24.7701 58.984 24.7186C59.0456 24.6704 59.1071 24.6212 59.1678 24.5693C59.2285 24.522 59.2914 24.4732 59.3521 24.4232C59.4141 24.3745 59.4761 24.3253 59.5372 24.2734C59.8221 24.0514 60.0969 23.8125 60.3593 23.5497C64.0025 19.9312 64.0232 14.0438 60.4024 10.4009C56.7817 6.75904 50.8938 6.7379 47.25 10.3587C45.651 11.948 44.75 13.9739 44.5469 16.055C44.54 16.122 44.5294 16.191 44.5239 16.2585C44.5161 16.3265 44.5064 16.3936 44.5009 16.4616C44.4917 16.5287 44.4825 16.5981 44.4756 16.667C44.4674 16.7336 44.4586 16.8016 44.4527 16.8682C44.4439 16.939 44.4348 17.007 44.4279 17.0723C44.4187 17.1412 44.4104 17.2101 44.4044 17.279C44.3943 17.3457 44.386 17.415 44.3796 17.4835C44.369 17.5501 44.3622 17.6191 44.3543 17.6884C44.3442 17.7564 44.3373 17.8258 44.3295 17.8929C44.3194 17.96 44.3121 18.0289 44.3047 18.0978C44.2941 18.1668 44.2873 18.2348 44.2794 18.3037C44.2693 18.3726 44.262 18.4415 44.2537 18.5095C44.2372 18.6198 44.2243 18.7306 44.2133 18.8418C44.2013 18.9272 44.1898 19.0127 44.1807 19.0995C44.1719 19.1666 44.1623 19.2332 44.1554 19.3017C44.1457 19.3688 44.137 19.4345 44.1306 19.5034C44.12 19.5723 44.1122 19.6399 44.1039 19.7061C44.0943 19.7741 44.0855 19.8421 44.0786 19.911C44.0685 19.9776 44.0607 20.0465 44.052 20.1136C44.0419 20.1807 44.0341 20.2496 44.0249 20.3176C44.0148 20.3856 44.007 20.4523 43.9982 20.5203C43.9886 20.5906 43.9803 20.6581 43.9711 20.727C43.961 20.7941 43.9523 20.863 43.944 20.931C43.9334 21 43.9256 21.0675 43.916 21.1351C43.8976 21.2476 43.8824 21.3607 43.8714 21.4746C43.8613 21.5408 43.8517 21.6093 43.8438 21.6763C43.8337 21.7434 43.8241 21.8119 43.8154 21.8781C43.8048 21.947 43.7951 22.0141 43.7873 22.0811C43.7763 22.1478 43.7671 22.2167 43.7588 22.2829C43.7478 22.3509 43.7391 22.4193 43.7304 22.4878C43.7184 22.5549 43.7106 22.6224 43.7009 22.6913C43.689 22.7617 43.6798 22.8343 43.6702 22.905C43.6642 22.9454 43.6605 22.984 43.6541 23.0245C43.6532 23.0369 43.6513 23.0497 43.6495 23.0631C43.6385 23.1274 43.6311 23.1927 43.6219 23.2574C43.6104 23.3208 43.6035 23.3875 43.5934 23.4536C43.581 23.5175 43.575 23.5818 43.5645 23.6494C43.547 23.7376 43.5383 23.8254 43.5263 23.9145C43.5047 24.0321 43.4877 24.1516 43.4721 24.2706C43.4547 24.3735 43.4349 24.4742 43.4243 24.5757C43.4156 24.6391 43.4018 24.7012 43.394 24.765C43.3844 24.8284 43.3729 24.8909 43.3637 24.9534C43.3545 25.0164 43.3416 25.0793 43.3338 25.1413C43.3228 25.2057 43.3113 25.2677 43.303 25.3316C43.2906 25.3954 43.2805 25.4575 43.2718 25.5218C43.2603 25.5829 43.2488 25.6477 43.2401 25.7097C43.2272 25.7741 43.2185 25.8365 43.2075 25.9018C43.1955 25.9657 43.1859 26.0277 43.1748 26.0925C43.162 26.1554 43.1537 26.2175 43.1422 26.2818C43.1284 26.3457 43.1202 26.4091 43.1087 26.4743C43.0889 26.5621 43.077 26.6498 43.0623 26.7381C43.0388 26.8506 43.0163 26.9623 43.0002 27.0767C42.9864 27.1507 42.9681 27.2228 42.958 27.2968C42.946 27.3593 42.9318 27.4199 42.9235 27.4811C42.9097 27.5422 42.8964 27.6037 42.8863 27.6667C42.8734 27.7273 42.8592 27.7912 42.85 27.8532C42.8353 27.9148 42.8229 27.9759 42.8128 28.038C42.7971 28.0995 42.7856 28.1629 42.7746 28.2245C42.7599 28.287 42.7475 28.3495 42.7356 28.4111C42.7204 28.4736 42.7089 28.536 42.696 28.5985C42.6703 28.6969 42.6515 28.798 42.6326 28.8986C42.6106 28.9877 42.5876 29.0746 42.572 29.166C42.5582 29.2248 42.5421 29.2855 42.5306 29.347C42.5159 29.4068 42.5003 29.4693 42.4893 29.529C42.4723 29.5897 42.4585 29.6503 42.4452 29.71C42.4277 29.7716 42.4139 29.8323 42.4015 29.8925C42.3841 29.954 42.3693 30.017 42.3556 30.0772C42.3358 30.1406 42.3202 30.2067 42.3046 30.2752C42.2729 30.3735 42.2462 30.476 42.2237 30.5794C42.2049 30.6442 42.1851 30.7094 42.1704 30.7756C42.152 30.8326 42.1341 30.8932 42.1212 30.952C42.1019 31.0109 42.0849 31.0715 42.0693 31.1303C42.0495 31.191 42.0321 31.2498 42.016 31.3091C41.9953 31.367 41.9788 31.4276 41.9618 31.4892C41.9328 31.5714 41.9085 31.6528 41.8846 31.7378C41.8566 31.8136 41.8304 31.8917 41.8088 31.9716C41.789 32.0291 41.7674 32.0861 41.7513 32.1458C41.7284 32.2023 41.7086 32.2602 41.6898 32.3181C41.6686 32.3774 41.648 32.4334 41.6287 32.4932C41.6052 32.5497 41.5855 32.6085 41.5648 32.6664C41.5276 32.7523 41.4949 32.8396 41.4651 32.9329C41.4389 32.9945 41.4127 33.056 41.3897 33.1204C41.3658 33.1741 41.3419 33.2311 41.3199 33.2885C41.2951 33.3455 41.2721 33.402 41.2496 33.4581C41.2225 33.5118 41.1986 33.5693 41.1761 33.6244C41.1388 33.6979 41.1067 33.7742 41.0754 33.85C41.04 33.9185 41.0065 33.9879 40.9762 34.0591C40.9495 34.1129 40.922 34.1666 40.8981 34.2231C40.8696 34.2769 40.8429 34.3307 40.8172 34.3849C40.7873 34.4382 40.7611 34.4919 40.7345 34.5471C40.695 34.6142 40.6587 34.6845 40.6242 34.7566C40.5875 34.8205 40.5479 34.8834 40.5139 34.9523C40.5112 34.9588 40.5103 34.962 40.5075 34.9684C40.4854 35.0052 40.4602 35.0387 40.4404 35.0778C40.4317 35.0943 40.4262 35.1095 40.4179 35.126C40.4004 35.1522 40.3825 35.1784 40.3664 35.2037C40.3522 35.2308 40.3398 35.2574 40.326 35.2846C40.3159 35.3011 40.3039 35.3144 40.2934 35.3319C40.2709 35.3668 40.2529 35.404 40.2323 35.4399C40.2291 35.4468 40.2235 35.4518 40.2203 35.4569C40.1808 35.5157 40.1468 35.5754 40.1128 35.6351C40.065 35.705 40.0191 35.7739 39.9773 35.847C39.9428 35.8984 39.9083 35.9471 39.8771 36.0009C39.8408 36.0505 39.8072 36.0992 39.7751 36.1525C39.7379 36.2003 39.7043 36.2518 39.6712 36.3019C39.628 36.3538 39.5917 36.4112 39.5541 36.4664C39.4948 36.5422 39.4392 36.6162 39.3873 36.6952C39.3496 36.743 39.3124 36.7926 39.277 36.8441C39.2389 36.8905 39.2007 36.9373 39.1658 36.9874C39.1272 37.0348 39.0891 37.0816 39.0532 37.1322C39.0128 37.18 38.9765 37.2277 38.9397 37.2755C38.8823 37.3403 38.8285 37.4074 38.7761 37.4768C38.7238 37.5365 38.6695 37.5995 38.6208 37.6624C38.5804 37.7102 38.5381 37.7557 38.5 37.8049C38.4591 37.8522 38.4187 37.8954 38.3796 37.9445C38.3373 37.9909 38.2978 38.036 38.2574 38.0842C38.2151 38.1279 38.1747 38.1747 38.1352 38.2211C38.0782 38.2795 38.0258 38.3415 37.973 38.4036C37.9059 38.4716 37.8415 38.5391 37.7809 38.6103C37.7382 38.6577 37.6931 38.7009 37.6518 38.7482C37.609 38.7937 37.5649 38.8373 37.5245 38.8847C37.4804 38.9283 37.4377 38.9733 37.3954 39.0193C37.3513 39.0648 37.3076 39.108 37.2672 39.1521C37.2212 39.1957 37.1794 39.2417 37.1358 39.2858C37.0797 39.3386 37.0301 39.3933 36.9782 39.448C36.8973 39.5206 36.8201 39.5978 36.747 39.6768C36.6988 39.7241 36.6487 39.7692 36.6023 39.8202C36.5564 39.8647 36.51 39.9061 36.4672 39.953C36.4203 39.9957 36.3753 40.0389 36.3303 40.0839C36.2839 40.1294 36.2384 40.1698 36.1947 40.2149C36.1479 40.2581 36.1033 40.3013 36.0587 40.3444C36.0114 40.3867 35.9673 40.4304 35.9227 40.474C35.8754 40.5145 35.8313 40.5599 35.7867 40.6013C35.7187 40.6587 35.6576 40.7212 35.5946 40.7814C35.5083 40.8554 35.4242 40.9331 35.3433 41.013C35.2909 41.0608 35.2367 41.1063 35.188 41.1564C35.1402 41.2005 35.0906 41.2409 35.0451 41.2869C34.9973 41.3287 34.9486 41.3709 34.9022 41.4151C34.854 41.4573 34.8057 41.4996 34.7588 41.5419C34.7106 41.5851 34.6633 41.6278 34.6159 41.6705C34.5668 41.711 34.5208 41.7542 34.474 41.7974C34.4248 41.8378 34.3784 41.8824 34.3311 41.9242C34.2819 41.9646 34.2364 42.0092 34.1886 42.0487C34.1394 42.09 34.0949 42.1346 34.0466 42.1746C33.9947 42.2169 33.9488 42.2619 33.8996 42.306C33.8082 42.3781 33.7222 42.4572 33.6358 42.5362C33.5444 42.6139 33.4534 42.6869 33.3675 42.7692C33.3174 42.8142 33.2655 42.8528 33.2186 42.896C33.1685 42.9401 33.118 42.9824 33.0716 43.0246C33.0211 43.0678 32.971 43.1078 32.9223 43.1524C32.9163 43.1574 32.9089 43.162 32.9025 43.1675C32.8993 43.1689 32.8965 43.1735 32.8933 43.1749C32.8621 43.2011 32.8304 43.2264 32.8 43.2526C32.7449 43.2999 32.6898 43.3431 32.6374 43.3922C32.5841 43.4359 32.5317 43.4805 32.4793 43.5259C32.426 43.5705 32.3741 43.6142 32.3235 43.6587C32.2702 43.7015 32.2183 43.747 32.1659 43.7925C30.7264 44.9577 29.8037 46.7424 29.8037 48.7384C29.8037 52.2567 32.6558 55.1078 36.175 55.1078C39.4176 55.1078 42.0937 52.6859 42.4916 49.5521C42.5031 49.4768 42.5146 49.4019 42.5242 49.3279C42.5361 49.253 42.5472 49.18 42.5573 49.1051C42.5692 49.0311 42.5807 48.9576 42.5908 48.8836C42.6014 48.8165 42.6124 48.7499 42.6212 48.6823C42.6303 48.6226 42.6368 48.5601 42.6441 48.5004C42.6579 48.4172 42.6712 48.3368 42.6823 48.2522C42.697 48.17 42.7098 48.0896 42.7213 48.005C42.7337 47.9228 42.7498 47.8424 42.7595 47.7578C42.7728 47.677 42.7884 47.5966 42.799 47.5143C42.8118 47.4385 42.8279 47.3631 42.8366 47.2864C42.8532 47.2101 42.8601 47.1306 42.8739 47.0534C42.8904 46.9717 42.9024 46.8899 42.9143 46.8081C42.9318 46.7235 42.9437 46.6427 42.957 46.5572C42.9736 46.4782 42.9874 46.3959 42.9988 46.3137C43.0154 46.2328 43.0306 46.1519 43.0416 46.0692C43.0581 45.9874 43.0742 45.9084 43.0857 45.828C43.0871 45.8147 43.0889 45.8041 43.0917 45.7944C43.0967 45.7696 43.0999 45.7448 43.1064 45.7205C43.1133 45.6759 43.1234 45.6313 43.1284 45.5858C43.1316 45.5743 43.1349 45.5606 43.1372 45.5472C43.1546 45.4655 43.1679 45.3846 43.1817 45.3019C43.2001 45.2228 43.2153 45.1411 43.2277 45.0616C43.2461 44.9807 43.2612 44.8998 43.275 44.8203C43.2934 44.7404 43.3104 44.6613 43.3242 44.5823C43.3301 44.5543 43.3366 44.5267 43.3416 44.4968C43.3476 44.4707 43.354 44.4431 43.3591 44.416C43.3632 44.3935 43.3697 44.3682 43.3729 44.3448C43.3798 44.3158 43.3857 44.2859 43.3908 44.2561C43.4106 44.1784 43.4253 44.0976 43.4409 44.0176C43.4602 43.9404 43.4772 43.8623 43.4905 43.7846C43.5093 43.7047 43.5282 43.6298 43.5429 43.5508C43.5539 43.5103 43.5626 43.4699 43.5723 43.4262C43.5939 43.3523 43.6077 43.2714 43.6247 43.1942C43.6444 43.1175 43.6628 43.0426 43.678 42.9654C43.6977 42.8914 43.7175 42.8156 43.734 42.7416C43.7478 42.6883 43.7616 42.6391 43.7726 42.5881C43.7938 42.5142 43.8112 42.4402 43.8268 42.3644C43.848 42.2931 43.8668 42.2201 43.8838 42.1456C43.9054 42.0749 43.927 42.0041 43.9436 41.932C43.9606 41.8755 43.9757 41.8148 43.9909 41.7569C44.0134 41.6875 44.0313 41.6163 44.0506 41.5451C44.0718 41.4785 44.0943 41.4132 44.1122 41.3438C44.1329 41.28 44.1526 41.2152 44.1692 41.1513C44.1912 41.0833 44.2114 41.0158 44.2298 40.9501C44.2519 40.8862 44.2771 40.8242 44.2951 40.7575C44.318 40.6895 44.3401 40.6211 44.3608 40.5531C44.3837 40.491 44.4044 40.4281 44.4242 40.3642C44.4513 40.2976 44.4775 40.2287 44.5009 40.1584C44.5248 40.0959 44.5455 40.0334 44.5662 39.9718C44.5896 39.9144 44.614 39.8556 44.6342 39.7949C44.6659 39.7246 44.6907 39.6506 44.7187 39.5753C44.7431 39.5192 44.766 39.4627 44.7876 39.4048C44.8212 39.334 44.8529 39.2601 44.8805 39.1856C44.9062 39.1305 44.9287 39.0749 44.9498 39.0193C44.9797 38.9545 45.0119 38.8911 45.0394 38.8254C45.0693 38.7638 45.096 38.6999 45.1221 38.6388C45.152 38.5823 45.1819 38.5235 45.2085 38.4651C45.2435 38.4004 45.2752 38.3333 45.3036 38.2643C45.3321 38.2129 45.3592 38.1642 45.385 38.1104C45.4245 38.0438 45.459 37.973 45.4925 37.9027C45.51 37.8742 45.5279 37.8471 45.5449 37.8163C45.5564 37.7952 45.5637 37.7731 45.5743 37.7529C45.6156 37.6858 45.6542 37.6169 45.6896 37.5462C45.7195 37.4988 45.748 37.4506 45.776 37.3982C45.8197 37.3325 45.8628 37.2622 45.9014 37.1901C45.9308 37.1446 45.9598 37.094 45.9906 37.0421C46.0329 36.9833 46.0742 36.9199 46.1123 36.8537C46.1477 36.8027 46.1817 36.7462 46.2157 36.692C46.2557 36.6382 46.2961 36.5812 46.3311 36.5243C46.3733 36.4687 46.4119 36.4062 46.4514 36.3441C46.4877 36.2973 46.524 36.2513 46.5567 36.1994C46.6054 36.1374 46.6504 36.0717 46.6945 36.0041C46.7331 35.9563 46.7694 35.9076 46.8043 35.8566C46.8535 35.7969 46.9008 35.7362 46.9459 35.6733C46.9854 35.6241 47.0226 35.5722 47.0594 35.5212C47.103 35.4716 47.1444 35.4229 47.1839 35.3691C47.2321 35.3126 47.2762 35.2547 47.3203 35.195C47.3658 35.1453 47.4072 35.0948 47.4485 35.041C47.4954 34.9882 47.5414 34.9358 47.5855 34.8802C47.6319 34.8292 47.6751 34.7745 47.7164 34.7212C47.7642 34.6693 47.8106 34.6165 47.8561 34.5613C47.9007 34.5135 47.9443 34.468 47.9866 34.418C48.0358 34.3642 48.0803 34.3104 48.1281 34.2558C48.1805 34.2029 48.2301 34.1496 48.2779 34.0931C48.3183 34.0499 48.3606 34.0095 48.3983 33.9663C48.4516 33.9125 48.5003 33.856 48.5508 33.8027C48.6042 33.7489 48.6565 33.6933 48.7066 33.6377C48.7608 33.5831 48.8178 33.5289 48.8688 33.4723C48.9051 33.437 48.9391 33.403 48.974 33.3648C49.031 33.312 49.0834 33.2559 49.1362 33.1994C49.1928 33.1456 49.2497 33.0887 49.303 33.0331C49.36 32.9784 49.4188 32.9237 49.4726 32.8658C49.5011 32.8373 49.5296 32.813 49.5576 32.7826C49.5861 32.7587 49.6127 32.7289 49.6417 32.7018C49.6435 32.6999 49.6454 32.6981 49.6472 32.6963C49.6757 32.671 49.7 32.6425 49.7281 32.6158C49.7883 32.5621 49.8466 32.5047 49.9013 32.4491C49.9615 32.3948 50.0208 32.3383 50.0768 32.2804C50.1384 32.2257 50.1995 32.1701 50.256 32.1122C50.2739 32.0948 50.2914 32.0796 50.3093 32.0612C50.3346 32.0401 50.3571 32.0171 50.3801 31.996C50.398 31.9785 50.4191 31.962 50.4357 31.9432C50.4522 31.9266 50.4692 31.9115 50.4871 31.8954C50.5487 31.8407 50.6071 31.7842 50.6659 31.7281C50.7279 31.6744 50.789 31.6188 50.8474 31.5618C50.9099 31.5071 50.9724 31.4506 51.0312 31.3936C51.0932 31.3398 51.1566 31.2824 51.2159 31.2273C51.2209 31.2213 51.2246 31.2172 51.2297 31.2139C51.2297 31.2121 51.2315 31.2121 51.2333 31.2094C51.288 31.1583 51.3491 31.1092 51.4024 31.0559C51.4066 31.0522 51.408 31.0504 51.4121 31.0472C51.4746 30.9943 51.5343 30.9378 51.595 30.884C51.6593 30.8303 51.7195 30.7751 51.7811 30.7186C51.8449 30.6658 51.9065 30.6093 51.9667 30.5532C52.0315 30.5004 52.0935 30.4438 52.1542 30.3887C52.2203 30.3349 52.2837 30.2793 52.3448 30.2237C52.4096 30.1691 52.4735 30.1148 52.536 30.0583C52.5934 30.0073 52.6564 29.96 52.7115 29.9062C52.7639 29.864 52.8126 29.8162 52.8622 29.7735C52.9284 29.7197 52.9877 29.6641 53.0515 29.6117C53.1154 29.5589 53.177 29.5024 53.2409 29.4491C53.3061 29.3967 53.3672 29.3415 53.4302 29.2864C53.4959 29.2335 53.5597 29.1789 53.6213 29.1247C53.6866 29.0709 53.7504 29.0171 53.8143 28.962C53.8782 28.9082 53.9434 28.8549 54.0068 28.7993C54.0082 28.7975 54.01 28.7957 54.0119 28.7943C54.0996 28.7272 54.1837 28.656 54.2669 28.5838C54.3262 28.5365 54.385 28.4873 54.441 28.4377C54.5012 28.3899 54.5605 28.3412 54.6175 28.2916C54.6768 28.2415 54.736 28.1933 54.7939 28.1436C54.8546 28.0936 54.9148 28.0444 54.9722 27.9934C55.0329 27.9456 55.094 27.8964 55.1514 27.8454C55.1859 27.8192 55.218 27.7908 55.2497 27.7618C55.2585 27.7568 55.2672 27.7522 55.2732 27.7471C55.3265 27.703 55.3761 27.657 55.4285 27.6157C55.4446 27.601 55.4602 27.5913 55.4772 27.5771C55.5213 27.5417 55.5636 27.5031 55.6063 27.4682C55.6293 27.4484 55.6559 27.4291 55.6803 27.4098C55.7157 27.3814 55.7497 27.3492 55.786 27.3202C55.8177 27.2931 55.8512 27.2688 55.8829 27.2417C55.9109 27.221 55.9362 27.1939 55.9661 27.1723C56.0056 27.1387 56.0479 27.1098 56.0878 27.0749C56.1076 27.0579 56.1283 27.0395 56.1462 27.0216C56.1954 26.9821 56.2432 26.9471 56.2914 26.9058C56.3043 26.8952 56.3158 26.8865 56.3286 26.8741C56.3842 26.8281 56.4412 26.7859 56.4954 26.7385C56.5009 26.7335 56.5055 26.7284 56.5106 26.7252C56.5322 26.705 56.5565 26.6875 56.5786 26.6687C56.6351 26.6232 56.6944 26.574 56.7536 26.5244Z" fill="url(#paint2_linear_1489_18013)"/>
  <path d="M72.2417 48.6065C72.1894 48.5394 72.1351 48.476 72.0791 48.4103C72.0267 48.3455 71.9738 48.2803 71.9169 48.2187C71.8654 48.1539 71.813 48.0882 71.7574 48.0262C71.7179 47.9747 71.6752 47.9251 71.6329 47.8764C71.581 47.8093 71.5277 47.7454 71.4707 47.682C71.4197 47.6173 71.3659 47.5538 71.3113 47.4913C71.2612 47.4256 71.2106 47.3627 71.156 47.3007C71.1073 47.2354 71.0572 47.172 71.0048 47.1095C70.957 47.0479 70.911 46.9882 70.8591 46.9303C70.8113 46.8646 70.759 46.8017 70.7057 46.7378C70.6579 46.6753 70.6096 46.6133 70.5572 46.5531C70.5095 46.4888 70.4635 46.4272 70.4125 46.3665C70.3647 46.3022 70.3174 46.2388 70.265 46.1763C70.2168 46.1074 70.1639 46.0403 70.1097 45.9778C70.0656 45.9135 70.0192 45.8537 69.9691 45.7958C69.9277 45.7352 69.8841 45.6736 69.8377 45.6176C69.7867 45.5427 69.7348 45.4705 69.6787 45.4039C69.6332 45.3382 69.5868 45.2762 69.5367 45.2155C69.4972 45.1549 69.4549 45.0988 69.4122 45.0423C69.3644 44.9701 69.3143 44.8989 69.2601 44.8305C69.2151 44.7634 69.1691 44.6958 69.1177 44.632C69.0827 44.5782 69.0446 44.5198 69.0051 44.4688C68.9578 44.3889 68.9058 44.3149 68.8502 44.2446C68.8112 44.1789 68.7698 44.1178 68.7253 44.0594C68.6867 43.9937 68.6453 43.9312 68.6007 43.8687C68.5948 43.86 68.5911 43.8504 68.586 43.8407C68.5465 43.7713 68.5029 43.7079 68.4583 43.6463C68.4408 43.6165 68.4261 43.5852 68.4064 43.5568C68.3903 43.5319 68.3728 43.509 68.3568 43.4846C68.3172 43.4129 68.274 43.3413 68.2286 43.2732C68.2244 43.2673 68.2189 43.2627 68.218 43.2585C68.1867 43.2011 68.1518 43.1441 68.116 43.0895C68.0765 43.0118 68.0314 42.9374 67.9827 42.8615C67.9524 42.8 67.917 42.7412 67.8807 42.6833C67.8449 42.6042 67.8003 42.5303 67.7553 42.4544C67.7259 42.3906 67.6919 42.3285 67.6551 42.267C67.6197 42.1907 67.5811 42.113 67.5366 42.0391C67.5072 41.9743 67.475 41.9118 67.4396 41.8493C67.407 41.7693 67.3712 41.6935 67.3289 41.6195C67.3013 41.5515 67.2705 41.4868 67.2351 41.4238C67.2066 41.348 67.1749 41.2731 67.1359 41.201C67.1092 41.1311 67.0789 41.0622 67.0454 40.9969C67.0206 40.928 66.993 40.8605 66.9613 40.7957C66.9342 40.7176 66.9025 40.6381 66.8662 40.5627C66.8441 40.4956 66.8179 40.4263 66.7881 40.3624C66.7632 40.2797 66.7329 40.2006 66.6985 40.1267C66.6787 40.0564 66.6525 39.9902 66.6263 39.9254C66.6024 39.8422 66.5758 39.7618 66.5418 39.6819C66.5229 39.6153 66.5004 39.5495 66.4747 39.4825C66.4531 39.3998 66.4274 39.3166 66.3966 39.2366C66.3782 39.1696 66.3584 39.1048 66.3355 39.0391C66.3157 38.9527 66.2909 38.8686 66.2615 38.7859C66.2459 38.722 66.227 38.66 66.2082 38.5956C66.1903 38.5061 66.1645 38.4224 66.136 38.337C66.1223 38.2699 66.1043 38.2023 66.0837 38.1375C66.0662 38.0525 66.0464 37.9749 66.0212 37.8949C66.0055 37.8131 65.9849 37.73 65.961 37.6509C65.949 37.5852 65.9329 37.52 65.915 37.4566C65.8994 37.367 65.8796 37.281 65.8567 37.1951C65.8411 37.1179 65.8241 37.0389 65.8034 36.964C65.791 36.8919 65.7767 36.8211 65.7574 36.7522C65.7441 36.6686 65.7289 36.5881 65.7087 36.5077C65.7069 36.4999 65.7069 36.4935 65.7069 36.4875C65.6949 36.4126 65.677 36.3419 65.6586 36.2702C65.6527 36.2394 65.6508 36.2086 65.6458 36.176C65.6375 36.1323 65.6242 36.0919 65.6145 36.0482C65.6049 35.9885 65.5975 35.9265 65.586 35.8667C65.5819 35.8507 65.5759 35.8355 65.5723 35.819C65.5617 35.7381 65.5474 35.6563 65.5286 35.5777C65.5167 35.5005 65.5015 35.4238 65.4845 35.3466C65.4725 35.2667 65.4592 35.189 65.4422 35.11C65.4316 35.03 65.4188 34.951 65.4018 34.8706C65.3908 34.7888 65.3806 34.7079 65.3627 34.6275C65.354 34.5554 65.3393 34.4841 65.3255 34.4125C65.3159 34.3316 65.3025 34.2507 65.2851 34.1694C65.2759 34.0885 65.2639 34.0077 65.2465 33.9249C65.2368 33.8413 65.2258 33.7595 65.2097 33.6777C65.1991 33.5927 65.19 33.5105 65.1725 33.4236C65.1651 33.3648 65.1573 33.3023 65.1454 33.2435C65.1371 33.1594 65.1238 33.0772 65.1095 32.9945C65.0999 32.9095 65.087 32.8291 65.0714 32.7422C65.0631 32.6591 65.0516 32.5759 65.0374 32.4918C65.0278 32.4059 65.0167 32.3227 65.0011 32.2377C64.9924 32.1504 64.9832 32.0659 64.9689 31.9795C64.9593 31.8931 64.9496 31.809 64.9345 31.7212C64.9299 31.6785 64.9244 31.6339 64.9175 31.5903C64.9083 31.5053 64.8963 31.4203 64.883 31.3362C64.8747 31.2512 64.8642 31.1662 64.8504 31.0821C64.8421 30.9957 64.8306 30.9107 64.8169 30.8248C64.81 30.7384 64.7985 30.6538 64.7856 30.5665C64.7764 30.4815 64.7668 30.3961 64.753 30.3083C64.7447 30.221 64.7351 30.1351 64.7217 30.0478C64.7125 29.9619 64.7047 29.8727 64.6919 29.7863C64.6813 29.6999 64.6735 29.6113 64.6597 29.5258C64.6583 29.5047 64.6547 29.4831 64.6528 29.4619C64.6514 29.4408 64.6478 29.4178 64.6455 29.3971C64.6386 29.3507 64.6358 29.308 64.6275 29.2607C64.6257 29.2432 64.6234 29.2253 64.6206 29.2069C64.6147 29.121 64.6018 29.0364 64.5917 28.9505C64.5848 28.8623 64.5724 28.7787 64.5609 28.6923C64.5536 28.6059 64.543 28.5191 64.532 28.4336C64.5251 28.3463 64.5136 28.2604 64.5026 28.1731C64.4957 28.0871 64.4846 28.0017 64.4736 27.9148C64.4663 27.8248 64.4566 27.7398 64.4447 27.6534C64.4369 27.5642 64.4263 27.4792 64.4171 27.3929C64.4079 27.3042 64.3992 27.2164 64.3877 27.1291C64.378 27.04 64.3716 26.955 64.3587 26.8649C64.35 26.7785 64.3422 26.6903 64.3312 26.603C64.3197 26.5157 64.3146 26.4279 64.3018 26.3379C64.2926 26.2529 64.2871 26.1674 64.2751 26.0815C64.2719 26.041 64.265 25.9988 64.2613 25.957C64.2563 25.9271 64.2563 25.8912 64.2512 25.8595C64.2462 25.7736 64.2328 25.6914 64.2246 25.6054C64.2177 25.5195 64.2062 25.4359 64.1965 25.3495C64.1915 25.2617 64.1786 25.1763 64.169 25.0894C64.1639 25.0031 64.1524 24.9162 64.1428 24.8303C64.1368 24.743 64.1262 24.658 64.1171 24.5716C64.1102 24.4976 64.1023 24.4236 64.0955 24.3483C64.0872 24.2408 64.0775 24.1365 64.0656 24.0303C64.0587 23.9462 64.049 23.8649 64.0403 23.7817C64.032 23.7009 64.0233 23.6186 64.0141 23.5345C64.0063 23.45 63.9985 23.3691 63.9902 23.2873C63.9833 23.2028 63.9746 23.1219 63.964 23.036C63.9571 22.9524 63.9498 22.8701 63.9397 22.7851C63.9328 22.7033 63.9245 22.6197 63.9149 22.5361C63.9075 22.4497 63.9002 22.3683 63.8905 22.2847C63.8859 22.2291 63.8795 22.1721 63.874 22.1156C63.8671 22.0325 63.8574 21.9502 63.8492 21.868C63.8432 21.7834 63.8317 21.7016 63.8244 21.6189C63.817 21.5353 63.8078 21.4544 63.7995 21.3699C63.7927 21.2876 63.7835 21.2026 63.7757 21.1195C63.7688 21.0358 63.76 20.955 63.7504 20.8704C63.7435 20.7854 63.7361 20.705 63.726 20.6182C63.7182 20.5364 63.7113 20.4518 63.7021 20.3691C63.6952 20.2832 63.6874 20.2014 63.6778 20.1168C63.6704 20.0328 63.6635 19.9496 63.6534 19.8646C63.6465 19.781 63.6396 19.6973 63.63 19.6105C63.6226 19.5269 63.6148 19.4423 63.6052 19.3601C63.5978 19.2746 63.5914 19.1901 63.5817 19.106C63.5749 19.0223 63.567 18.9396 63.5583 18.8533C63.5491 18.7682 63.5431 18.6837 63.5335 18.5996C63.5312 18.5642 63.528 18.5279 63.5229 18.4935C63.517 18.4085 63.5087 18.3271 63.5009 18.2421C63.4935 18.158 63.4843 18.0767 63.4761 17.9926C63.4701 17.9081 63.4614 17.8263 63.4531 17.7436C63.4462 17.6572 63.4375 17.5736 63.4297 17.4895C63.4223 17.4054 63.4145 17.3232 63.4053 17.2391C63.3993 17.155 63.3911 17.0709 63.3814 16.9859C63.3759 16.9027 63.3667 16.8205 63.3589 16.7355C63.3515 16.6505 63.3442 16.5664 63.335 16.4814C63.3286 16.3991 63.3212 16.3141 63.312 16.2291C63.3051 16.145 63.2964 16.0619 63.2881 15.9778C63.1154 13.8333 62.2106 11.7372 60.5703 10.0977C56.9026 6.43098 50.955 6.43098 47.2878 10.0977C43.69 13.6923 43.6225 19.4777 47.0797 23.1564C47.132 23.217 47.1867 23.2735 47.2414 23.3333C47.2938 23.3912 47.3489 23.45 47.4036 23.5074C47.456 23.5644 47.5111 23.6232 47.5658 23.6816C47.6182 23.7395 47.6733 23.7974 47.7271 23.8557C47.7804 23.9145 47.8364 23.9724 47.8897 24.0303C47.9816 24.1365 48.0781 24.2371 48.1751 24.34C48.2348 24.4034 48.2927 24.4687 48.3529 24.5316C48.3552 24.5353 48.3584 24.5371 48.3603 24.5385C48.408 24.5914 48.4554 24.6442 48.5055 24.697C48.5105 24.7039 48.5151 24.7067 48.5192 24.7104C48.5666 24.7623 48.6093 24.811 48.6576 24.8615C48.6658 24.8693 48.6723 24.8767 48.6782 24.8836C48.7223 24.9309 48.7646 24.9792 48.8092 25.0279C48.8188 25.0375 48.8285 25.0462 48.8367 25.0559C48.8795 25.1005 48.919 25.1455 48.9622 25.1928C48.9728 25.2043 48.9861 25.2167 48.9967 25.2282C49.0353 25.2705 49.0738 25.3141 49.1143 25.3573C49.1281 25.3716 49.1423 25.3844 49.1561 25.4014C49.1942 25.4409 49.2287 25.4823 49.2655 25.5227C49.2834 25.5411 49.299 25.5563 49.316 25.5747C49.3514 25.6114 49.3831 25.6505 49.4189 25.6891C49.4368 25.7075 49.4575 25.7277 49.4764 25.746C49.5076 25.7814 49.5375 25.8168 49.5692 25.8517C49.5917 25.8756 49.6156 25.8958 49.6363 25.9188C49.6648 25.9514 49.6914 25.9845 49.7226 26.0158C49.7461 26.042 49.7723 26.0668 49.7966 26.0939C49.8224 26.121 49.849 26.1536 49.8752 26.1812C49.9028 26.2111 49.929 26.2372 49.957 26.2671C49.9804 26.2924 50.0025 26.3209 50.0277 26.348C50.0558 26.3797 50.087 26.4105 50.1169 26.4413C50.1376 26.4642 50.1582 26.489 50.178 26.5125C50.2097 26.5469 50.2446 26.5796 50.2763 26.6154C50.2947 26.6347 50.3126 26.6581 50.3305 26.6779C50.365 26.7165 50.4013 26.7514 50.4358 26.7905C50.4514 26.8061 50.4661 26.8254 50.4822 26.8442C50.5208 26.8851 50.5594 26.9223 50.5984 26.9637C50.6099 26.9793 50.6219 26.9945 50.6357 27.0092C50.6752 27.0556 50.717 27.0965 50.7583 27.1392C50.7689 27.1502 50.7763 27.1622 50.7868 27.1737C50.8296 27.2224 50.8755 27.267 50.9182 27.3152C50.9265 27.3221 50.932 27.3317 50.9394 27.3382C50.9849 27.391 51.0313 27.4397 51.0795 27.4893C51.0841 27.4944 51.0878 27.4981 51.0905 27.5036C51.1397 27.5596 51.1893 27.6125 51.2403 27.6658C51.2403 27.6676 51.2422 27.6676 51.2426 27.6676C51.3249 27.7627 51.4085 27.856 51.4958 27.9447C51.5477 28.0035 51.5997 28.0614 51.6548 28.1179C51.7072 28.1758 51.7591 28.2346 51.8133 28.2884C51.8657 28.3481 51.9176 28.4069 51.9728 28.4625C52.0251 28.5204 52.078 28.582 52.1322 28.6376C52.1846 28.6946 52.237 28.7534 52.2907 28.8099C52.344 28.8697 52.3969 28.9285 52.452 28.9841C52.5044 29.0447 52.5572 29.1035 52.6115 29.1623C52.7089 29.2699 52.809 29.3797 52.9115 29.4817C52.9643 29.5382 53.0117 29.5989 53.0659 29.6526C53.1169 29.7068 53.1651 29.7661 53.2175 29.818C53.2681 29.8718 53.3168 29.9324 53.3691 29.9844C53.4197 30.0404 53.4661 30.0997 53.5203 30.1516C53.5713 30.2063 53.6196 30.2651 53.672 30.3189C53.723 30.3759 53.7712 30.4324 53.8236 30.4866C53.8732 30.5431 53.9228 30.6001 53.9752 30.6538C54.0267 30.7104 54.074 30.7692 54.1264 30.8229C54.1774 30.8785 54.2275 30.9355 54.2789 30.9893C54.3286 31.0472 54.3786 31.1046 54.4315 31.1593C54.4811 31.2144 54.5307 31.2719 54.5831 31.3279C54.6332 31.3844 54.6837 31.4405 54.7361 31.497C54.7848 31.554 54.8372 31.6087 54.8878 31.6652C54.9383 31.7231 54.9884 31.7778 55.0408 31.8338C55.0899 31.8935 55.1419 31.9491 55.1942 32.0047C55.2429 32.0617 55.2949 32.1201 55.3454 32.1761C55.3946 32.2336 55.4465 32.2905 55.4989 32.3461C55.5476 32.4059 55.5995 32.4601 55.6519 32.5166C55.7001 32.5763 55.753 32.6319 55.8049 32.6871C55.872 32.7744 55.9483 32.8534 56.0218 32.9334C56.1054 33.034 56.1895 33.1346 56.28 33.2256C56.3292 33.2826 56.376 33.3414 56.428 33.3938C56.4771 33.4498 56.524 33.5086 56.5764 33.5633C56.6242 33.6189 56.672 33.6777 56.7225 33.7297C56.7717 33.7853 56.8194 33.8441 56.8705 33.8978C56.9192 33.9566 56.9679 34.0132 57.0193 34.0674C57.0671 34.1248 57.1158 34.1836 57.1673 34.2383C57.2151 34.2962 57.2638 34.3536 57.3162 34.4088C57.3639 34.4676 57.4131 34.5241 57.4641 34.5806C57.5119 34.6395 57.5615 34.6964 57.6121 34.752C57.6594 34.8118 57.7095 34.8664 57.76 34.9253C57.8074 34.985 57.8593 35.041 57.9098 35.0976C57.9682 35.1757 58.033 35.2455 58.0968 35.3172C58.1653 35.4054 58.2351 35.4886 58.31 35.5685C58.3578 35.6269 58.4024 35.6857 58.4543 35.7395C58.5003 35.7964 58.5467 35.8553 58.5977 35.9099C58.6455 35.9697 58.6919 36.0271 58.7424 36.0822C58.7879 36.1429 58.8352 36.2003 58.8858 36.2555C58.9326 36.3152 58.9804 36.3745 59.0305 36.4296C59.076 36.4894 59.1242 36.5486 59.1739 36.6038C59.2194 36.6653 59.2676 36.7251 59.3177 36.7816C59.371 36.8528 59.4266 36.9204 59.4836 36.9865C59.5419 37.0665 59.6053 37.1427 59.6692 37.2167C59.7151 37.2765 59.7593 37.3371 59.8098 37.3927C59.8548 37.4524 59.8999 37.5103 59.9495 37.5669C59.9941 37.6284 60.0405 37.6891 60.0901 37.7451C60.1337 37.8067 60.1801 37.8674 60.2293 37.9234C60.2734 37.9868 60.3189 38.0447 60.3672 38.1054C60.4205 38.1835 60.4793 38.2584 60.5413 38.3305C60.5863 38.3967 60.6341 38.4619 60.6851 38.5217C60.7279 38.5837 60.7724 38.6444 60.8198 38.7018C60.8634 38.7657 60.9075 38.8263 60.9535 38.8847C60.9967 38.949 61.0412 39.0092 61.0876 39.0689C61.1285 39.1319 61.174 39.1934 61.2204 39.2527C61.2691 39.3317 61.322 39.4066 61.3794 39.4797C61.4199 39.5413 61.4635 39.6038 61.5081 39.663C61.5485 39.7278 61.5917 39.7889 61.6363 39.851C61.6749 39.9153 61.7181 39.9778 61.7626 40.0403C61.8067 40.117 61.8531 40.1905 61.906 40.259C61.9446 40.3256 61.985 40.3877 62.0301 40.4501C62.0677 40.5149 62.1082 40.5783 62.1518 40.6399C62.1877 40.7088 62.2281 40.7727 62.2713 40.837C62.3108 40.9101 62.3535 40.9841 62.4009 41.0539C62.4353 41.1205 62.4744 41.1858 62.5157 41.2474C62.5511 41.3163 62.5879 41.382 62.6292 41.4459C62.6618 41.5139 62.6991 41.5814 62.7395 41.6448C62.7744 41.7211 62.8135 41.7932 62.8576 41.8635C62.8893 41.932 62.9242 41.9982 62.9633 42.0648C62.9936 42.1333 63.0271 42.2017 63.0639 42.266C63.0942 42.335 63.1264 42.4066 63.1632 42.4705C63.1939 42.5468 63.2302 42.6189 63.2688 42.6929C63.2955 42.7618 63.3277 42.8303 63.3626 42.8992C63.3897 42.9677 63.4205 43.0389 63.4531 43.1055C63.4816 43.1814 63.5124 43.259 63.5482 43.3325C63.573 43.4033 63.6015 43.474 63.6346 43.5411C63.6585 43.6133 63.6865 43.6845 63.7196 43.7516C63.7412 43.8237 63.7674 43.8959 63.7977 43.9652C63.8216 44.0424 63.851 44.1215 63.8832 44.1991C63.9048 44.2713 63.931 44.3411 63.959 44.4128C63.9787 44.4849 64.0031 44.5561 64.0293 44.6264C64.0509 44.7069 64.0752 44.7877 64.1051 44.8654C64.123 44.9394 64.1483 45.0133 64.1754 45.0855C64.1929 45.1576 64.2149 45.2297 64.2397 45.3023C64.2567 45.3745 64.2765 45.4471 64.3008 45.5197C64.3188 45.595 64.3385 45.6718 64.3629 45.7458C64.3794 45.8298 64.4024 45.9112 64.4295 45.992C64.4447 46.0669 64.4626 46.1382 64.4865 46.2131C64.4998 46.2843 64.5168 46.3564 64.5398 46.4318C64.5531 46.503 64.5692 46.576 64.5899 46.6487C64.6073 46.7419 64.6266 46.8311 64.6524 46.9239C64.668 46.9969 64.6822 47.0718 64.7029 47.1449C64.7167 47.2198 64.7314 47.2938 64.7521 47.365C64.7654 47.4408 64.7787 47.5139 64.7985 47.586C64.8095 47.66 64.8247 47.7321 64.8426 47.8061C64.8536 47.8782 64.8688 47.9522 64.8858 48.0248C64.8996 48.1241 64.9175 48.2242 64.9409 48.3249C64.9423 48.3267 64.9432 48.329 64.9441 48.3327C64.9538 48.3933 64.9616 48.454 64.9758 48.5156C64.9777 48.5307 64.9827 48.5427 64.9864 48.556C64.9933 48.6065 64.9988 48.6571 65.0094 48.709C65.0131 48.7329 65.0218 48.7568 65.0268 48.7779C65.0319 48.8202 65.0356 48.8606 65.042 48.9011C65.0498 48.9346 65.0595 48.9682 65.0654 49.0022C65.0705 49.0306 65.0705 49.061 65.0765 49.0927C65.0843 49.1363 65.0948 49.18 65.104 49.2213C65.1068 49.242 65.1068 49.2631 65.1105 49.2843C65.1183 49.338 65.1302 49.389 65.1412 49.4442C65.1412 49.4543 65.1412 49.4644 65.1435 49.4745C65.1518 49.5384 65.1647 49.6004 65.1771 49.6624C65.1771 49.6643 65.1771 49.6661 65.1771 49.6679C65.189 49.7837 65.2083 49.8963 65.2313 50.0075C65.2419 50.0847 65.2511 50.1596 65.2667 50.2336C65.2768 50.3099 65.2874 50.3829 65.3012 50.4578C65.3122 50.5336 65.3218 50.6076 65.3352 50.6816C65.3443 50.7569 65.3535 50.8328 65.3687 50.9058C65.3756 50.9807 65.3871 51.0547 65.4009 51.1277C65.4078 51.2031 65.4188 51.2762 65.4303 51.3501C65.4395 51.4241 65.4505 51.4981 65.4611 51.5721C65.6481 53.5561 67.316 55.1097 69.3506 55.1097C71.5084 55.1097 73.2567 53.3622 73.2567 51.2026C73.2466 50.2106 72.8643 49.2985 72.2417 48.6065Z" fill="url(#paint3_linear_1489_18013)"/>
  <defs>
    <linearGradient id="paint0_linear_1489_18013" x1="10.437" y1="37.8645" x2="20.9491" y2="26.4674" gradientUnits="userSpaceOnUse">
      <stop stop-color="#FF0097"/>
      <stop offset="1" stop-color="#FFC516"/>
    </linearGradient>
    <linearGradient id="paint1_linear_1489_18013" x1="30.2375" y1="39.6873" x2="14.8195" y2="21.419" gradientUnits="userSpaceOnUse">
      <stop stop-color="#FF7300"/>
      <stop offset="1" stop-color="#FFC516"/>
    </linearGradient>
    <linearGradient id="paint2_linear_1489_18013" x1="47.6262" y1="26.3658" x2="35.1036" y2="40.3381" gradientUnits="userSpaceOnUse">
      <stop stop-color="#6E0097"/>
      <stop offset="1" stop-color="#FF7300"/>
    </linearGradient>
    <linearGradient id="paint3_linear_1489_18013" x1="56.7324" y1="15.1043" x2="77.5124" y2="48.3463" gradientUnits="userSpaceOnUse">
      <stop offset="0.0221" stop-color="#6E0097"/>
      <stop offset="1" stop-color="#FF0009"/>
    </linearGradient>
  </defs>
</svg>