<svg width="24" height="24" viewBox="0 0 24 24" fill="none" xmlns="http://www.w3.org/2000/svg">
<path d="M7.84023 11.5307C7.67483 12.2871 7.00003 12.8553 6.19471 12.8553C5.98 12.8553 5.80594 13.0293 5.80594 13.2441C5.80594 13.4588 5.98 13.6328 6.19471 13.6328C7.42705 13.6328 8.45071 12.7227 8.62923 11.5394C9.38375 11.4578 10.0803 11.1216 10.6195 10.5712C10.7697 10.4179 10.7672 10.1717 10.6138 10.0215C10.4605 9.87131 10.2143 9.87369 10.064 10.0271C9.58721 10.5138 8.94942 10.7819 8.26814 10.7819C6.88189 10.7819 5.7541 9.65407 5.7541 8.26782C5.7541 8.05306 5.58004 7.87905 5.36533 7.87905C5.15063 7.87905 4.97656 8.05306 4.97656 8.26782C4.97656 9.93771 6.22679 11.3201 7.84023 11.5307Z" fill="#BAB8BB"/>
<path d="M9.48628 14.9028C9.48628 14.6881 9.31222 14.514 9.09751 14.514C7.28253 14.514 5.80594 15.9906 5.80594 17.8056C5.80594 17.8244 5.80661 17.8432 5.80692 17.862C5.66235 17.8425 5.51514 17.8315 5.36533 17.8315C5.15063 17.8315 4.97656 18.0055 4.97656 18.2203C4.97656 18.4351 5.15063 18.6091 5.36533 18.6091C6.75158 18.6091 7.87937 19.7369 7.87937 21.1231C7.87937 21.3379 8.05344 21.5119 8.26814 21.5119C8.48284 21.5119 8.65691 21.3379 8.65691 21.1231C8.65691 19.7437 7.80359 18.5605 6.59742 18.0717C6.58819 17.9836 6.58347 17.8945 6.58347 17.8056C6.58347 16.4194 7.71127 15.2916 9.09751 15.2916C9.31222 15.2916 9.48628 15.1176 9.48628 14.9028Z" fill="#BAB8BB"/>
<path d="M22.756 11.5853C22.756 10.7002 22.4025 9.86146 21.7776 9.24461C21.8766 8.928 21.9266 8.6005 21.9266 8.26782C21.9266 6.66744 20.7784 5.33085 19.2626 5.03694C19.3784 4.74816 19.4385 4.4386 19.4385 4.12095C19.4385 3.1072 18.8226 2.2348 17.9453 1.85775C16.4838 0.693719 14.8854 0 13.6588 0C12.977 0 12.3724 0.335274 12.0001 0.849279C11.6277 0.335274 11.0231 0 10.3413 0C9.11479 0 7.51633 0.693719 6.05482 1.85775C5.1776 2.2348 4.56164 3.1072 4.56164 4.12095C4.56164 4.4386 4.62171 4.74816 4.73757 5.03694C3.22178 5.33085 2.07351 6.66744 2.07351 8.26782C2.07351 8.6005 2.12354 8.92795 2.22254 9.24461C1.59766 9.86146 1.24414 10.7002 1.24414 11.5853C1.24414 12.2772 1.45921 12.9196 1.82538 13.4501C1.44485 14.0002 1.24414 14.6419 1.24414 15.3175C1.24414 16.5143 1.8966 17.6108 2.92964 18.189C2.91186 18.3368 2.90289 18.486 2.90289 18.635C2.90289 20.2494 3.95593 21.6767 5.4838 22.1631C6.14838 23.3005 7.35896 24 8.68259 24C10.1337 24 11.392 23.1612 12.0001 21.9435C12.6082 23.1612 13.8664 24 15.3176 24C16.6412 24 17.8518 23.3005 18.5164 22.1631C20.0442 21.6766 21.0973 20.2493 21.0973 18.635C21.0973 18.486 21.0883 18.3368 21.0705 18.189C22.1036 17.6108 22.756 16.5143 22.756 15.3175C22.756 14.6419 22.5553 14.0002 22.1748 13.4501C22.541 12.9196 22.756 12.2772 22.756 11.5853ZM8.68259 23.2225C7.59253 23.2225 6.59925 22.6215 6.09033 21.6541C6.03989 21.5583 5.95187 21.4878 5.84732 21.4597C4.57148 21.1163 3.68043 19.9548 3.68043 18.635C3.68043 18.4375 3.70033 18.2397 3.73957 18.047C3.77596 17.8683 3.68322 17.6883 3.51657 17.6141C2.60846 17.2104 2.02168 16.3089 2.02168 15.3175C2.02168 14.8666 2.13862 14.4356 2.36177 14.0538C2.94213 14.5655 3.70303 14.8769 4.53572 14.8769C4.75042 14.8769 4.92449 14.7029 4.92449 14.4881C4.92449 14.2734 4.75042 14.0994 4.53572 14.0994C3.14947 14.0994 2.02168 12.9716 2.02168 11.5853C2.02168 10.8391 2.35094 10.1358 2.92507 9.65593C3.05466 9.54759 3.0995 9.36798 3.036 9.21149C2.91326 8.90898 2.85105 8.59148 2.85105 8.26782C2.85105 6.88157 3.97884 5.75378 5.36509 5.75378C6.75134 5.75378 7.87913 6.88157 7.87913 8.26782C7.87913 8.48257 8.05319 8.65659 8.2679 8.65659C8.4826 8.65659 8.65667 8.48257 8.65667 8.26782C8.65667 6.52396 7.29328 5.09324 5.57653 4.98376C5.42092 4.72365 5.33917 4.42787 5.33917 4.12095C5.33917 3.42796 5.75987 2.83153 6.3592 2.57318C6.38237 2.56629 6.40507 2.55727 6.427 2.54587C6.61268 2.47527 6.81375 2.43629 7.02384 2.43629C7.67474 2.43629 8.25582 2.80022 8.54035 3.38618C8.63417 3.57937 8.86681 3.65992 9.0599 3.56605C9.25304 3.47228 9.33359 3.23969 9.23977 3.04655C8.91497 2.37771 8.30024 1.89698 7.59232 1.7267C8.58456 1.12126 9.56141 0.777538 10.3413 0.777538C11.0416 0.777538 11.6113 1.34721 11.6113 2.04752V7.07824C11.262 6.80112 10.8208 6.63499 10.3413 6.63499C10.1266 6.63499 9.95256 6.809 9.95256 7.02376C9.95256 7.23851 10.1266 7.41253 10.3413 7.41253C11.0416 7.41253 11.6113 7.9822 11.6113 8.68251V18.0274C11.1279 17.4038 10.4465 16.9331 9.64492 16.7177C9.43763 16.6622 9.22432 16.785 9.1686 16.9923C9.11288 17.1997 9.23583 17.413 9.44317 17.4686C10.7197 17.8116 11.6113 18.9733 11.6113 20.2937C11.6113 21.9086 10.2975 23.2225 8.68259 23.2225ZM20.4836 17.6142C20.3169 17.6883 20.2242 17.8683 20.2606 18.047C20.2998 18.2397 20.3197 18.4375 20.3197 18.635C20.3197 19.9548 19.4287 21.1164 18.1528 21.4597C18.0483 21.4879 17.9602 21.5583 17.9098 21.6542C17.4009 22.6215 16.4076 23.2225 15.3176 23.2225C13.7027 23.2225 12.3888 21.9086 12.3888 20.2937C12.3888 20.1844 12.3838 20.076 12.3743 19.9687C12.3835 19.9354 12.3888 19.9006 12.3888 19.8644V7.02376C12.3888 6.32346 12.9586 5.75378 13.6588 5.75378C13.8735 5.75378 14.0476 5.57977 14.0476 5.36501C14.0476 5.15025 13.8735 4.97624 13.6588 4.97624C13.1793 4.97624 12.7382 5.14238 12.3888 5.41949V2.04752C12.3888 1.34721 12.9586 0.777538 13.6588 0.777538C14.4388 0.777538 15.4156 1.12126 16.4078 1.7267C15.6999 1.89693 15.0852 2.37771 14.7604 3.04655C14.6666 3.23974 14.7471 3.47233 14.9403 3.56605C15.1334 3.65987 15.366 3.57937 15.4598 3.38618C15.7443 2.80022 16.3254 2.43629 16.9763 2.43629C17.1864 2.43629 17.3875 2.47527 17.5732 2.54587C17.595 2.55727 17.6177 2.56624 17.6408 2.57313C18.2402 2.83148 18.661 3.42791 18.661 4.12095C18.661 4.42787 18.5792 4.72365 18.4236 4.98376C16.7069 5.09324 15.3435 6.52396 15.3435 8.26782C15.3435 8.48257 15.5176 8.65659 15.7323 8.65659C15.947 8.65659 16.121 8.48257 16.121 8.26782C16.121 6.88157 17.2488 5.75378 18.6351 5.75378C20.0213 5.75378 21.1491 6.88157 21.1491 8.26782C21.1491 8.59148 21.0869 8.90898 20.9642 9.21149C20.9007 9.36803 20.9455 9.54759 21.0751 9.65593C21.6492 10.1358 21.9785 10.8391 21.9785 11.5853C21.9785 12.9716 20.8507 14.0994 19.4644 14.0994C19.2497 14.0994 19.0757 14.2734 19.0757 14.4881C19.0757 14.7029 19.2497 14.8769 19.4644 14.8769C20.2971 14.8769 21.058 14.5655 21.6384 14.0538C21.8616 14.4356 21.9785 14.8666 21.9785 15.3175C21.9785 16.3089 21.3917 17.2104 20.4836 17.6142Z" fill="#BAB8BB"/>
<path d="M18.6354 12.4406C17.8301 12.4406 17.1553 11.8724 16.9899 11.116C18.6033 10.9054 19.8536 9.52302 19.8536 7.85312C19.8536 7.63837 19.6795 7.46436 19.4648 7.46436C19.2501 7.46436 19.076 7.63837 19.076 7.85312C19.076 9.23937 17.9482 10.3672 16.562 10.3672C15.8807 10.3672 15.2429 10.0991 14.7661 9.61238C14.6159 9.45905 14.3697 9.45651 14.2163 9.60678C14.0629 9.75706 14.0604 10.0032 14.2107 10.1566C14.7499 10.7069 15.4464 11.0431 16.2009 11.1247C16.3794 12.3081 17.4031 13.2181 18.6354 13.2181C18.8501 13.2181 19.0242 13.0441 19.0242 12.8294C19.0242 12.6146 18.8501 12.4406 18.6354 12.4406Z" fill="#BAB8BB"/>
<path d="M17.3915 17.0021C17.2417 17.0021 17.0944 17.0131 16.9499 17.0325C16.9502 17.0137 16.9509 16.9949 16.9509 16.9761C16.9509 15.1612 15.4743 13.6846 13.6593 13.6846C13.4446 13.6846 13.2705 13.8586 13.2705 14.0733C13.2705 14.2881 13.4446 14.4621 13.6593 14.4621C15.0455 14.4621 16.1733 15.5899 16.1733 16.9761C16.1733 17.065 16.1686 17.1542 16.1594 17.2422C14.9532 17.731 14.0999 18.9142 14.0999 20.2936C14.0999 20.5084 14.2739 20.6824 14.4887 20.6824C14.7034 20.6824 14.8774 20.5084 14.8774 20.2936C14.8774 18.9074 16.0052 17.7796 17.3915 17.7796C17.6062 17.7796 17.7802 17.6056 17.7802 17.3908C17.7802 17.1761 17.6062 17.0021 17.3915 17.0021Z" fill="#BAB8BB"/>
</svg>
