<?xml version="1.0" encoding="iso-8859-1"?>
<!-- Uploaded to: SVG Repo, www.svgrepo.com, Generator: SVG Repo Mixer Tools -->
<!DOCTYPE svg PUBLIC "-//W3C//DTD SVG 1.1//EN" "http://www.w3.org/Graphics/SVG/1.1/DTD/svg11.dtd">
<svg fill="#BAB8BB" height="800px" width="800px" version="1.1" id="Capa_1" xmlns="http://www.w3.org/2000/svg" xmlns:xlink="http://www.w3.org/1999/xlink"
	 viewBox="0 0 470 470" xml:space="preserve">
<g>
	<path d="M112.663,181.195h244.675c2.68,0,5.155-1.43,6.495-3.75s1.34-5.18,0-7.5L289.531,41.25c-1.34-2.32-3.815-3.75-6.495-3.75
		s-5.155,1.43-6.495,3.75L256.65,75.7L215.11,3.75c-1.34-2.32-3.815-3.75-6.495-3.75s-5.155,1.43-6.495,3.75l-95.953,166.195
		c-1.34,2.32-1.34,5.18,0,7.5S109.983,181.195,112.663,181.195z M208.615,22.5l41.473,71.833c0.046,0.083,0.093,0.165,0.142,0.246
		l30.525,52.871c2.071,3.588,6.658,4.816,10.245,2.745c3.587-2.071,4.816-6.658,2.745-10.245L265.311,90.7L283.036,60
		l61.312,106.195H125.653L208.615,22.5z"/>
	<path d="M462.5,196.112h-365c-4.142,0-7.5,3.358-7.5,7.5s3.358,7.5,7.5,7.5h365c4.142,0,7.5-3.358,7.5-7.5
		S466.642,196.112,462.5,196.112z"/>
	<path d="M67.5,196.112h-60c-4.142,0-7.5,3.358-7.5,7.5s3.358,7.5,7.5,7.5h60c4.142,0,7.5-3.358,7.5-7.5
		S71.642,196.112,67.5,196.112z"/>
	<path d="M357.337,226.03H112.663c-2.391,0-4.639,1.14-6.051,3.069c-1.413,1.93-1.821,4.417-1.098,6.696l54.286,171.321
		c0.426,1.346,1.224,2.544,2.302,3.457l68.051,57.649c1.398,1.185,3.123,1.777,4.848,1.777s3.449-0.592,4.848-1.777l68.051-57.649
		c1.078-0.913,1.875-2.111,2.302-3.457l22.612-71.361c1.251-3.949-0.935-8.164-4.884-9.415c-3.951-1.253-8.164,0.936-9.415,4.884
		l-17.779,56.106l-59.42-92.764c-0.694-1.084-1.656-1.971-2.793-2.576l-95.792-50.96h184.541l-69.222,36.825
		c-3.657,1.945-5.044,6.487-3.099,10.144c1.349,2.535,3.944,3.979,6.628,3.979c1.188,0,2.394-0.283,3.516-0.88l79.543-42.316
		l-17.061,53.845c-1.251,3.949,0.935,8.164,4.884,9.415c3.949,1.253,8.164-0.936,9.415-4.884l22.612-71.362
		c0.723-2.28,0.314-4.767-1.098-6.696C361.977,227.17,359.729,226.03,357.337,226.03z M293.196,403.37L235,452.67l-58.196-49.3
		l46.698-72.903c2.234-3.488,1.218-8.126-2.27-10.361c-3.487-2.234-8.127-1.219-10.361,2.27l-41.606,64.955l-43.902-138.549
		l104.381,55.529L293.196,403.37z"/>
</g>
</svg>