<svg width="82" height="62" viewBox="0 0 82 62" fill="none" xmlns="http://www.w3.org/2000/svg">
<path d="M21.245 21.9628C21.314 21.8508 21.384 21.7368 21.443 21.6208C21.479 21.5588 21.519 21.4968 21.552 21.4328C21.589 21.3698 21.628 21.3078 21.662 21.2448C21.698 21.1828 21.738 21.1198 21.771 21.0568C21.808 20.9948 21.847 20.9318 21.881 20.8688C21.918 20.8058 21.956 20.7438 21.99 20.6808C22.028 20.6188 22.066 20.5568 22.1 20.4928C22.137 20.4308 22.175 20.3688 22.21 20.3048C22.248 20.2428 22.284 20.1818 22.32 20.1178C22.357 20.0558 22.394 19.9938 22.429 19.9308C22.467 19.8688 22.504 19.8068 22.538 19.7428C22.577 19.6808 22.613 19.6198 22.648 19.5558C22.687 19.4948 22.722 19.4328 22.758 19.3698C22.797 19.3078 22.831 19.2468 22.868 19.1838C22.907 19.1218 22.941 19.0608 22.977 18.9978C23.016 18.9368 23.05 18.8728 23.087 18.8108C23.126 18.7498 23.16 18.6878 23.197 18.6258C23.236 18.5648 23.269 18.5018 23.306 18.4408C23.345 18.3798 23.378 18.3168 23.415 18.2548C23.456 18.1938 23.489 18.1298 23.527 18.0668C23.604 17.9498 23.671 17.8308 23.739 17.7108C23.814 17.5908 23.891 17.4718 23.958 17.3478C23.998 17.2808 24.043 17.2138 24.08 17.1458C24.117 17.0838 24.159 17.0208 24.193 16.9568C24.23 16.8948 24.272 16.8328 24.307 16.7688C24.344 16.7058 24.385 16.6438 24.421 16.5798C24.458 16.5168 24.499 16.4548 24.534 16.3918C24.572 16.3288 24.613 16.2668 24.648 16.2038C24.686 16.1418 24.726 16.0788 24.762 16.0158C24.8 15.9528 24.839 15.8908 24.875 15.8278C24.914 15.7648 24.953 15.7028 24.989 15.6398C25.027 15.5778 25.066 15.5148 25.103 15.4518C25.141 15.3898 25.18 15.3268 25.216 15.2638C25.255 15.2018 25.293 15.1388 25.33 15.0758C25.369 15.0138 25.407 14.9518 25.443 14.8888C25.482 14.8268 25.52 14.7648 25.557 14.7018C25.591 14.6478 25.623 14.5958 25.657 14.5408C25.704 14.4658 25.75 14.3918 25.795 14.3148C25.836 14.2518 25.875 14.1868 25.913 14.1228C25.953 14.0598 25.991 13.9958 26.03 13.9308C26.07 13.8678 26.108 13.8038 26.147 13.7388C26.187 13.6758 26.225 13.6118 26.263 13.5468C26.304 13.4848 26.342 13.4198 26.381 13.3558C26.429 13.2808 26.474 13.2048 26.519 13.1288C26.583 13.0288 26.646 12.9278 26.705 12.8258C26.745 12.7618 26.786 12.6978 26.824 12.6318C28.762 9.50679 28.372 5.34979 25.652 2.64679C22.488 -0.499211 17.371 -0.485211 14.224 2.67979C12.684 4.22879 11.904 6.24479 11.876 8.26879C11.874 8.30379 11.875 8.33879 11.874 8.37279C11.874 8.38279 11.873 8.39279 11.873 8.40179C11.872 8.43879 11.872 8.47579 11.871 8.51279C11.868 8.59479 11.867 8.67579 11.866 8.75779C11.863 8.83879 11.862 8.92079 11.861 9.00179C11.858 9.08279 11.857 9.16479 11.856 9.24579C11.853 9.32779 11.852 9.40879 11.851 9.48979C11.848 9.57079 11.846 9.65179 11.846 9.73279C11.842 9.81479 11.841 9.89579 11.84 9.97679C11.837 10.0578 11.835 10.1388 11.835 10.2188C11.831 10.3238 11.829 10.4288 11.829 10.5338C11.825 10.6088 11.828 10.6828 11.827 10.7578C11.821 10.8428 11.822 10.9278 11.82 11.0128C11.815 11.0978 11.816 11.1818 11.814 11.2668C11.809 11.3518 11.809 11.4368 11.807 11.5218C11.802 11.6068 11.802 11.6908 11.801 11.7768C11.796 11.8608 11.795 11.9458 11.794 12.0308C11.789 12.1158 11.788 12.1998 11.787 12.2848C11.783 12.3688 11.781 12.4538 11.78 12.5378C11.776 12.6218 11.774 12.7068 11.773 12.7908C11.769 12.8748 11.767 12.9598 11.766 13.0448C11.762 13.1288 11.759 13.2128 11.759 13.2978C11.756 13.3818 11.752 13.4658 11.752 13.5508C11.749 13.6348 11.744 13.7188 11.744 13.8028C11.741 13.8868 11.737 13.9708 11.737 14.0548C11.734 14.1388 11.729 14.2228 11.729 14.3068C11.727 14.3908 11.721 14.4748 11.722 14.5588C11.719 14.6428 11.713 14.7258 11.714 14.8098C11.712 14.8658 11.707 14.9218 11.707 14.9768C11.706 14.9898 11.707 15.0018 11.706 15.0148C11.706 15.0268 11.705 15.0378 11.705 15.0488C11.701 15.1068 11.702 15.1638 11.7 15.2218C11.693 15.3068 11.694 15.3928 11.691 15.4778C11.685 15.5628 11.685 15.6478 11.682 15.7328C11.676 15.8178 11.676 15.9038 11.673 15.9888C11.667 16.0738 11.666 16.1588 11.664 16.2438C11.658 16.3278 11.657 16.4138 11.654 16.4978C11.649 16.5828 11.646 16.6668 11.645 16.7518C11.64 16.8368 11.637 16.9208 11.635 17.0058C11.63 17.0908 11.626 17.1748 11.625 17.2598C11.62 17.3448 11.616 17.4288 11.615 17.5128C11.61 17.5968 11.605 17.6808 11.605 17.7648C11.6 17.8498 11.594 17.9338 11.594 18.0178C11.59 18.1008 11.583 18.1848 11.583 18.2698C11.579 18.3528 11.572 18.4348 11.572 18.5178C11.564 18.6028 11.564 18.6868 11.561 18.7708C11.553 18.8558 11.552 18.9418 11.549 19.0268C11.542 19.1118 11.54 19.1968 11.537 19.2818C11.53 19.3668 11.527 19.4518 11.524 19.5368C11.518 19.6208 11.514 19.7058 11.512 19.7908C11.505 19.8748 11.501 19.9598 11.499 20.0438C11.492 20.1278 11.487 20.2118 11.486 20.2968C11.479 20.3808 11.473 20.4638 11.472 20.5478C11.466 20.6318 11.459 20.7158 11.458 20.7988C11.452 20.8828 11.444 20.9668 11.443 21.0498C11.442 21.0688 11.441 21.0878 11.44 21.1078C11.433 21.1698 11.432 21.2298 11.429 21.2918C11.429 21.2938 11.428 21.2978 11.428 21.3008C11.427 21.3218 11.426 21.3428 11.425 21.3628C11.416 21.4478 11.414 21.5318 11.41 21.6168C11.401 21.7008 11.398 21.7858 11.394 21.8698C11.386 21.9538 11.381 22.0378 11.378 22.1218C11.37 22.2058 11.365 22.2898 11.362 22.3728C11.354 22.4568 11.347 22.5398 11.344 22.6238C11.337 22.7068 11.329 22.7898 11.327 22.8728C11.32 22.9558 11.311 23.0388 11.309 23.1208C11.305 23.1568 11.303 23.1918 11.301 23.2268C11.29 23.3108 11.287 23.3948 11.282 23.4788C11.272 23.5628 11.268 23.6468 11.264 23.7298C11.254 23.8128 11.248 23.8958 11.244 23.9788C11.235 24.0618 11.228 24.1448 11.224 24.2278C11.214 24.3098 11.206 24.3928 11.203 24.4748C11.194 24.5568 11.184 24.6388 11.181 24.7208C11.176 24.7668 11.172 24.8138 11.168 24.8598C11.157 24.9438 11.152 25.0258 11.147 25.1098C11.136 25.1918 11.13 25.2738 11.125 25.3558C11.114 25.4388 11.107 25.5208 11.103 25.6018C11.092 25.6838 11.083 25.7648 11.079 25.8458C11.068 25.9268 11.058 26.0078 11.054 26.0878C11.047 26.1428 11.04 26.1978 11.035 26.2528C11.023 26.3348 11.017 26.4158 11.011 26.4968C10.998 26.5788 10.991 26.6588 10.985 26.7398C10.973 26.8198 10.964 26.8998 10.958 26.9808C10.946 27.0598 10.936 27.1398 10.93 27.2188C10.918 27.2978 10.906 27.3768 10.899 27.4548C10.89 27.5168 10.883 27.5778 10.878 27.6388C10.875 27.6588 10.87 27.6748 10.867 27.6938C10.858 27.7558 10.854 27.8158 10.848 27.8778C10.842 27.9168 10.832 27.9528 10.827 27.9918C10.822 28.0318 10.821 28.0718 10.817 28.1128C10.807 28.1718 10.795 28.2288 10.788 28.2888C10.785 28.3088 10.786 28.3268 10.784 28.3468C10.772 28.4118 10.761 28.4798 10.754 28.5478C10.739 28.6238 10.731 28.7028 10.722 28.7808C10.707 28.8558 10.697 28.9328 10.688 29.0108C10.673 29.0848 10.661 29.1608 10.651 29.2388C10.636 29.3128 10.622 29.3868 10.612 29.4638C10.597 29.5368 10.587 29.6138 10.578 29.6908C10.561 29.7638 10.55 29.8388 10.54 29.9148C10.523 29.9878 10.51 30.0608 10.499 30.1358C10.481 30.2138 10.465 30.2928 10.453 30.3738C10.436 30.4458 10.426 30.5198 10.414 30.5948C10.397 30.6658 10.384 30.7388 10.372 30.8108C10.354 30.8818 10.339 30.9528 10.327 31.0248C10.306 31.1068 10.29 31.1908 10.276 31.2758C10.258 31.3438 10.245 31.4158 10.232 31.4858C10.213 31.5548 10.198 31.6248 10.184 31.6948C10.162 31.7768 10.142 31.8588 10.126 31.9438C10.107 32.0138 10.093 32.0858 10.079 32.1568C10.059 32.2238 10.043 32.2918 10.029 32.3598C10.006 32.4388 9.984 32.5188 9.968 32.5998C9.946 32.6728 9.929 32.7458 9.913 32.8208C9.892 32.8858 9.875 32.9528 9.86 33.0198C9.835 33.0968 9.813 33.1758 9.795 33.2548C9.772 33.3278 9.752 33.4018 9.735 33.4778C9.714 33.5418 9.695 33.6078 9.678 33.6738C9.652 33.7498 9.628 33.8278 9.609 33.9078C9.584 33.9798 9.563 34.0538 9.545 34.1288C9.547 34.2008 9.526 34.2648 9.509 34.3308C9.481 34.4078 9.455 34.4848 9.434 34.5638C9.408 34.6358 9.385 34.7098 9.365 34.7838C9.342 34.8478 9.32 34.9138 9.301 34.9788C9.272 35.0538 9.245 35.1288 9.223 35.2068C9.195 35.2798 9.17 35.3538 9.148 35.4288C9.123 35.4938 9.099 35.5598 9.079 35.6258C9.05 35.6968 9.022 35.7698 8.999 35.8428C8.968 35.9188 8.941 35.9938 8.917 36.0718C8.89 36.1368 8.865 36.2048 8.843 36.2718C8.815 36.3368 8.786 36.4048 8.764 36.4718C8.729 36.5508 8.7 36.6298 8.672 36.7108C8.643 36.7768 8.617 36.8458 8.593 36.9138C8.563 36.9808 8.534 37.0498 8.51 37.1188C8.478 37.1898 8.446 37.2628 8.419 37.3368C8.386 37.4068 8.358 37.4798 8.332 37.5518C8.3 37.6188 8.271 37.6888 8.245 37.7588C8.213 37.8278 8.182 37.8978 8.155 37.9678C8.121 38.0368 8.089 38.1078 8.061 38.1788C8.028 38.2478 7.999 38.3188 7.971 38.3888C7.937 38.4588 7.907 38.5298 7.877 38.6018C7.843 38.6708 7.81 38.7428 7.78 38.8138C7.749 38.8758 7.718 38.9398 7.691 39.0028C7.691 39.0038 7.691 39.0038 7.69 39.0048C7.687 39.0128 7.683 39.0198 7.68 39.0268C7.649 39.0888 7.621 39.1528 7.594 39.2168C7.558 39.2868 7.527 39.3598 7.495 39.4308C7.459 39.5028 7.425 39.5748 7.393 39.6468C7.356 39.7188 7.32 39.7918 7.289 39.8638C7.262 39.9188 7.234 39.9728 7.21 40.0268C7.207 40.0328 7.204 40.0368 7.201 40.0428C7.165 40.1078 7.137 40.1768 7.106 40.2438C7.094 40.2648 7.081 40.2848 7.07 40.3068C7.044 40.3568 7.024 40.4098 7.001 40.4598C6.98 40.4978 6.958 40.5328 6.939 40.5708C6.922 40.6058 6.91 40.6418 6.894 40.6768C6.866 40.7308 6.834 40.7808 6.808 40.8358C6.799 40.8558 6.792 40.8758 6.784 40.8958C6.748 40.9638 6.71 41.0308 6.678 41.1008C6.676 41.1058 6.675 41.1108 6.673 41.1158C6.649 41.1608 6.626 41.2078 6.604 41.2538C6.565 41.3238 6.53 41.3978 6.495 41.4718C6.455 41.5428 6.418 41.6168 6.382 41.6918C6.342 41.7628 6.305 41.8368 6.269 41.9118C6.229 41.9838 6.189 42.0568 6.154 42.1328C6.113 42.2048 6.073 42.2778 6.037 42.3538C6.016 42.3918 5.996 42.4298 5.976 42.4678C5.935 42.5378 5.899 42.6138 5.861 42.6868C5.82 42.7578 5.782 42.8328 5.745 42.9068C5.704 42.9788 5.665 43.0528 5.628 43.1268C5.586 43.1988 5.546 43.2728 5.509 43.3478C5.467 43.4208 5.426 43.4938 5.389 43.5698C5.347 43.6428 5.304 43.7158 5.267 43.7918C5.251 43.8198 5.236 43.8478 5.221 43.8758C5.213 43.8888 5.207 43.9008 5.2 43.9138C5.182 43.9478 5.162 43.9798 5.145 44.0158C5.13 44.0408 5.117 44.0678 5.102 44.0948C5.059 44.1648 5.021 44.2408 4.982 44.3138C4.939 44.3848 4.9 44.4598 4.861 44.5338C4.818 44.6058 4.778 44.6798 4.739 44.7548C4.696 44.8268 4.655 44.9008 4.616 44.9758C4.573 45.0478 4.531 45.1218 4.492 45.1968C4.449 45.2698 4.406 45.3428 4.367 45.4188C4.324 45.4918 4.281 45.5648 4.242 45.6418C4.199 45.7148 4.154 45.7878 4.116 45.8648C4.109 45.8768 4.101 45.8888 4.095 45.9008C4.05 45.9708 4.011 46.0468 3.97 46.1198C3.926 46.1908 3.887 46.2658 3.846 46.3388C3.801 46.4098 3.761 46.4848 3.721 46.5588C3.676 46.6298 3.636 46.7038 3.595 46.7778C3.551 46.8508 3.509 46.9238 3.468 46.9988C3.425 47.0708 3.382 47.1438 3.342 47.2188C3.298 47.2918 3.254 47.3648 3.214 47.4398C3.17 47.5128 3.126 47.5858 3.086 47.6608C3.042 47.7338 2.998 47.8068 2.958 47.8828C2.914 47.9568 2.869 48.0288 2.829 48.1048C2.787 48.1748 2.743 48.2428 2.705 48.3138C2.662 48.3808 2.626 48.4518 2.586 48.5208C2.54 48.5908 2.501 48.6658 2.458 48.7388C2.413 48.8088 2.372 48.8838 2.33 48.9568C2.285 49.0268 2.244 49.1018 2.202 49.1748C2.157 49.2458 2.115 49.3198 2.073 49.3928C2.028 49.4648 1.986 49.5388 1.944 49.6118C1.899 49.6838 1.856 49.7568 1.814 49.8308C1.77 49.9028 1.727 49.9768 1.685 50.0498C1.64 50.1218 1.596 50.1958 1.555 50.2698C1.51 50.3418 1.466 50.4148 1.424 50.4888C1.38 50.5618 1.335 50.6338 1.294 50.7088C1.25 50.7808 1.204 50.8538 1.163 50.9288C1.119 51.0018 1.072 51.0738 1.032 51.1488C0.988 51.2218 0.941 51.2938 0.9 51.3698C0.331 52.3168 0 53.4318 0 54.6258C0 58.1788 2.88 61.0588 6.432 61.0588C9.985 61.0588 12.866 58.1788 12.866 54.6258C12.866 54.6118 12.863 54.5998 12.863 54.5858C12.865 54.5298 12.873 54.4758 12.873 54.4198C12.873 54.4018 12.871 54.3868 12.87 54.3698C12.872 54.3168 12.88 54.2658 12.88 54.2118C12.881 54.1918 12.878 54.1738 12.878 54.1538C12.88 54.1038 12.887 54.0548 12.887 54.0058C12.888 53.9838 12.885 53.9608 12.885 53.9378C12.887 53.8918 12.894 53.8458 12.895 53.7988C12.895 53.7728 12.892 53.7478 12.892 53.7218C12.894 53.6778 12.901 53.6368 12.902 53.5928C12.903 53.5628 12.899 53.5338 12.9 53.5048C12.902 53.4648 12.908 53.4258 12.909 53.3858C12.91 53.3538 12.907 53.3218 12.907 53.2888C12.909 53.2518 12.915 53.2158 12.917 53.1788C12.918 53.1428 12.914 53.1078 12.915 53.0718C12.917 53.0388 12.923 53.0068 12.924 52.9728C12.926 52.9328 12.922 52.8948 12.923 52.8548C12.925 52.8248 12.93 52.7958 12.932 52.7658C12.934 52.7218 12.93 52.6798 12.931 52.6368C12.933 52.6108 12.937 52.5848 12.939 52.5588C12.941 52.5128 12.938 52.4668 12.939 52.4198C12.94 52.3968 12.945 52.3748 12.946 52.3528C12.949 52.3018 12.946 52.2528 12.947 52.2028C12.948 52.1828 12.952 52.1658 12.953 52.1458C12.957 52.0908 12.953 52.0388 12.955 51.9848C12.956 51.9688 12.96 51.9548 12.961 51.9388C12.965 51.8808 12.961 51.8248 12.964 51.7668C12.965 51.7548 12.967 51.7438 12.968 51.7328C12.973 51.6708 12.97 51.6098 12.972 51.5478C12.973 51.5398 12.975 51.5328 12.975 51.5258C12.981 51.4598 12.978 51.3958 12.981 51.3298C12.981 51.3268 12.982 51.3228 12.983 51.3198C12.99 51.2418 12.988 51.1658 12.991 51.0898C13.003 50.9528 13.006 50.8188 13.008 50.6838C13.015 50.5748 13.024 50.4638 13.024 50.3548C13.027 50.2838 13.034 50.2118 13.034 50.1418C13.038 50.0708 13.044 49.9978 13.045 49.9288C13.048 49.8568 13.054 49.7848 13.055 49.7138C13.059 49.6428 13.065 49.5708 13.066 49.5008C13.07 49.4288 13.075 49.3568 13.077 49.2858C13.081 49.2148 13.086 49.1418 13.088 49.0718C13.093 48.9998 13.097 48.9278 13.099 48.8558C13.105 48.7848 13.108 48.7118 13.111 48.6418C13.117 48.5698 13.12 48.4968 13.123 48.4258C13.129 48.3538 13.132 48.2808 13.134 48.2098C13.142 48.1378 13.144 48.0658 13.147 47.9938C13.155 47.9218 13.156 47.8488 13.16 47.7768C13.167 47.7058 13.169 47.6328 13.173 47.5608C13.183 47.4638 13.186 47.3688 13.19 47.2718C13.203 47.1468 13.213 47.0218 13.214 46.8978C13.219 46.8268 13.227 46.7558 13.228 46.6858C13.234 46.6158 13.241 46.5438 13.243 46.4728C13.249 46.4028 13.255 46.3308 13.257 46.2608C13.264 46.1898 13.27 46.1178 13.273 46.0478C13.28 45.9758 13.286 45.9048 13.289 45.8338C13.296 45.7628 13.301 45.6908 13.305 45.6198C13.313 45.5488 13.318 45.4768 13.321 45.4058C13.33 45.3338 13.334 45.2628 13.338 45.1908C13.347 45.1198 13.351 45.0478 13.356 44.9758C13.366 44.9048 13.369 44.8318 13.374 44.7608C13.39 44.6478 13.397 44.5338 13.403 44.4208C13.412 44.3348 13.422 44.2488 13.425 44.1628C13.432 44.0928 13.441 44.0208 13.444 43.9508C13.452 43.8798 13.46 43.8088 13.464 43.7388C13.473 43.6678 13.481 43.5968 13.485 43.5258C13.495 43.4548 13.502 43.3838 13.506 43.3128C13.515 43.2428 13.522 43.1708 13.527 43.0998C13.538 43.0288 13.545 42.9578 13.55 42.8858C13.56 42.8148 13.567 42.7428 13.572 42.6718C13.589 42.5718 13.598 42.4728 13.605 42.3728C13.618 42.2868 13.628 42.2008 13.634 42.1148C13.644 42.0448 13.654 41.9738 13.658 41.9038C13.669 41.8328 13.679 41.7618 13.684 41.6918C13.695 41.6218 13.704 41.5508 13.71 41.4798C13.722 41.4098 13.731 41.3378 13.737 41.2678C13.75 41.1968 13.758 41.1258 13.765 41.0548C13.779 40.9838 13.786 40.9128 13.795 40.8418C13.816 40.7368 13.83 40.6308 13.84 40.5258C13.852 40.4548 13.863 40.3848 13.87 40.3148C13.883 40.2448 13.894 40.1738 13.902 40.1038C13.915 40.0338 13.926 39.9628 13.934 39.8918C13.949 39.8218 13.959 39.7518 13.968 39.6808C13.984 39.6108 13.994 39.5398 14.004 39.4688C14.023 39.3858 14.036 39.3008 14.048 39.2168C14.067 39.1318 14.082 39.0458 14.093 38.9608C14.108 38.8908 14.121 38.8208 14.131 38.7508C14.147 38.6808 14.16 38.6098 14.171 38.5398C14.188 38.4708 14.2 38.3998 14.212 38.3298C14.229 38.2608 14.242 38.1898 14.255 38.1198C14.276 38.0348 14.294 37.9498 14.308 37.8638C14.329 37.7848 14.346 37.7058 14.359 37.6258C14.377 37.5568 14.392 37.4868 14.405 37.4168C14.424 37.3478 14.439 37.2778 14.453 37.2078C14.472 37.1388 14.488 37.0688 14.502 36.9988C14.522 36.9308 14.538 36.8608 14.553 36.7908C14.58 36.6998 14.604 36.6078 14.621 36.5148C14.642 36.4468 14.659 36.3768 14.674 36.3078C14.695 36.2398 14.713 36.1698 14.729 36.1008C14.75 36.0328 14.768 35.9628 14.785 35.8938C14.807 35.8268 14.826 35.7568 14.843 35.6878C14.872 35.6018 14.898 35.5138 14.918 35.4258C14.941 35.3548 14.963 35.2828 14.98 35.2098C15.003 35.1428 15.024 35.0738 15.042 35.0048C15.065 34.9378 15.087 34.8688 15.105 34.8008C15.129 34.7338 15.15 34.6648 15.169 34.5968C15.195 34.5268 15.218 34.4548 15.238 34.3828C15.271 34.2978 15.3 34.2108 15.323 34.1228C15.348 34.0558 15.372 33.9878 15.392 33.9198C15.417 33.8538 15.441 33.7858 15.461 33.7178C15.487 33.6518 15.511 33.5838 15.532 33.5158C15.559 33.4508 15.583 33.3828 15.605 33.3158C15.642 33.2268 15.676 33.1358 15.705 33.0438C15.732 32.9788 15.758 32.9118 15.78 32.8428C15.807 32.7778 15.834 32.7108 15.856 32.6438C15.884 32.5788 15.91 32.5118 15.933 32.4448C15.962 32.3798 15.988 32.3138 16.012 32.2468C16.041 32.1818 16.068 32.1148 16.092 32.0488C16.134 31.9588 16.173 31.8648 16.206 31.7708C16.234 31.7068 16.263 31.6408 16.287 31.5728C16.316 31.5088 16.346 31.4428 16.37 31.3768C16.4 31.3128 16.429 31.2468 16.454 31.1808C16.485 31.1168 16.513 31.0508 16.539 30.9848C16.57 30.9218 16.599 30.8558 16.625 30.7908C16.664 30.7138 16.698 30.6338 16.731 30.5528C16.771 30.4718 16.809 30.3908 16.842 30.3058C16.873 30.2428 16.904 30.1768 16.931 30.1118C16.962 30.0478 16.993 29.9838 17.021 29.9168C17.052 29.8548 17.083 29.7888 17.111 29.7248C17.143 29.6618 17.173 29.5968 17.202 29.5318C17.235 29.4698 17.264 29.4048 17.294 29.3408C17.327 29.2788 17.356 29.2138 17.386 29.1498C17.442 29.0498 17.491 28.9468 17.536 28.8388C17.568 28.7768 17.601 28.7128 17.631 28.6468C17.663 28.5838 17.696 28.5198 17.726 28.4548C17.759 28.3928 17.791 28.3288 17.822 28.2638C17.855 28.2018 17.887 28.1378 17.918 28.0728C17.952 28.0108 17.983 27.9468 18.015 27.8828C18.049 27.8208 18.08 27.7578 18.112 27.6948C18.146 27.6328 18.177 27.5688 18.209 27.5058C18.249 27.4368 18.284 27.3628 18.32 27.2898C18.378 27.1888 18.433 27.0848 18.483 26.9768C18.517 26.9138 18.552 26.8518 18.583 26.7858C18.618 26.7238 18.653 26.6608 18.684 26.5958C18.718 26.5338 18.753 26.4718 18.785 26.4068C18.82 26.3448 18.854 26.2828 18.886 26.2178C18.921 26.1558 18.955 26.0938 18.988 26.0298C19.023 25.9678 19.056 25.9058 19.09 25.8418C19.125 25.7808 19.157 25.7178 19.191 25.6538C19.227 25.5928 19.259 25.5298 19.293 25.4668C19.329 25.4058 19.361 25.3428 19.395 25.2798C19.438 25.2098 19.475 25.1338 19.515 25.0608C19.582 24.9498 19.647 24.8338 19.705 24.7138C19.74 24.6518 19.778 24.5928 19.81 24.5278C19.812 24.5228 19.813 24.5178 19.816 24.5128C19.846 24.4588 19.879 24.4088 19.908 24.3528C19.913 24.3438 19.916 24.3328 19.922 24.3238C19.949 24.2748 19.981 24.2298 20.007 24.1798C20.015 24.1638 20.02 24.1498 20.028 24.1348C20.052 24.0908 20.082 24.0498 20.105 24.0058C20.116 23.9858 20.123 23.9658 20.133 23.9458C20.155 23.9068 20.181 23.8708 20.203 23.8308C20.216 23.8078 20.225 23.7818 20.238 23.7578C20.258 23.7238 20.281 23.6928 20.301 23.6568C20.317 23.6288 20.327 23.5978 20.343 23.5708C20.361 23.5408 20.381 23.5118 20.399 23.4828C20.418 23.4498 20.431 23.4158 20.449 23.3828C20.465 23.3568 20.482 23.3338 20.498 23.3078C20.519 23.2718 20.535 23.2328 20.556 23.1958C20.569 23.1748 20.583 23.1558 20.596 23.1338C20.62 23.0928 20.639 23.0508 20.661 23.0088C20.672 22.9918 20.684 22.9768 20.694 22.9598C20.721 22.9148 20.742 22.8678 20.767 22.8228C20.775 22.8098 20.785 22.7988 20.792 22.7848C20.821 22.7358 20.845 22.6858 20.872 22.6368C20.878 22.6278 20.885 22.6198 20.89 22.6118C20.922 22.5598 20.949 22.5058 20.979 22.4528C20.982 22.4478 20.986 22.4438 20.989 22.4378C21.024 22.3818 21.052 22.3238 21.085 22.2668C21.086 22.2658 21.087 22.2648 21.088 22.2638C21.138 22.1638 21.19 22.0628 21.245 21.9628Z" fill="#BAB8BB"/>
<path d="M45.0578 48.9508C44.9448 48.7948 44.8268 48.6427 44.7008 48.4967C44.5878 48.3397 44.4658 48.1878 44.3388 48.0408C44.2268 47.8868 44.1078 47.7368 43.9838 47.5928C43.8738 47.4388 43.7558 47.2908 43.6328 47.1478C43.5248 46.9948 43.4098 46.8478 43.2888 46.7058C43.1828 46.5548 43.0698 46.4087 42.9508 46.2677C42.8408 46.1077 42.7218 45.9548 42.5968 45.8078C42.4808 45.6378 42.3548 45.4758 42.2208 45.3208C42.1088 45.1588 41.9908 45.0028 41.8618 44.8528C41.7588 44.7058 41.6508 44.5638 41.5348 44.4268C41.4358 44.2808 41.3298 44.1408 41.2178 44.0058C41.1078 43.8378 40.9858 43.6808 40.8568 43.5268C40.7458 43.3568 40.6238 43.1948 40.4938 43.0408C40.3868 42.8798 40.2728 42.7238 40.1478 42.5768C40.0558 42.4358 39.9568 42.3028 39.8518 42.1738C39.7438 42.0018 39.6218 41.8418 39.4928 41.6878C39.3868 41.5178 39.2698 41.3558 39.1418 41.2038C39.0468 41.0538 38.9458 40.9098 38.8348 40.7738C38.7328 40.6058 38.6188 40.4508 38.4968 40.3008C38.3948 40.1308 38.2828 39.9708 38.1598 39.8208C38.0658 39.6638 37.9648 39.5148 37.8528 39.3758C37.7548 39.2058 37.6438 39.0478 37.5238 38.8978C37.4288 38.7298 37.3258 38.5708 37.2098 38.4228C37.1178 38.2578 37.0138 38.1048 36.8998 37.9598C36.8788 37.9188 36.8588 37.8758 36.8348 37.8358C36.7638 37.7148 36.6848 37.6018 36.6018 37.4928C36.5518 37.3978 36.4988 37.3048 36.4398 37.2138C36.3948 37.1448 36.3448 37.0798 36.2958 37.0148C36.2218 36.8698 36.1408 36.7278 36.0438 36.5918C36.0318 36.5758 36.0198 36.5628 36.0088 36.5478C35.9268 36.3798 35.8258 36.2188 35.7138 36.0638C35.6338 35.8948 35.5388 35.7298 35.4268 35.5738C35.3528 35.4138 35.2638 35.2588 35.1608 35.1088C35.0838 34.9288 34.9878 34.7558 34.8748 34.5918C34.8048 34.4238 34.7178 34.2628 34.6148 34.1088C34.5478 33.9398 34.4638 33.7778 34.3648 33.6228C34.2988 33.4488 34.2158 33.2818 34.1168 33.1228C34.0528 32.9438 33.9708 32.7707 33.8708 32.6077C33.8108 32.4347 33.7338 32.2678 33.6418 32.1098C33.5848 31.9348 33.5118 31.7668 33.4218 31.6068C33.3678 31.4308 33.2978 31.2618 33.2118 31.0998C33.1578 30.9138 33.0868 30.7347 32.9988 30.5647C32.9488 30.3867 32.8838 30.2157 32.8018 30.0507C32.7558 29.8737 32.6938 29.7007 32.6158 29.5367C32.5718 29.3567 32.5118 29.1827 32.4368 29.0157C32.3928 28.8237 32.3318 28.6368 32.2518 28.4578C32.2118 28.2808 32.1578 28.1087 32.0898 27.9447C32.0518 27.7567 31.9948 27.5757 31.9258 27.4017C31.8888 27.2127 31.8378 27.0287 31.7698 26.8527C31.7348 26.6697 31.6848 26.4937 31.6218 26.3237C31.5878 26.1337 31.5408 25.9488 31.4768 25.7708C31.4738 25.7508 31.4728 25.7327 31.4688 25.7127C31.4368 25.5467 31.3908 25.3887 31.3378 25.2337C31.3248 25.1577 31.3148 25.0827 31.2968 25.0057C31.2728 24.8997 31.2408 24.7967 31.2078 24.6947C31.1868 24.5627 31.1598 24.4307 31.1238 24.2987C31.1098 24.2447 31.0898 24.1947 31.0728 24.1427C31.0458 23.9587 31.0088 23.7757 30.9518 23.5917C30.9508 23.5857 30.9478 23.5807 30.9458 23.5747C30.9198 23.4007 30.8798 23.2267 30.8288 23.0537C30.8018 22.8617 30.7608 22.6688 30.7048 22.4788C30.6788 22.2908 30.6418 22.1027 30.5888 21.9167C30.5648 21.7427 30.5278 21.5688 30.4818 21.3958C30.4578 21.1988 30.4178 21.0028 30.3648 20.8088C30.3388 20.6098 30.3038 20.4107 30.2508 20.2127C30.2288 20.0487 30.1968 19.8857 30.1568 19.7237C30.1348 19.5337 30.0968 19.3437 30.0518 19.1567C30.0288 18.9547 29.9908 18.7567 29.9428 18.5567C29.9188 18.3597 29.8848 18.1617 29.8368 17.9667C29.8148 17.7927 29.7838 17.6187 29.7428 17.4467C29.7218 17.2677 29.6908 17.0918 29.6518 16.9158C29.6308 16.7218 29.5968 16.5297 29.5538 16.3377C29.5318 16.1347 29.4968 15.9327 29.4518 15.7317C29.4288 15.5397 29.3958 15.3477 29.3538 15.1557C29.3318 14.9727 29.2998 14.7907 29.2608 14.6097C29.2398 14.4247 29.2088 14.2397 29.1698 14.0567C29.1488 13.8687 29.1188 13.6817 29.0808 13.4957C29.0598 13.3067 29.0308 13.1177 28.9928 12.9307C28.9718 12.7397 28.9438 12.5487 28.9058 12.3587C28.8848 12.1657 28.8508 11.9747 28.8128 11.7847C28.7918 11.5967 28.7598 11.4097 28.7228 11.2227C28.7018 11.0327 28.6698 10.8437 28.6338 10.6557C28.6118 10.4647 28.5818 10.2747 28.5448 10.0847C28.5258 9.91775 28.5028 9.75275 28.4728 9.58675C28.4518 9.37475 28.4198 9.16375 28.3798 8.95375C28.3588 8.76075 28.3288 8.56775 28.2938 8.37575C28.2718 8.18175 28.2428 7.98775 28.2068 7.79575C28.1858 7.59975 28.1578 7.40575 28.1218 7.21275C27.9198 5.44875 27.1428 3.73875 25.7908 2.38575C22.6098 -0.79525 17.4528 -0.79525 14.2718 2.38575C11.2348 5.42275 11.0998 10.2587 13.8608 13.4587C13.9778 13.6157 14.1008 13.7687 14.2298 13.9177C14.3468 14.0757 14.4698 14.2297 14.5998 14.3797C14.7128 14.5317 14.8298 14.6807 14.9558 14.8257C15.0678 14.9767 15.1868 15.1257 15.3118 15.2697C15.4098 15.4017 15.5168 15.5267 15.6238 15.6537C15.7318 15.8047 15.8528 15.9507 15.9748 16.0957C16.0978 16.2677 16.2328 16.4357 16.3728 16.5987C16.4928 16.7657 16.6188 16.9297 16.7568 17.0877C16.7648 17.0977 16.7748 17.1057 16.7818 17.1147C16.8748 17.2397 16.9658 17.3658 17.0668 17.4858C17.0858 17.5078 17.1078 17.5268 17.1268 17.5478C17.2088 17.6608 17.2878 17.7747 17.3778 17.8837C17.4078 17.9187 17.4408 17.9498 17.4728 17.9858C17.5438 18.0848 17.6118 18.1857 17.6898 18.2827C17.7308 18.3317 17.7758 18.3767 17.8178 18.4257C17.8788 18.5097 17.9338 18.5977 18.0008 18.6817C18.0528 18.7457 18.1098 18.8047 18.1638 18.8667C18.2138 18.9367 18.2588 19.0108 18.3108 19.0798C18.3738 19.1608 18.4438 19.2337 18.5088 19.3107C18.5478 19.3657 18.5808 19.4227 18.6218 19.4777C18.6948 19.5757 18.7758 19.6658 18.8538 19.7568C18.8808 19.7958 18.9038 19.8368 18.9318 19.8748C19.0158 19.9908 19.1088 20.0987 19.2008 20.2057C19.2158 20.2277 19.2268 20.2507 19.2428 20.2727C19.3388 20.4077 19.4408 20.5347 19.5468 20.6577C19.5488 20.6627 19.5508 20.6667 19.5538 20.6717C19.6708 20.8417 19.7968 21.0017 19.9278 21.1547C20.0348 21.3107 20.1498 21.4587 20.2698 21.5987C20.3768 21.7567 20.4918 21.9068 20.6118 22.0478C20.7188 22.2068 20.8328 22.3587 20.9538 22.5007C21.0598 22.6607 21.1738 22.8128 21.2948 22.9578C21.3998 23.1188 21.5128 23.2737 21.6348 23.4187C21.7378 23.5767 21.8478 23.7297 21.9668 23.8717C22.0708 24.0337 22.1848 24.1838 22.3048 24.3298C22.4088 24.4928 22.5218 24.6457 22.6428 24.7917C22.7448 24.9557 22.8558 25.1127 22.9778 25.2607C23.0798 25.4267 23.1878 25.5857 23.3098 25.7337C23.4028 25.8867 23.5048 26.0337 23.6158 26.1707C23.7138 26.3367 23.8248 26.4907 23.9428 26.6397C24.0408 26.8097 24.1508 26.9697 24.2708 27.1197C24.3658 27.2857 24.4678 27.4447 24.5848 27.5917C24.6718 27.7487 24.7708 27.8967 24.8778 28.0357C24.9698 28.2097 25.0778 28.3707 25.1948 28.5227C25.2848 28.6947 25.3858 28.8587 25.5028 29.0107C25.5848 29.1697 25.6788 29.3217 25.7838 29.4637C25.8688 29.6377 25.9688 29.8007 26.0808 29.9537C26.1628 30.1257 26.2578 30.2897 26.3678 30.4417C26.4428 30.6047 26.5318 30.7597 26.6328 30.9067C26.7118 31.0887 26.8078 31.2608 26.9178 31.4228C26.9888 31.5888 27.0738 31.7467 27.1728 31.8977C27.2418 32.0717 27.3278 32.2378 27.4288 32.3958C27.4958 32.5708 27.5798 32.7388 27.6788 32.8988C27.7408 33.0668 27.8188 33.2298 27.9098 33.3848C27.9718 33.5678 28.0538 33.7428 28.1508 33.9108C28.2068 34.0808 28.2778 34.2448 28.3648 34.4018C28.4218 34.5878 28.4958 34.7678 28.5888 34.9388C28.6398 35.1098 28.7048 35.2768 28.7868 35.4358C28.8368 35.6178 28.9028 35.7938 28.9868 35.9648C29.0338 36.1438 29.0958 36.3188 29.1758 36.4858C29.2188 36.6608 29.2788 36.8328 29.3528 36.9988C29.3958 37.1878 29.4568 37.3748 29.5358 37.5558C29.5748 37.7288 29.6278 37.8988 29.6958 38.0648C29.7338 38.2508 29.7898 38.4318 29.8608 38.6098C29.8968 38.7958 29.9478 38.9788 30.0168 39.1588C30.0498 39.3318 30.0968 39.5038 30.1588 39.6718C30.1908 39.8608 30.2428 40.0478 30.3078 40.2318C30.3398 40.4208 30.3848 40.6098 30.4498 40.7948C30.4788 40.9688 30.5208 41.1418 30.5768 41.3118C30.6048 41.4978 30.6518 41.6808 30.7098 41.8638C30.7378 42.0528 30.7808 42.2418 30.8398 42.4288C30.8668 42.6178 30.9048 42.8058 30.9618 42.9918C30.9868 43.1658 31.0238 43.3388 31.0728 43.5118C31.0978 43.6998 31.1418 43.8888 31.1948 44.0768C31.2198 44.2648 31.2588 44.4528 31.3108 44.6398C31.3348 44.8268 31.3718 45.0138 31.4208 45.2008C31.4448 45.3878 31.4778 45.5728 31.5258 45.7598C31.5478 45.9298 31.5778 46.1008 31.6188 46.2718C31.6238 46.2878 31.6298 46.3028 31.6338 46.3198C31.6528 46.4648 31.6748 46.6098 31.7058 46.7548C31.7158 46.7988 31.7298 46.8398 31.7408 46.8828C31.7568 47.0018 31.7688 47.1198 31.7938 47.2378C31.8078 47.3078 31.8288 47.3758 31.8458 47.4448C31.8568 47.5368 31.8648 47.6288 31.8808 47.7208C31.8978 47.8168 31.9238 47.9088 31.9448 48.0018C31.9538 48.0688 31.9568 48.1368 31.9668 48.2038C31.9868 48.3238 32.0148 48.4398 32.0418 48.5578C32.0468 48.6008 32.0478 48.6428 32.0538 48.6858C32.0748 48.8308 32.1048 48.9708 32.1368 49.1118C32.1388 49.1318 32.1378 49.1498 32.1408 49.1698C32.1638 49.3598 32.1988 49.5468 32.2408 49.7308C32.2638 49.9198 32.2968 50.1078 32.3378 50.2918C32.3608 50.4818 32.3928 50.6688 32.4338 50.8518C32.4558 51.0408 32.4868 51.2278 32.5268 51.4108C32.5478 51.5988 32.5788 51.7838 32.6178 51.9668C32.6388 52.1548 32.6688 52.3388 32.7068 52.5208C32.7278 52.7088 32.7578 52.8918 32.7948 53.0738C32.8138 53.2498 32.8418 53.4227 32.8748 53.5938C32.8958 53.8037 32.9278 54.0088 32.9668 54.2118C33.3498 57.6938 36.3188 60.3878 39.8958 60.3518C43.7068 60.3138 46.7648 57.1938 46.7268 53.3828C46.7118 51.6868 46.0838 50.1418 45.0578 48.9508Z" fill="#BAB8BB"/>
<path d="M62.8579 29.3837C62.9249 29.3297 62.9919 29.2757 63.0579 29.2197C63.1259 29.1657 63.1929 29.1107 63.2589 29.0557C63.3269 29.0017 63.3939 28.9477 63.4609 28.8907C63.5289 28.8367 63.5959 28.7827 63.6629 28.7267C63.7309 28.6727 63.7999 28.6187 63.8659 28.5617C63.9339 28.5067 64.0029 28.4537 64.0699 28.3967C64.1379 28.3417 64.2069 28.2887 64.2739 28.2317C64.3429 28.1767 64.4119 28.1237 64.4789 28.0657C64.4919 28.0557 64.5029 28.0457 64.5149 28.0367C64.5579 28.0047 64.5989 27.9687 64.6409 27.9347C64.6559 27.9227 64.6699 27.9127 64.6849 27.8997C64.6959 27.8907 64.7059 27.8817 64.7169 27.8737C64.7849 27.8207 64.8519 27.7657 64.9189 27.7107C64.9879 27.6577 65.0549 27.6027 65.1219 27.5467C65.1899 27.4937 65.2579 27.4397 65.3259 27.3837C65.3939 27.3297 65.4619 27.2757 65.5289 27.2197C65.5969 27.1667 65.6659 27.1117 65.7329 27.0557C65.8019 27.0017 65.8709 26.9477 65.9379 26.8917C66.2529 26.6447 66.5579 26.3787 66.8489 26.0887C70.8839 22.0797 70.9059 15.5587 66.8959 11.5237C62.8869 7.4887 56.3659 7.4677 52.3309 11.4767C50.5599 13.2377 49.5619 15.4817 49.3389 17.7887C49.3299 17.8627 49.3199 17.9377 49.3129 18.0137C49.3039 18.0887 49.2939 18.1637 49.2869 18.2397C49.2769 18.3147 49.2669 18.3907 49.2599 18.4677C49.2499 18.5417 49.2399 18.6167 49.2339 18.6927C49.2239 18.7687 49.2139 18.8437 49.2069 18.9197C49.1959 18.9947 49.1869 19.0707 49.1799 19.1477C49.1689 19.2227 49.1599 19.2987 49.1529 19.3747C49.1419 19.4497 49.1329 19.5257 49.1249 19.6027C49.1139 19.6777 49.1059 19.7537 49.0979 19.8307C49.0869 19.9057 49.0779 19.9817 49.0699 20.0587C49.0589 20.1347 49.0509 20.2107 49.0429 20.2877C49.0309 20.3627 49.0229 20.4397 49.0139 20.5157C48.9959 20.6377 48.9819 20.7597 48.9689 20.8827C48.9559 20.9777 48.9429 21.0717 48.9329 21.1677C48.9229 21.2417 48.9119 21.3167 48.9049 21.3927C48.8949 21.4677 48.8839 21.5417 48.8769 21.6177C48.8659 21.6927 48.8559 21.7677 48.8479 21.8437C48.8379 21.9187 48.8269 21.9937 48.8199 22.0697C48.8089 22.1447 48.7989 22.2197 48.7909 22.2957C48.7799 22.3707 48.7699 22.4467 48.7619 22.5227C48.7499 22.5987 48.7409 22.6727 48.7319 22.7497C48.7209 22.8247 48.7109 22.9007 48.7029 22.9777C48.6909 23.0527 48.6819 23.1287 48.6729 23.2047C48.6609 23.2807 48.6519 23.3557 48.6429 23.4327C48.6219 23.5577 48.6059 23.6827 48.5919 23.8077C48.5809 23.8817 48.5709 23.9567 48.5619 24.0317C48.5509 24.1067 48.5409 24.1817 48.5309 24.2567C48.5199 24.3327 48.5099 24.4067 48.5009 24.4817C48.4889 24.5567 48.4789 24.6317 48.4699 24.7077C48.4579 24.7827 48.4479 24.8577 48.4389 24.9337C48.4259 25.0097 48.4169 25.0847 48.4069 25.1607C48.3929 25.2397 48.3829 25.3187 48.3729 25.3977C48.3659 25.4417 48.3619 25.4857 48.3549 25.5297C48.3539 25.5447 48.3519 25.5577 48.3499 25.5717C48.3369 25.6427 48.3289 25.7157 48.3199 25.7877C48.3069 25.8587 48.2989 25.9317 48.2889 26.0037C48.2749 26.0747 48.2679 26.1477 48.2569 26.2197C48.2379 26.3177 48.2289 26.4147 48.2139 26.5127C48.1909 26.6447 48.1709 26.7777 48.1539 26.9087C48.1349 27.0217 48.1129 27.1347 48.0999 27.2477C48.0899 27.3177 48.0759 27.3867 48.0669 27.4567C48.0559 27.5257 48.0429 27.5957 48.0339 27.6647C48.0229 27.7347 48.0099 27.8047 48.0009 27.8737C47.9889 27.9437 47.9769 28.0137 47.9669 28.0837C47.9539 28.1527 47.9429 28.2237 47.9329 28.2937C47.9199 28.3627 47.9079 28.4337 47.8979 28.5037C47.8839 28.5727 47.8739 28.6437 47.8629 28.7137C47.8489 28.7837 47.8389 28.8547 47.8269 28.9247C47.8119 28.9947 47.8029 29.0657 47.7909 29.1357C47.7759 29.2057 47.7669 29.2777 47.7539 29.3477C47.7329 29.4447 47.7199 29.5417 47.7029 29.6407C47.6769 29.7647 47.6519 29.8887 47.6349 30.0147C47.6189 30.0967 47.5999 30.1767 47.5879 30.2587C47.5749 30.3267 47.5599 30.3947 47.5499 30.4627C47.5349 30.5307 47.5209 30.5997 47.5099 30.6687C47.4949 30.7357 47.4809 30.8057 47.4699 30.8737C47.4539 30.9417 47.4409 31.0107 47.4289 31.0797C47.4119 31.1477 47.3999 31.2177 47.3869 31.2867C47.3699 31.3547 47.3579 31.4247 47.3439 31.4927C47.3259 31.5607 47.3149 31.6317 47.2999 31.7007C47.2719 31.8097 47.2499 31.9217 47.2299 32.0327C47.2059 32.1307 47.1799 32.2277 47.1629 32.3277C47.1469 32.3937 47.1299 32.4607 47.1169 32.5287C47.0999 32.5947 47.0839 32.6627 47.0709 32.7297C47.0519 32.7967 47.0369 32.8637 47.0219 32.9307C47.0029 32.9977 46.9879 33.0657 46.9729 33.1337C46.9529 33.1997 46.9379 33.2687 46.9219 33.3357C46.9009 33.4067 46.8839 33.4807 46.8659 33.5547C46.8309 33.6657 46.8009 33.7797 46.7759 33.8947C46.7549 33.9657 46.7329 34.0377 46.7159 34.1107C46.6959 34.1747 46.6769 34.2407 46.6609 34.3077C46.6399 34.3717 46.6209 34.4377 46.6039 34.5047C46.5829 34.5697 46.5629 34.6357 46.5449 34.7017C46.5229 34.7657 46.5039 34.8327 46.4839 34.8997C46.4519 34.9897 46.4239 35.0827 46.3979 35.1747C46.3679 35.2597 46.3369 35.3457 46.3139 35.4337C46.2919 35.4967 46.2679 35.5607 46.2499 35.6257C46.2259 35.6887 46.2029 35.7527 46.1829 35.8177C46.1589 35.8807 46.1359 35.9447 46.1149 36.0097C46.0899 36.0717 46.0669 36.1377 46.0449 36.2007C46.0029 36.2967 45.9669 36.3947 45.9339 36.4957C45.9049 36.5637 45.8749 36.6337 45.8509 36.7047C45.8249 36.7667 45.7979 36.8277 45.7749 36.8917C45.7469 36.9537 45.7209 37.0157 45.6969 37.0787C45.6679 37.1407 45.6409 37.2027 45.6159 37.2657C45.5749 37.3467 45.5389 37.4307 45.5049 37.5147C45.4659 37.5907 45.4289 37.6677 45.3959 37.7467C45.3659 37.8067 45.3349 37.8667 45.3089 37.9287C45.2779 37.9887 45.2469 38.0477 45.2189 38.1097C45.1859 38.1687 45.1569 38.2277 45.1269 38.2897C45.0829 38.3637 45.0429 38.4417 45.0049 38.5207C44.9629 38.5907 44.9209 38.6627 44.8829 38.7377C44.8799 38.7437 44.8789 38.7487 44.8759 38.7557C44.8519 38.7967 44.8239 38.8347 44.8019 38.8777C44.7919 38.8957 44.7849 38.9127 44.7769 38.9307C44.7579 38.9597 44.7379 38.9877 44.7199 39.0167C44.7029 39.0457 44.6909 39.0767 44.6749 39.1047C44.6629 39.1237 44.6509 39.1387 44.6389 39.1567C44.6149 39.1967 44.5939 39.2377 44.5719 39.2777C44.5679 39.2847 44.5619 39.2907 44.5579 39.2967C44.5139 39.3607 44.4769 39.4277 44.4389 39.4937C44.3849 39.5707 44.3349 39.6477 44.2889 39.7277C44.2509 39.7837 44.2129 39.8387 44.1779 39.8977C44.1389 39.9517 44.1009 40.0067 44.0659 40.0647C44.0249 40.1187 43.9879 40.1737 43.9509 40.2307C43.9039 40.2907 43.8629 40.3517 43.8209 40.4147C43.7559 40.4967 43.6929 40.5807 43.6359 40.6667C43.5939 40.7207 43.5529 40.7737 43.5139 40.8307C43.4719 40.8837 43.4299 40.9367 43.3909 40.9917C43.3469 41.0447 43.3059 41.0967 43.2659 41.1517C43.2209 41.2037 43.1809 41.2567 43.1399 41.3097C43.0759 41.3817 43.0169 41.4567 42.9589 41.5337C42.8999 41.6007 42.8409 41.6687 42.7869 41.7397C42.7419 41.7917 42.6959 41.8437 42.6539 41.8967C42.6079 41.9477 42.5629 41.9997 42.5199 42.0517C42.4729 42.1017 42.4289 42.1537 42.3849 42.2057C42.3379 42.2547 42.2939 42.3067 42.2489 42.3577C42.1859 42.4217 42.1279 42.4907 42.0689 42.5587C41.9949 42.6337 41.9229 42.7087 41.8559 42.7887C41.8079 42.8387 41.7589 42.8887 41.7129 42.9407C41.6649 42.9907 41.6159 43.0397 41.5709 43.0907C41.5219 43.1397 41.4739 43.1897 41.4269 43.2397C41.3779 43.2887 41.3299 43.3387 41.2839 43.3877C41.2339 43.4357 41.1869 43.4857 41.1389 43.5347C41.0769 43.5927 41.0219 43.6527 40.9639 43.7137C40.8749 43.7957 40.7889 43.8797 40.7079 43.9687C40.6539 44.0217 40.5989 44.0717 40.5479 44.1257C40.4969 44.1747 40.4449 44.2227 40.3979 44.2737C40.3469 44.3207 40.2959 44.3687 40.2469 44.4197C40.1959 44.4677 40.1449 44.5157 40.0969 44.5657C40.0449 44.6127 39.9949 44.6607 39.9469 44.7097C39.8939 44.7557 39.8449 44.8047 39.7959 44.8537C39.7439 44.8987 39.6949 44.9477 39.6459 44.9967C39.5719 45.0587 39.5029 45.1287 39.4339 45.1957C39.3379 45.2787 39.2449 45.3627 39.1559 45.4527C39.0979 45.5057 39.0379 45.5557 38.9829 45.6107C38.9299 45.6587 38.8759 45.7047 38.8249 45.7547C38.7719 45.8027 38.7189 45.8487 38.6669 45.8987C38.6139 45.9457 38.5609 45.9927 38.5099 46.0407C38.4559 46.0877 38.4039 46.1347 38.3519 46.1837C38.2979 46.2297 38.2469 46.2767 38.1949 46.3247C38.1409 46.3697 38.0899 46.4187 38.0369 46.4657C37.9829 46.5107 37.9329 46.5597 37.8799 46.6057C37.8259 46.6507 37.7759 46.6997 37.7229 46.7457C37.6659 46.7917 37.6149 46.8427 37.5599 46.8907C37.4579 46.9717 37.3639 47.0597 37.2679 47.1477C37.1669 47.2317 37.0659 47.3137 36.9709 47.4037C36.9159 47.4527 36.8589 47.4967 36.8059 47.5467C36.7509 47.5937 36.6949 47.6397 36.6419 47.6887C36.5859 47.7357 36.5309 47.7807 36.4769 47.8297C36.4699 47.8367 36.4619 47.8417 36.4559 47.8477C36.4519 47.8507 36.4489 47.8537 36.4449 47.8567C36.4109 47.8857 36.3759 47.9127 36.3419 47.9417C36.2799 47.9927 36.2199 48.0447 36.1609 48.0967C36.1009 48.1457 36.0439 48.1947 35.9859 48.2447C35.9269 48.2927 35.8699 48.3417 35.8129 48.3917C35.7539 48.4397 35.6969 48.4887 35.6389 48.5377C34.0439 49.8307 33.0239 51.8057 33.0239 54.0187C33.0239 57.9147 36.1819 61.0737 40.0789 61.0737C43.6699 61.0737 46.6329 58.3897 47.0739 54.9197C47.0879 54.8367 47.0999 54.7537 47.1099 54.6707C47.1239 54.5887 47.1359 54.5067 47.1469 54.4247C47.1609 54.3427 47.1729 54.2617 47.1839 54.1797C47.1959 54.1057 47.2069 54.0307 47.2169 53.9557C47.2279 53.8897 47.2339 53.8217 47.2419 53.7557C47.2579 53.6637 47.2709 53.5727 47.2839 53.4807C47.2999 53.3897 47.3139 53.2987 47.3269 53.2067C47.3419 53.1157 47.3579 53.0257 47.3689 52.9347C47.3849 52.8437 47.4009 52.7537 47.4129 52.6627C47.4269 52.5787 47.4449 52.4967 47.4549 52.4117C47.4729 52.3277 47.4809 52.2397 47.4959 52.1537C47.5149 52.0627 47.5269 51.9707 47.5419 51.8797C47.5609 51.7887 47.5739 51.6967 47.5879 51.6057C47.6069 51.5157 47.6219 51.4247 47.6349 51.3337C47.6529 51.2437 47.6699 51.1547 47.6829 51.0627C47.7009 50.9727 47.7189 50.8837 47.7319 50.7937C47.7339 50.7807 47.7359 50.7697 47.7389 50.7577C47.7449 50.7307 47.7479 50.7027 47.7549 50.6757C47.7629 50.6257 47.7749 50.5757 47.7799 50.5267C47.7839 50.5127 47.7859 50.4987 47.7889 50.4847C47.8089 50.3947 47.8229 50.3037 47.8389 50.2137C47.8589 50.1247 47.8749 50.0347 47.8899 49.9447C47.9099 49.8557 47.9269 49.7677 47.9419 49.6777C47.9619 49.5897 47.9809 49.5017 47.9959 49.4137C48.0029 49.3817 48.0099 49.3507 48.0159 49.3187C48.0229 49.2897 48.0289 49.2587 48.0349 49.2287C48.0399 49.2037 48.0469 49.1767 48.0509 49.1507C48.0579 49.1187 48.0649 49.0857 48.0709 49.0517C48.0919 48.9647 48.1089 48.8767 48.1259 48.7877C48.1469 48.7017 48.1659 48.6147 48.1819 48.5277C48.2029 48.4417 48.2239 48.3567 48.2399 48.2697C48.2519 48.2247 48.2619 48.1787 48.2719 48.1317C48.2949 48.0477 48.3109 47.9607 48.3299 47.8747C48.3519 47.7907 48.3719 47.7067 48.3889 47.6217C48.4109 47.5397 48.4329 47.4567 48.4509 47.3737C48.4669 47.3157 48.4809 47.2607 48.4949 47.2037C48.5179 47.1227 48.5369 47.0397 48.5559 46.9567C48.5789 46.8767 48.5999 46.7957 48.6189 46.7147C48.6419 46.6357 48.6659 46.5587 48.6839 46.4787C48.7039 46.4157 48.7199 46.3497 48.7369 46.2847C48.7609 46.2077 48.7819 46.1297 48.8019 46.0517C48.8259 45.9767 48.8509 45.9027 48.8699 45.8257C48.8929 45.7557 48.9149 45.6837 48.9329 45.6127C48.9579 45.5397 48.9799 45.4657 48.9999 45.3907C49.0249 45.3207 49.0519 45.2487 49.0719 45.1767C49.0989 45.1027 49.1219 45.0267 49.1439 44.9507C49.1699 44.8817 49.1939 44.8117 49.2149 44.7417C49.2449 44.6667 49.2759 44.5907 49.2999 44.5127C49.3269 44.4457 49.3489 44.3747 49.3719 44.3057C49.3979 44.2417 49.4249 44.1767 49.4479 44.1117C49.4829 44.0327 49.5109 43.9507 49.5409 43.8697C49.5679 43.8077 49.5939 43.7437 49.6169 43.6807C49.6539 43.6007 49.6899 43.5207 49.7209 43.4377C49.7489 43.3757 49.7739 43.3147 49.7979 43.2527C49.8319 43.1807 49.8669 43.1087 49.8969 43.0367C49.9309 42.9687 49.9599 42.8987 49.9889 42.8297C50.0219 42.7677 50.0539 42.7037 50.0829 42.6397C50.1229 42.5667 50.1569 42.4927 50.1899 42.4167C50.2209 42.3597 50.2519 42.3047 50.2789 42.2467C50.3229 42.1717 50.3609 42.0937 50.3979 42.0157C50.4169 41.9847 50.4379 41.9537 50.4559 41.9207C50.4689 41.8977 50.4769 41.8727 50.4889 41.8497C50.5339 41.7767 50.5769 41.7007 50.6169 41.6217C50.6499 41.5677 50.6809 41.5137 50.7109 41.4577C50.7599 41.3827 50.8079 41.3077 50.8509 41.2277C50.8849 41.1757 50.9169 41.1207 50.9499 41.0637C50.9969 40.9967 51.0429 40.9277 51.0849 40.8547C51.1249 40.7967 51.1619 40.7357 51.1989 40.6747C51.2429 40.6127 51.2869 40.5517 51.3269 40.4867C51.3739 40.4237 51.4169 40.3567 51.4599 40.2897C51.4999 40.2367 51.5399 40.1847 51.5759 40.1277C51.6309 40.0597 51.6799 39.9857 51.7289 39.9127C51.7709 39.8587 51.8119 39.8047 51.8509 39.7487C51.9049 39.6827 51.9579 39.6147 52.0069 39.5447C52.0509 39.4907 52.0919 39.4347 52.1329 39.3777C52.1799 39.3217 52.2269 39.2677 52.2709 39.2097C52.3239 39.1477 52.3739 39.0817 52.4219 39.0167C52.4709 38.9607 52.5179 38.9047 52.5639 38.8457C52.6159 38.7867 52.6679 38.7297 52.7159 38.6677C52.7669 38.6117 52.8139 38.5517 52.8619 38.4927C52.9149 38.4347 52.9659 38.3777 53.0149 38.3167C53.0649 38.2637 53.1139 38.2117 53.1609 38.1557C53.2159 38.0977 53.2659 38.0377 53.3179 37.9767C53.3749 37.9177 53.4299 37.8587 53.4829 37.7967C53.5279 37.7497 53.5739 37.7037 53.6169 37.6547C53.6759 37.5957 53.7289 37.5347 53.7849 37.4727C53.8449 37.4127 53.9019 37.3517 53.9579 37.2887C54.0189 37.2287 54.0799 37.1687 54.1369 37.1047C54.1769 37.0667 54.2149 37.0267 54.2529 36.9867C54.3159 36.9267 54.3739 36.8647 54.4329 36.8017C54.4959 36.7417 54.5579 36.6797 54.6179 36.6167C54.6819 36.5557 54.7459 36.4957 54.8059 36.4297C54.8369 36.3997 54.8689 36.3697 54.8999 36.3387C54.9319 36.3107 54.9619 36.2787 54.9929 36.2487C54.9949 36.2467 54.9969 36.2447 54.9989 36.2427C55.0299 36.2147 55.0589 36.1837 55.0889 36.1537C55.1549 36.0937 55.2179 36.0317 55.2799 35.9677C55.3459 35.9067 55.4119 35.8457 55.4739 35.7807C55.5409 35.7197 55.6089 35.6587 55.6719 35.5937C55.6929 35.5747 55.7119 35.5567 55.7319 35.5377C55.7589 35.5147 55.7839 35.4887 55.8109 35.4657C55.8319 35.4447 55.8529 35.4267 55.8729 35.4067C55.8919 35.3877 55.9099 35.3707 55.9299 35.3527C55.9979 35.2927 56.0629 35.2297 56.1279 35.1677C56.1959 35.1067 56.2629 35.0457 56.3279 34.9817C56.3969 34.9207 56.4659 34.8597 56.5309 34.7947C56.5999 34.7337 56.6709 34.6727 56.7359 34.6087C56.7409 34.6037 56.7459 34.5997 56.7509 34.5947C56.7519 34.5937 56.7539 34.5927 56.7549 34.5917C56.8169 34.5347 56.8829 34.4807 56.9429 34.4207C56.9459 34.4177 56.9489 34.4147 56.9529 34.4117C57.0229 34.3527 57.0889 34.2907 57.1559 34.2287C57.2269 34.1697 57.2939 34.1077 57.3619 34.0457C57.4319 33.9857 57.5009 33.9247 57.5679 33.8617C57.6389 33.8017 57.7089 33.7407 57.7759 33.6777C57.8469 33.6167 57.9189 33.5567 57.9859 33.4927C58.0569 33.4317 58.1299 33.3727 58.1969 33.3087C58.2609 33.2517 58.3299 33.1997 58.3919 33.1407C58.4499 33.0937 58.5019 33.0417 58.5579 32.9947C58.6309 32.9357 58.6979 32.8747 58.7669 32.8147C58.8389 32.7557 58.9079 32.6947 58.9769 32.6337C59.0479 32.5757 59.1179 32.5147 59.1869 32.4537C59.2589 32.3947 59.3299 32.3347 59.3979 32.2727C59.4699 32.2137 59.5419 32.1547 59.6109 32.0927C59.6819 32.0317 59.7549 31.9737 59.8239 31.9107C59.8259 31.9097 59.8279 31.9077 59.8299 31.9057C59.9269 31.8307 60.0199 31.7537 60.1119 31.6737C60.1769 31.6207 60.2419 31.5667 60.3039 31.5117C60.3699 31.4577 60.4359 31.4037 60.4989 31.3487C60.5649 31.2937 60.6309 31.2407 60.6949 31.1847C60.7609 31.1297 60.8279 31.0757 60.8919 31.0197C60.9579 30.9657 61.0259 30.9117 61.0899 30.8557C61.1269 30.8257 61.1629 30.7947 61.1989 30.7637C61.2079 30.7577 61.2169 30.7507 61.2239 30.7447C61.2829 30.6977 61.3379 30.6477 61.3949 30.5997C61.4129 30.5847 61.4309 30.5727 61.4499 30.5577C61.4989 30.5177 61.5459 30.4757 61.5939 30.4357C61.6199 30.4147 61.6489 30.3937 61.6759 30.3717C61.7149 30.3407 61.7529 30.3057 61.7919 30.2727C61.8279 30.2437 61.8649 30.2157 61.9009 30.1857C61.9309 30.1607 61.9609 30.1327 61.9909 30.1077C62.0359 30.0717 62.0819 30.0377 62.1269 30.0007C62.1479 29.9807 62.1699 29.9617 62.1909 29.9427C62.2449 29.8997 62.2989 29.8587 62.3519 29.8137C62.3659 29.8017 62.3779 29.7897 62.3929 29.7777C62.4549 29.7277 62.5169 29.6797 62.5779 29.6277C62.5839 29.6227 62.5899 29.6167 62.5959 29.6117C62.6199 29.5907 62.6459 29.5707 62.6709 29.5497C62.7269 29.4947 62.7919 29.4387 62.8579 29.3837Z" fill="#BAB8BB"/>
<path d="M80.0081 53.8438C79.9501 53.7697 79.8901 53.6977 79.8271 53.6287C79.7691 53.5557 79.7111 53.4838 79.6481 53.4148C79.5911 53.3428 79.5341 53.2698 79.4721 53.2028C79.4281 53.1458 79.3811 53.0908 79.3341 53.0368C79.2771 52.9628 79.2171 52.8918 79.1551 52.8218C79.0991 52.7488 79.0401 52.6778 78.9791 52.6098C78.9241 52.5378 78.8671 52.4668 78.8071 52.3988C78.7531 52.3268 78.6981 52.2558 78.6391 52.1888C78.5871 52.1208 78.5351 52.0528 78.4791 51.9888C78.4251 51.9168 78.3681 51.8468 78.3091 51.7788C78.2561 51.7078 78.2021 51.6388 78.1441 51.5718C78.0921 51.5018 78.0401 51.4328 77.9841 51.3668C77.9311 51.2938 77.8791 51.2228 77.8211 51.1548C77.7671 51.0788 77.7091 51.0058 77.6491 50.9338C77.6001 50.8648 77.5481 50.7978 77.4941 50.7338C77.4481 50.6668 77.3991 50.5988 77.3481 50.5368C77.2921 50.4548 77.2351 50.3748 77.1721 50.2998C77.1221 50.2278 77.0701 50.1578 77.0161 50.0908C76.9721 50.0258 76.9261 49.9618 76.8781 49.9008C76.8251 49.8198 76.7701 49.7418 76.7101 49.6668C76.6611 49.5908 76.6081 49.5178 76.5531 49.4458C76.5141 49.3838 76.4721 49.3228 76.4281 49.2638C76.3761 49.1758 76.3181 49.0938 76.2571 49.0148C76.2141 48.9438 76.1681 48.8748 76.1191 48.8108C76.0761 48.7378 76.0301 48.6668 75.9811 48.5988C75.9741 48.5888 75.9701 48.5778 75.9641 48.5678C75.9201 48.4928 75.8721 48.4218 75.8221 48.3538C75.8021 48.3208 75.7861 48.2858 75.7641 48.2528C75.7461 48.2258 75.7271 48.1998 75.7081 48.1738C75.6651 48.0938 75.6181 48.0158 75.5661 47.9388C75.5611 47.9328 75.5561 47.9278 75.5531 47.9228C75.5191 47.8598 75.4811 47.7968 75.4411 47.7348C75.3981 47.6498 75.3481 47.5647 75.2931 47.4827C75.2601 47.4157 75.2221 47.3498 75.1811 47.2858C75.1411 47.1988 75.0931 47.1158 75.0411 47.0328C75.0081 46.9628 74.9711 46.8938 74.9311 46.8258C74.8921 46.7398 74.8481 46.6558 74.7991 46.5738C74.7671 46.5018 74.7311 46.4308 74.6921 46.3618C74.6561 46.2748 74.6161 46.1908 74.5691 46.1088C74.5391 46.0348 74.5051 45.9628 74.4651 45.8918C74.4331 45.8078 74.3981 45.7248 74.3551 45.6448C74.3261 45.5668 74.2921 45.4918 74.2541 45.4178C74.2271 45.3418 74.1961 45.2678 74.1611 45.1958C74.1321 45.1068 74.0961 45.0208 74.0561 44.9378C74.0311 44.8628 74.0021 44.7878 73.9691 44.7148C73.9421 44.6248 73.9081 44.5368 73.8701 44.4518C73.8481 44.3768 73.8201 44.3028 73.7901 44.2288C73.7641 44.1378 73.7341 44.0478 73.6971 43.9598C73.6761 43.8858 73.6511 43.8128 73.6231 43.7388C73.5991 43.6458 73.5711 43.5538 73.5361 43.4648C73.5161 43.3918 73.4941 43.3188 73.4691 43.2478C73.4471 43.1518 73.4191 43.0588 73.3861 42.9668C73.3691 42.8968 73.3491 42.8258 73.3261 42.7568C73.3051 42.6588 73.2791 42.5648 73.2471 42.4708C73.2311 42.3958 73.2111 42.3218 73.1881 42.2478C73.1691 42.1568 73.1471 42.0678 73.1201 41.9798C73.1021 41.8878 73.0801 41.7968 73.0531 41.7088C73.0391 41.6368 73.0231 41.5638 73.0031 41.4938C72.9851 41.3948 72.9641 41.2998 72.9381 41.2058C72.9211 41.1188 72.9021 41.0328 72.8781 40.9488C72.8641 40.8698 72.8491 40.7918 72.8281 40.7148C72.8131 40.6228 72.7961 40.5318 72.7731 40.4438C72.7721 40.4358 72.7721 40.4277 72.7711 40.4207C72.7571 40.3387 72.7381 40.2598 72.7181 40.1808C72.7121 40.1468 72.7101 40.1127 72.7031 40.0767C72.6941 40.0277 72.6801 39.9817 72.6681 39.9327C72.6581 39.8667 72.6501 39.7987 72.6371 39.7327C72.6321 39.7147 72.6261 39.6978 72.6221 39.6788C72.6091 39.5898 72.5941 39.4997 72.5731 39.4107C72.5601 39.3257 72.5441 39.2407 72.5241 39.1547C72.5121 39.0677 72.4971 38.9808 72.4781 38.8938C72.4661 38.8048 72.4521 38.7167 72.4331 38.6277C72.4211 38.5377 72.4101 38.4467 72.3911 38.3567C72.3801 38.2777 72.3651 38.1977 72.3491 38.1187C72.3381 38.0287 72.3231 37.9397 72.3051 37.8497C72.2941 37.7587 72.2801 37.6687 72.2621 37.5777C72.2511 37.4857 72.2391 37.3948 72.2211 37.3038C72.2091 37.2108 72.1991 37.1177 72.1801 37.0247C72.1721 36.9577 72.1621 36.8897 72.1511 36.8227C72.1411 36.7307 72.1261 36.6397 72.1101 36.5487C72.1001 36.4557 72.0861 36.3637 72.0691 36.2717C72.0591 36.1777 72.0471 36.0848 72.0301 35.9928C72.0201 35.8978 72.0081 35.8047 71.9911 35.7107C71.9811 35.6157 71.9701 35.5217 71.9541 35.4267C71.9431 35.3307 71.9331 35.2367 71.9161 35.1417C71.9111 35.0917 71.9041 35.0427 71.8971 34.9947C71.8881 34.9007 71.8741 34.8078 71.8591 34.7148C71.8501 34.6198 71.8371 34.5267 71.8231 34.4327C71.8141 34.3377 71.8011 34.2437 71.7861 34.1487C71.7771 34.0537 71.7651 33.9597 71.7511 33.8637C71.7411 33.7687 71.7301 33.6737 71.7151 33.5777C71.7061 33.4807 71.6951 33.3858 71.6801 33.2898C71.6701 33.1928 71.6601 33.0967 71.6461 33.0007C71.6351 32.9037 71.6261 32.8077 71.6111 32.7107C71.6091 32.6877 71.6061 32.6637 71.6031 32.6407C71.6021 32.6177 71.5971 32.5928 71.5951 32.5688C71.5881 32.5188 71.5851 32.4687 71.5761 32.4197C71.5741 32.3987 71.5711 32.3787 71.5681 32.3577C71.5611 32.2617 71.5471 32.1687 71.5351 32.0727C71.5281 31.9777 71.5141 31.8838 71.5021 31.7878C71.4941 31.6918 71.4811 31.5967 71.4701 31.5017C71.4611 31.4047 71.4491 31.3108 71.4371 31.2148C71.4291 31.1178 71.4171 31.0228 71.4051 30.9268C71.3961 30.8298 71.3851 30.7337 71.3721 30.6377C71.3631 30.5407 71.3531 30.4447 71.3411 30.3487C71.3311 30.2507 71.3221 30.1547 71.3091 30.0577C71.2991 29.9607 71.2911 29.8648 71.2771 29.7668C71.2671 29.6698 71.2591 29.5727 71.2461 29.4757C71.2351 29.3777 71.2281 29.2808 71.2141 29.1838C71.2041 29.0878 71.1981 28.9938 71.1841 28.8988C71.1811 28.8528 71.1731 28.8077 71.1691 28.7617C71.1641 28.7257 71.1631 28.6888 71.1581 28.6528C71.1521 28.5588 71.1371 28.4657 71.1281 28.3737C71.1211 28.2777 71.1071 28.1837 71.0981 28.0877C71.0921 27.9917 71.0781 27.8968 71.0681 27.8018C71.0611 27.7048 71.0491 27.6107 71.0391 27.5147C71.0321 27.4177 71.0201 27.3237 71.0101 27.2277C71.0031 27.1447 70.9941 27.0627 70.9861 26.9807C70.9781 26.8617 70.9661 26.7457 70.9531 26.6267C70.9451 26.5347 70.9351 26.4437 70.9251 26.3527C70.9171 26.2617 70.9071 26.1697 70.8971 26.0787C70.8891 25.9857 70.8801 25.8947 70.8701 25.8037C70.8621 25.7117 70.8531 25.6198 70.8421 25.5278C70.8341 25.4348 70.8261 25.3427 70.8151 25.2507C70.8071 25.1577 70.7981 25.0657 70.7881 24.9737C70.7801 24.8797 70.7711 24.7867 70.7611 24.6957C70.7561 24.6337 70.7491 24.5717 70.7421 24.5087C70.7351 24.4167 70.7241 24.3237 70.7151 24.2337C70.7081 24.1417 70.6971 24.0498 70.6881 23.9588C70.6801 23.8668 70.6701 23.7748 70.6611 23.6838C70.6531 23.5908 70.6431 23.4978 70.6341 23.4068C70.6261 23.3138 70.6171 23.2217 70.6071 23.1307C70.5991 23.0367 70.5901 22.9447 70.5801 22.8527C70.5721 22.7597 70.5631 22.6667 70.5541 22.5747C70.5461 22.4817 70.5371 22.3888 70.5271 22.2968C70.5191 22.2038 70.5101 22.1098 70.5001 22.0178C70.4921 21.9248 70.4841 21.8308 70.4741 21.7388C70.4661 21.6448 70.4571 21.5508 70.4471 21.4588C70.4391 21.3658 70.4311 21.2718 70.4211 21.1788C70.4131 21.0858 70.4051 20.9918 70.3951 20.8988C70.3861 20.8048 70.3791 20.7108 70.3681 20.6188C70.3651 20.5788 70.3611 20.5398 70.3571 20.5008C70.3501 20.4078 70.3401 20.3148 70.3311 20.2238C70.3241 20.1308 70.3131 20.0377 70.3051 19.9467C70.2981 19.8537 70.2881 19.7608 70.2791 19.6698C70.2721 19.5758 70.2621 19.4827 70.2531 19.3907C70.2461 19.2977 70.2361 19.2048 70.2271 19.1128C70.2201 19.0198 70.2101 18.9258 70.2011 18.8338C70.1941 18.7408 70.1841 18.6478 70.1751 18.5558C70.1681 18.4628 70.1591 18.3688 70.1491 18.2758C70.1421 18.1828 70.1331 18.0898 70.1241 17.9968C70.1161 17.9028 70.1071 17.8097 70.0981 17.7177C69.9071 15.3417 68.9051 13.0197 67.0881 11.2027C63.0261 7.14075 56.4401 7.14075 52.3781 11.2027C48.3951 15.1847 48.3191 21.5937 52.1481 25.6707C52.2061 25.7357 52.2661 25.7998 52.3271 25.8638C52.3851 25.9278 52.4461 25.9917 52.5061 26.0557C52.5641 26.1207 52.6251 26.1847 52.6861 26.2487C52.7441 26.3137 52.8051 26.3777 52.8651 26.4417C52.9241 26.5067 52.9851 26.5708 53.0451 26.6348C53.1481 26.7518 53.2541 26.8648 53.3621 26.9788C53.4271 27.0488 53.4911 27.1218 53.5581 27.1908C53.5601 27.1938 53.5631 27.1958 53.5651 27.1978C53.6191 27.2568 53.6711 27.3157 53.7261 27.3737C53.7321 27.3797 53.7371 27.3838 53.7421 27.3888C53.7931 27.4458 53.8431 27.5017 53.8951 27.5567C53.9031 27.5647 53.9111 27.5718 53.9171 27.5798C53.9661 27.6328 54.0131 27.6868 54.0631 27.7388C54.0731 27.7508 54.0841 27.7597 54.0931 27.7697C54.1391 27.8207 54.1841 27.8727 54.2311 27.9217C54.2441 27.9357 54.2571 27.9477 54.2701 27.9607C54.3131 28.0087 54.3551 28.0577 54.3991 28.1057C54.4151 28.1217 54.4311 28.1358 54.4471 28.1528C54.4881 28.1978 54.5261 28.2437 54.5681 28.2887C54.5871 28.3077 54.6051 28.3247 54.6241 28.3447C54.6621 28.3867 54.6981 28.4298 54.7361 28.4718C54.7571 28.4928 54.7801 28.5147 54.8001 28.5357C54.8351 28.5747 54.8681 28.6147 54.9041 28.6537C54.9281 28.6787 54.9531 28.7027 54.9771 28.7277C55.0091 28.7637 55.0391 28.7997 55.0731 28.8347C55.0991 28.8637 55.1281 28.8918 55.1551 28.9198C55.1831 28.9518 55.2121 28.9857 55.2411 29.0187C55.2711 29.0507 55.3021 29.0807 55.3321 29.1117C55.3581 29.1417 55.3831 29.1727 55.4101 29.2017C55.4421 29.2377 55.4761 29.2697 55.5101 29.3057C55.5331 29.3317 55.5551 29.3598 55.5781 29.3848C55.6131 29.4238 55.6511 29.4597 55.6861 29.4977C55.7071 29.5207 55.7261 29.5457 55.7471 29.5667C55.7851 29.6097 55.8251 29.6497 55.8651 29.6917C55.8821 29.7107 55.8971 29.7307 55.9151 29.7507C55.9571 29.7967 56.0001 29.8398 56.0431 29.8848C56.0571 29.9018 56.0691 29.9178 56.0841 29.9338C56.1281 29.9838 56.1751 30.0308 56.2211 30.0798C56.2321 30.0918 56.2421 30.1037 56.2521 30.1167C56.3001 30.1707 56.3501 30.2207 56.3981 30.2727C56.4061 30.2817 56.4131 30.2907 56.4201 30.2987C56.4711 30.3567 56.5241 30.4107 56.5761 30.4667C56.5801 30.4717 56.5841 30.4768 56.5881 30.4818C56.6421 30.5438 56.6981 30.6028 56.7541 30.6628C56.7551 30.6638 56.7561 30.6637 56.7571 30.6647C56.8481 30.7687 56.9411 30.8717 57.0361 30.9707C57.0941 31.0347 57.1511 31.0997 57.2121 31.1617C57.2701 31.2257 57.3271 31.2907 57.3871 31.3517C57.4461 31.4167 57.5031 31.4828 57.5641 31.5448C57.6221 31.6088 57.6801 31.6747 57.7401 31.7367C57.7981 31.8017 57.8561 31.8667 57.9161 31.9287C57.9751 31.9947 58.0321 32.0597 58.0931 32.1217C58.1511 32.1867 58.2091 32.2527 58.2701 32.3157C58.3771 32.4377 58.4881 32.5578 58.6021 32.6718C58.6601 32.7338 58.7131 32.7998 58.7731 32.8598C58.8291 32.9208 58.8811 32.9857 58.9401 33.0447C58.9961 33.1057 59.0491 33.1707 59.1071 33.2297C59.1641 33.2917 59.2161 33.3568 59.2751 33.4158C59.3311 33.4778 59.3841 33.5418 59.4431 33.6018C59.4991 33.6638 59.5521 33.7277 59.6101 33.7877C59.6661 33.8497 59.7201 33.9137 59.7781 33.9747C59.8351 34.0367 59.8881 34.1007 59.9461 34.1617C60.0021 34.2237 60.0571 34.2877 60.1141 34.3477C60.1701 34.4117 60.2251 34.4747 60.2831 34.5357C60.3381 34.5987 60.3931 34.6617 60.4511 34.7237C60.5071 34.7867 60.5621 34.8497 60.6201 34.9117C60.6751 34.9757 60.7311 35.0377 60.7881 35.0997C60.8441 35.1637 60.9001 35.2257 60.9571 35.2877C61.0121 35.3527 61.0691 35.4147 61.1261 35.4757C61.1811 35.5407 61.2381 35.6028 61.2951 35.6648C61.3491 35.7298 61.4071 35.7918 61.4641 35.8538C61.5181 35.9198 61.5761 35.9807 61.6331 36.0427C61.6871 36.1097 61.7451 36.1697 61.8021 36.2327C61.8781 36.3277 61.9611 36.4157 62.0421 36.5037C62.1351 36.6147 62.2291 36.7267 62.3281 36.8287C62.3831 36.8907 62.4341 36.9557 62.4911 37.0147C62.5461 37.0767 62.5981 37.1417 62.6551 37.2017C62.7091 37.2637 62.7611 37.3288 62.8181 37.3888C62.8721 37.4508 62.9251 37.5157 62.9821 37.5767C63.0361 37.6397 63.0891 37.7037 63.1461 37.7647C63.2001 37.8287 63.2531 37.8927 63.3101 37.9527C63.3631 38.0177 63.4171 38.0807 63.4741 38.1417C63.5271 38.2067 63.5821 38.2698 63.6381 38.3318C63.6911 38.3968 63.7461 38.4597 63.8021 38.5217C63.8551 38.5877 63.9101 38.6498 63.9671 38.7128C64.0191 38.7788 64.0751 38.8417 64.1311 38.9047C64.1961 38.9897 64.2681 39.0687 64.3391 39.1477C64.4141 39.2437 64.4921 39.3367 64.5741 39.4257C64.6271 39.4887 64.6781 39.5547 64.7341 39.6147C64.7861 39.6777 64.8381 39.7438 64.8931 39.8038C64.9451 39.8688 64.9971 39.9327 65.0521 39.9947C65.1041 40.0597 65.1561 40.1238 65.2121 40.1858C65.2641 40.2518 65.3161 40.3167 65.3721 40.3787C65.4231 40.4447 65.4761 40.5098 65.5311 40.5718C65.5821 40.6388 65.6351 40.7038 65.6901 40.7668C65.7491 40.8458 65.8111 40.9208 65.8751 40.9958C65.9401 41.0838 66.0091 41.1688 66.0811 41.2498C66.1311 41.3158 66.1821 41.3818 66.2361 41.4438C66.2861 41.5098 66.3371 41.5758 66.3901 41.6378C66.4401 41.7048 66.4921 41.7718 66.5451 41.8338C66.5941 41.9018 66.6461 41.9687 66.6991 42.0317C66.7481 42.1007 66.8001 42.1668 66.8521 42.2318C66.9121 42.3188 66.9761 42.4027 67.0441 42.4827C67.0951 42.5547 67.1481 42.6268 67.2031 42.6938C67.2511 42.7618 67.3011 42.8287 67.3531 42.8927C67.4001 42.9617 67.4501 43.0298 67.5011 43.0948C67.5481 43.1648 67.5981 43.2328 67.6491 43.2978C67.6951 43.3688 67.7441 43.4377 67.7951 43.5037C67.8501 43.5897 67.9081 43.6728 67.9711 43.7528C68.0161 43.8218 68.0641 43.8908 68.1151 43.9568C68.1601 44.0278 68.2071 44.0977 68.2581 44.1637C68.3011 44.2357 68.3481 44.3068 68.3981 44.3738C68.4471 44.4578 68.5001 44.5398 68.5571 44.6168C68.6001 44.6898 68.6451 44.7598 68.6941 44.8268C68.7361 44.8998 68.7801 44.9707 68.8291 45.0387C68.8691 45.1127 68.9131 45.1848 68.9611 45.2548C69.0051 45.3368 69.0521 45.4178 69.1051 45.4958C69.1441 45.5688 69.1871 45.6418 69.2331 45.7108C69.2711 45.7858 69.3131 45.8588 69.3581 45.9298C69.3951 46.0058 69.4351 46.0788 69.4801 46.1508C69.5191 46.2338 69.5621 46.3138 69.6101 46.3918C69.6451 46.4688 69.6841 46.5417 69.7271 46.6147C69.7611 46.6917 69.7981 46.7668 69.8401 46.8398C69.8731 46.9168 69.9081 46.9938 69.9491 47.0678C69.9831 47.1518 70.0231 47.2318 70.0661 47.3128C70.0961 47.3898 70.1311 47.4658 70.1701 47.5418C70.1991 47.6198 70.2331 47.6968 70.2711 47.7708C70.3011 47.8568 70.3361 47.9398 70.3761 48.0218C70.4031 48.1008 70.4361 48.1777 70.4721 48.2537C70.4981 48.3327 70.5291 48.4108 70.5641 48.4868C70.5891 48.5668 70.6181 48.6448 70.6511 48.7218C70.6771 48.8088 70.7101 48.8948 70.7461 48.9798C70.7691 49.0598 70.7981 49.1388 70.8291 49.2168C70.8511 49.2968 70.8781 49.3758 70.9081 49.4538C70.9311 49.5428 70.9591 49.6318 70.9921 49.7178C71.0131 49.8008 71.0391 49.8818 71.0691 49.9618C71.0891 50.0428 71.1121 50.1228 71.1401 50.2018C71.1591 50.2828 71.1811 50.3618 71.2081 50.4418C71.2271 50.5258 71.2491 50.6108 71.2761 50.6928C71.2951 50.7858 71.3201 50.8768 71.3491 50.9658C71.3671 51.0468 71.3871 51.1278 71.4121 51.2088C71.4281 51.2898 71.4471 51.3698 71.4721 51.4508C71.4871 51.5318 71.5061 51.6118 71.5291 51.6918C71.5471 51.7948 71.5691 51.8947 71.5981 51.9967C71.6141 52.0787 71.6311 52.1608 71.6541 52.2418C71.6691 52.3238 71.6861 52.4058 71.7081 52.4868C71.7221 52.5678 71.7381 52.6498 71.7591 52.7308C71.7721 52.8118 71.7881 52.8928 71.8081 52.9738C71.8201 53.0548 71.8371 53.1358 71.8551 53.2168C71.8711 53.3258 71.8911 53.4368 71.9171 53.5478C71.9181 53.5508 71.9191 53.5528 71.9201 53.5558C71.9311 53.6238 71.9401 53.6918 71.9551 53.7598C71.9581 53.7748 71.9631 53.7878 71.9671 53.8038C71.9751 53.8598 71.9811 53.9158 71.9921 53.9728C71.9971 53.9988 72.0061 54.0248 72.0121 54.0498C72.0181 54.0948 72.0211 54.1397 72.0291 54.1847C72.0371 54.2227 72.0481 54.2587 72.0551 54.2957C72.0601 54.3297 72.0611 54.3628 72.0671 54.3978C72.0751 54.4478 72.0881 54.4938 72.0971 54.5418C72.1001 54.5648 72.1001 54.5888 72.1041 54.6108C72.1121 54.6708 72.1261 54.7268 72.1381 54.7868C72.1391 54.7988 72.1391 54.8108 72.1411 54.8228C72.1501 54.8928 72.1641 54.9618 72.1781 55.0298C72.1781 55.0318 72.1781 55.0338 72.1781 55.0358C72.1921 55.1638 72.2121 55.2898 72.2391 55.4118C72.2511 55.4958 72.2611 55.5798 72.2791 55.6618C72.2901 55.7458 72.3011 55.8288 72.3171 55.9108C72.3281 55.9938 72.3391 56.0768 72.3541 56.1588C72.3641 56.2418 72.3751 56.3248 72.3911 56.4058C72.4001 56.4888 72.4121 56.5708 72.4271 56.6528C72.4351 56.7358 72.4481 56.8168 72.4611 56.8988C72.4701 56.9808 72.4821 57.0618 72.4951 57.1438C72.7011 59.3418 74.5491 61.0628 76.8011 61.0628C79.1911 61.0628 81.1271 59.1258 81.1271 56.7368C81.1211 55.6208 80.6981 54.6108 80.0081 53.8438Z" fill="#BAB8BB"/>
</svg>
